<?xml version="1.0" encoding="UTF-8"?>
<!DOCTYPE svg PUBLIC "-//W3C//DTD SVG 1.1//EN" "http://www.w3.org/Graphics/SVG/1.1/DTD/svg11.dtd">
<svg xmlns="http://www.w3.org/2000/svg" xmlns:xlink="http://www.w3.org/1999/xlink">
    <symbol id="clip" viewBox="0 0 21 20">
        <path d="M19.4113,1.66617c-2.11826,-2.22156 -5.55326,-2.22156 -7.67147,0l-10.54783,11.06215c-1.58933,1.66684 -1.58933,4.36767 0,6.03457c1.30999,1.37387 3.28585,1.59572 4.83046,0.704c0.16136,-0.00853 0.32002,-0.07251 0.44346,-0.20052l10.54777,-11.06215c1.0591,-1.11075 1.0591,-2.91132 0,-4.02207c-1.0591,-1.11075 -2.77595,-1.11075 -3.83505,0l-8.63027,9.05108c-0.26447,0.27736 -0.26447,0.72821 0,1.0055c0.26446,0.27736 0.69434,0.27736 0.95874,0l8.63028,-9.05108c0.53024,-0.55609 1.38863,-0.55609 1.91755,0c0.53024,0.5561 0.53024,1.45635 0,2.01107l-10.06908,10.56005c-1.0591,1.11075 -2.77595,1.11075 -3.83505,0c-1.0591,-1.11075 -1.0591,-2.91132 0,-4.02207l10.54777,-11.06503c1.58934,-1.66684 4.16458,-1.66684 5.75398,0c1.58934,1.66685 1.58934,4.36767 0,6.03458l-9.58903,10.05664c-0.26446,0.27736 -0.26446,0.72821 0,1.00551c0.26447,0.27735 0.69435,0.27735 0.95875,0l9.58902,-10.05665c2.11827,-2.2215 2.11827,-5.82402 0,-8.04558z"/>
    </symbol>
    <symbol id="package" viewBox="0 0 20 20">
        <path d="M10.50527,18.67877v-9.42592l3.7155,-1.74757v2.46518c0,0.27859 0.23521,0.50654 0.52269,0.50654c0.28749,0 0.5227,-0.22795 0.5227,-0.50654v-2.95906l3.17973,-1.4943v9.42592zM1.54539,5.53398l7.91449,3.7217v9.43309l-7.91449,-3.7217zM9.98258,8.37062l-7.77075,-3.65133l3.71114,-1.74335l7.77075,3.65133zM9.98258,1.06796l7.77075,3.65133l-2.86176,1.34656l-7.77075,-3.65133zM19.49129,4.71507c0,-0.07598 -0.01742,-0.15196 -0.05227,-0.22372c-0.06969,-0.14352 -0.20472,-0.24061 -0.35282,-0.27016l-8.87277,-4.17054c-0.14374,-0.06753 -0.31361,-0.06753 -0.45735,0l-8.95989,4.20853c-0.17423,0.0802 -0.28748,0.24905 -0.29619,0.439c0,0.00422 0,0.01267 0,0.02111v10.56142c0,0.19417 0.11325,0.37146 0.29619,0.45589l8.95989,4.20852c0.00435,0 0.00435,0 0.00871,0.00423c0.01306,0.00422 0.02613,0.00844 0.0392,0.01688c0.00435,0 0.00871,0.00422 0.01742,0.00422c0.01307,0.00422 0.02614,0.00844 0.0392,0.01267c0.00436,0 0.00872,0.00422 0.01307,0.00422c0.01307,0.00422 0.03049,0.00422 0.04356,0.00844c0.00436,0 0.00871,0 0.01307,0c0.01742,0 0.0392,0.00422 0.05662,0.00422c0.01743,0 0.0392,0 0.05663,-0.00422c0.00435,0 0.00871,0 0.01307,0c0.01306,0 0.03049,-0.00422 0.04355,-0.00844c0.00436,0 0.00872,-0.00422 0.01307,-0.00422c0.01307,-0.00423 0.02614,-0.00845 0.0392,-0.01267c0.00436,0 0.00871,-0.00422 0.01743,-0.00422c0.01306,-0.00422 0.02613,-0.00844 0.0392,-0.01688c0.00435,0 0.00435,0 0.00871,-0.00423l8.98602,-4.22119c0.17858,-0.08442 0.29619,-0.26171 0.29619,-0.45588v-10.54032c-0.00871,-0.00422 -0.00871,-0.00844 -0.00871,-0.01266z"/>
    </symbol>
    <symbol id="barcode" viewBox="0 0 18 20">
        <path d="M2.87546,0v16.19702h0.12454v-16.19702zM2.482,0v16.19702h0.12008v-16.19702zM2.02926,0v16.19702h0.1415v-16.19702zM0.82047,0v16.19702h0.57519v-16.19702zM0.7601,19.81864l0.20441,0.18136h1.33623l0.18587,-0.18186v-1.2483c-0.04183,-0.04041 -0.06132,-0.08638 -0.06132,-0.13892v-0.06113c0,-0.04142 0.01949,-0.07931 0.06132,-0.12073v-1.06745l-0.18587,-0.18085h-1.33623l-0.20441,0.18085v0.76737h0.32752c0,-0.04193 0,-0.12832 0,-0.2632c0,-0.14751 0.00666,-0.23339 0.01997,-0.2632c0,-0.02576 0.02187,-0.03839 0.0618,-0.03839c0.05514,0 0.78861,0 0.80335,0l0.1217,0.11922v0.78707h-1.06814v0.30109h1.06861v0.96792l-0.12169,0.11922h-0.69926l-0.1659,-0.11922v-0.50518h-0.34796zM0,0v16.19702h0.57519v-16.19702z"/>
        <path d="M7,0v16.19538h-0.57566v-16.19538zM6.17122,0v16.19538h-0.14104v-16.19538zM5.7807,0v16.19538h-0.12102v-16.19538zM6.09538,18.12598v-0.62332l-0.12216,-0.11921c-0.01331,0 -0.83521,0 -0.86468,0c-0.02757,0 -0.03993,0.01262 -0.03993,0.03839v0.52482h-0.36888v-0.76728l0.18396,-0.18084h1.41705l0.18634,0.18084v1.25069l-0.18634,0.22125h-1.08762l-0.12455,0.15962v0.8476h1.39709v0.34146h-1.78736v-1.42849c0,-0.01465 0.00666,-0.03435 0.02044,-0.06112c0.01284,-0.02779 0.02615,-0.05254 0.04183,-0.07981c0.0271,-0.02779 0.06703,-0.07375 0.12169,-0.13942h1.09001zM4.95508,0v16.19538h-0.56527v-16.19538zM4.12454,0v16.19538h-0.12454v-16.19538z"/>
        <path d="M9.42502,0h0.57498v16.14645h-0.57498zM9.0302,0h0.14203v16.14645h-0.14203zM8.21227,0h0.57641v16.14645h-0.57641zM7.57498,18.59445v-1.58584h0.34956v1.18548h1.09004v-1.18548h0.34908v2.99139h-0.34956v-1.40555zM7.3895,0h0.12461v16.14645h-0.12461zM7,0h0.12365v16.14645h-0.12365z"/>
        <path d="M13.87595,0v16.14482h0.12405v-16.14482zM13.48669,0v16.14482h0.12262v-16.14482zM12.60219,0v16.14482h0.57557v-16.14482zM11.81793,0v16.14482h0.14241v-16.14482zM11.63688,19.05282l-0.00095,0.00151v0.70296l0.24572,0.24271h1.29563l0.24715,-0.2417v-1.26492l-0.24715,-0.25983h-1.15019v-0.88524h1.39544v-0.34141h-1.78755v1.58568h1.33413l0.12262,0.15962v0.74425l-0.12262,0.11884h-0.82177c-0.01284,0 -0.03803,-0.01259 -0.0713,-0.03928c-0.03517,-0.02719 -0.0518,-0.05337 -0.0518,-0.07956c-0.01283,-0.0292 -0.02947,-0.09769 -0.04991,-0.21149c-0.02043,-0.11481 -0.02186,-0.19085 -0.01045,-0.23214zM11,0v16.14482h0.57557v-16.14482z"/>
        <path d="M18,0v16.14523h-0.12452v-16.14523zM17.60837,0v16.14523h-0.12167v-16.14523zM17.18596,0v16.14523h-0.5847v-16.14523zM16.02566,19.61628h0.82177l0.12595,-0.11884v-0.68233l-0.12595,-0.11934h-0.82177l-0.14306,0.11934v0.68233zM15.76093,17.00582h1.33555l0.20533,0.18028v0.76289h-0.327c0,-0.03927 -0.00998,-0.11531 -0.02234,-0.23013c-0.01283,-0.1138 -0.02756,-0.18279 -0.03992,-0.21149c0,-0.02619 -0.01854,-0.05237 -0.05181,-0.07956c-0.03517,-0.02669 -0.05846,-0.04029 -0.07129,-0.04029h-0.76188l-0.14259,0.12035v0.86563l0.14306,-0.06093h1.00713l0.26711,0.26084v1.18539l-0.26711,0.2412h-1.27424l-0.24762,-0.2412v-2.51177zM15.9653,0v16.14523h-0.57557v-16.14523zM15.12405,0v16.14523h-0.12405v-16.14523z"/>
    </symbol>
    <symbol id="magazine" viewBox="0 0 18 20">
        <path d="M16.70429,18.75016h-5.32572c1.02664,-0.37495 1.92496,-0.8124 2.56661,-1.43732c0.12833,-0.12498 0.1925,-0.24997 0.1925,-0.43744v-13.12334h2.5666zM11.26747,8.74132c0.34247,-0.09395 0.54293,-0.44409 0.44774,-0.78209c-0.09519,-0.33799 -0.45,-0.53582 -0.79247,-0.44187c-1.28527,0.35258 -3.66694,0.67643 -7.11881,0.96313c-0.35421,0.02941 -0.61717,0.33665 -0.58737,0.68621c0.02981,0.34956 0.34112,0.6091 0.69532,0.57968c3.52781,-0.293 5.97093,-0.62521 7.35559,-1.00506zM11.26747,13.74069c0.34247,-0.09395 0.54293,-0.44409 0.44774,-0.78209c-0.09519,-0.33799 -0.45,-0.53582 -0.79247,-0.44187c-1.28527,0.35258 -3.66694,0.67643 -7.11881,0.96313c-0.35421,0.02941 -0.61717,0.33665 -0.58737,0.68621c0.02981,0.34956 0.34112,0.6091 0.69532,0.57968c3.52781,-0.293 5.97093,-0.62521 7.35559,-1.00506zM1.28571,18.75015v-14.9981c2.05714,0 8.29286,-0.06249 11.57143,-1.87476v14.74813c-1.92857,1.6248 -6.94286,2.06224 -10.22143,2.12473c-0.25715,0 -1.15714,0 -1.35,0zM17.35714,2.50222h-3.21428v-1.87477c0,-0.24997 -0.12857,-0.49993 -0.38572,-0.56243c-0.25714,-0.12498 -0.51428,-0.06249 -0.70714,0.12499c-2.25,2.18722 -9.70714,2.3747 -12.40714,2.31221c-0.12857,0 -0.32143,0.06249 -0.45,0.18747c-0.12857,0.12499 -0.19286,0.24997 -0.19286,0.43745v16.24794c0,0.31246 0.25714,0.62492 0.64286,0.62492c0.64285,0 1.35,0 1.99285,0h14.72143c0.38572,0 0.64286,-0.24997 0.64286,-0.62492v-16.24794c0,-0.37496 -0.25714,-0.62492 -0.64286,-0.62492z"/>
    </symbol>
    <symbol id="package_up" viewBox="0 0 18 22">
        <path d="M1.83489,20.71114v-12.11629h4.42356v3.00976h5.4931v-3.00976h4.42356v12.11629zM7.5902,7.29325h2.8195v3.03251h-2.8195zM6.23446,4.72619l2.77053,-2.84341l2.77053,2.84341h-1.35825v2.56341h-2.8246v-2.56341zM11.74464,7.30598v-1.29093h3.10566l-5.85032,-6.01505l-5.85028,6.01505h3.10566v1.29093h-5.75536v14.69402h17v-14.69402z"/>
        <path d="M3.5,18v0h3v0v1v0h-3v0z"/>
        <path d="M3.5,16v0h3v0v1v0h-3v0z"/>
    </symbol>
    <symbol id="hat" viewBox="0 0 25 20">
        <path d="M22.35037,14.98267c-0.38672,0 -0.70134,-0.30764 -0.70134,-0.68577c0,-0.37814 0.31462,-0.68578 0.70134,-0.68578c0.38672,0 0.70134,0.30764 0.70134,0.68578c0,0.37813 -0.31462,0.68577 -0.70134,0.68577zM12.48514,7.90467l-8.2143,-3.21368l8.2143,-3.21369l8.23548,3.21369zM17.38421,10.18219c0,0.97114 -2.09738,2.05733 -4.90438,2.05733c-2.80701,0 -4.90439,-1.08619 -4.90439,-2.05733v-2.71382l4.90406,1.92358l4.90476,-1.9189v2.70914zM24.45444,14.2969c0,-0.89405 -0.58636,-1.65628 -1.40268,-1.9394v-7.09551l1.44824,-0.56601l-12.01556,-4.69598l-11.98444,4.69598l5.6727,2.22279v3.26347c0,1.00602 0.72131,1.91272 2.03104,2.55307c1.15523,0.56482 2.67556,0.87586 4.28103,0.87586c1.60546,0 3.12584,-0.31104 4.28103,-0.87586c1.30973,-0.64035 2.03103,-1.547 2.03103,-2.55307v-3.25733l2.85215,-1.11469v6.54733c-0.81633,0.28307 -1.40268,1.04534 -1.40268,1.93939c0,0.81788 0.49064,1.5257 1.19924,1.85704l-1.16324,3.41229l1.33073,0.43373l0.73734,-2.16289l0.73734,2.16289l1.33073,-0.43373l-1.16325,-3.41229c0.70852,-0.33143 1.19925,-1.03921 1.19925,-1.85708z"/>
    </symbol>
    <symbol id="arrow_left" viewBox="0 0 7 11">
        <path d="M4.97083834,0.242655563 L5.09548588,0.103843531 C5.06092562,0.142331091 5.02933193,0.182874985 5.00070482,0.225124934 C5.15699236,0.136999319 5.32911941,0.0956498477 5.5,0.100749156 C5.67088059,0.0956498477 5.84300764,0.136999319 5.99929518,0.225124934 C5.97066807,0.182874985 5.93907438,0.142331091 5.90451412,0.103843531 L6.02916166,0.242655563 C6.11346203,0.294118576 6.19269997,0.359570678 6.26408296,0.439065372 L10.5963045,5.26358483 C11.0025556,5.71600084 11.003752,6.44645054 10.5999344,6.89615647 L10.89732,6.56497703 C10.4968604,7.0109435 9.83715966,7.01287312 9.43133735,6.56093463 L5.5,2.1828544 L1.56866265,6.56093463 C1.16284034,7.01287312 0.503139641,7.0109435 0.102679954,6.56497703 L0.400065573,6.89615647 C-0.00375199897,6.44645054 -0.00255562959,5.71600084 0.403695485,5.26358483 L4.73591704,0.439065372 C4.80730003,0.359570678 4.88653797,0.294118576 4.97083834,0.242655563 Z" transform="scale(-1, 1) rotate(90)"/>
    </symbol>
    <symbol id="search" viewBox="0 0 15 18">
        <path d="M13.29728,6.64334c0,1.98846 -0.87442,3.77278 -2.26004,4.99007l3.85959,5.47632c0.1798,0.25512 0.11857,0.60755 -0.13677,0.7872c-0.25534,0.17964 -0.60808,0.11845 -0.78788,-0.13666l-3.84466,-5.45514c-1.01189,0.62188 -2.20319,0.98055 -3.47838,0.98055c-3.67262,0 -6.64914,-2.97358 -6.64914,-6.64234c0,-3.66892 2.97668,-6.64334 6.64914,-6.64334c3.67163,0 6.64814,2.97459 6.64814,6.64334zM12.16639,6.64335c0,-3.04478 -2.47025,-5.51344 -5.51725,-5.51344c-3.04786,0 -5.51825,2.46852 -5.51825,5.51344c0,3.0447 2.47017,5.51243 5.51825,5.51243c3.04722,0 5.51725,-2.46787 5.51725,-5.51243z"/>
    </symbol>
    <symbol id="internet" viewBox="0 0 22 22">
        <path d="M14.31582,20.02757c0.85598,-1.21138 1.50208,-2.63863 1.85051,-4.17863c0.80659,0.22344 1.48973,0.58506 2.12005,1.0175c0.04869,0.03369 0.14815,0.07219 0.25515,0.08525c-1.08643,1.375 -2.51718,2.43306 -4.16191,3.05387zM3.48632,17.00256c0.04733,-0.01856 0.08779,-0.03919 0.1262,-0.06394c0.63238,-0.45169 1.35872,-0.84494 2.13239,-1.144c0.43142,1.59844 1.0782,3.02637 1.95886,4.27694c-1.71743,-0.67444 -3.13445,-1.71738 -4.20442,-3.05182zM2.73626,6.0919c0.03025,0.04121 0.06393,0.07692 0.10106,0.10852c0.77756,0.55219 1.66856,1.02402 2.61869,1.3736c-0.0935,1.0467 -0.1925,2.22318 -0.1925,3.42302c0,1.19985 0.099,2.37635 0.28875,3.52192c-1.05875,0.25481 -1.96007,0.73419 -2.78094,1.32073c0.00825,0.00068 -0.01581,0.02678 -0.03781,0.05494c-0.85457,-1.39765 -1.35988,-3.08993 -1.35988,-4.89966c0,-1.81178 0.506,-3.50475 1.38463,-4.94704zM7.68625,1.97519c-0.858,1.21275 -1.50631,2.64138 -1.85556,4.18275c-0.84838,-0.23994 -1.5675,-0.62769 -2.2275,-1.09381c-0.01444,-0.00688 -0.06669,-0.03025 -0.12238,-0.04675c1.08281,-1.35919 2.50525,-2.40556 4.13806,-3.02294zM18.52125,5.00264c-0.05225,0.01646 -0.09763,0.03841 -0.14025,0.06448c-0.63044,0.44789 -1.35506,0.83885 -2.12644,1.13584c-0.43175,-1.59471 -1.08006,-3.01931 -1.9635,-4.26695c1.72219,0.67218 3.14256,1.71337 4.21506,3.04537zM10.99494,1.375c1.51607,0 3.10493,2.01369 3.87807,5.28688c-1.16383,0.31968 -2.5,0.50325 -3.87944,0.50325c-1.37944,0 -2.71561,-0.18357 -3.98588,-0.52801c0.88232,-3.25118 2.47117,-5.26212 3.98724,-5.26212zM11,13.46125c-0.00206,0 -0.00481,0 -0.00756,0c-1.47125,0 -2.89782,0.19387 -4.25425,0.55756c-0.02407,-0.92606 -0.10313,-1.96419 -0.10313,-3.02087c0,-1.05669 0.07906,-2.09482 0.23238,-3.10888c1.22993,0.45169 2.65856,0.64556 4.13256,0.64556c1.474,0 2.90262,-0.19387 4.26181,-0.55756c0.02406,0.92606 0.10381,1.9635 0.10381,3.02019c0,1.05669 -0.07975,2.09412 -0.23306,3.10819c-1.22512,-0.44963 -2.64894,-0.64213 -4.11675,-0.64213c-0.0055,0 -0.011,0 -0.0165,0zM10.99508,20.625c-1.51607,0 -3.10492,-2.013 -3.87807,-5.28688c1.16383,-0.31969 2.50001,-0.50325 3.87945,-0.50325c1.37943,0 2.71561,0.18356 3.98587,0.528c-0.88163,3.2505 -2.47117,5.26213 -3.98724,5.26213zM19.04997,15.71488c-0.74291,-0.51081 -1.5947,-0.95288 -2.50023,-1.28563c0.09372,-1.04843 0.19296,-2.2275 0.19296,-3.42856c0,-1.20106 -0.09924,-2.38012 -0.29013,-3.52756c1.0544,-0.25232 1.95236,-0.72806 2.77038,-1.309c-0.00345,-0.00413 0.02481,-0.03438 0.04962,-0.06669c0.8573,1.39906 1.36451,3.09306 1.36451,4.90531c0,1.82806 -0.51617,3.5365 -1.40999,4.98713c-0.0255,-0.13544 -0.09304,-0.21382 -0.17436,-0.27363zM11,0c-6.07544,0 -11,4.92456 -11,11c0,6.07544 4.92456,11 11,11c6.07544,0 11,-4.92456 11,-11c-0.00756,-6.072 -4.928,-10.99244 -10.99931,-11z"/>
    </symbol>
    <symbol id="user" viewBox="0 0 20 22">
        <path d="M15.76042,5.83211c0,2.05345 -1.04675,3.85881 -2.62892,4.89773c2.61561,0.65089 4.83756,2.12273 6.13056,4.24107c0.41753,0.68458 0.73794,1.67154 0.73794,2.50834c0,2.50345 -2.00196,4.52075 -4.4766,4.52075h-11.04766c-2.47394,0 -4.47574,-2.01745 -4.47574,-4.52075c0,-0.83704 0.32003,-1.82454 0.73728,-2.50865c1.29549,-2.12137 3.52186,-3.59425 6.1424,-4.24362c-1.57992,-1.03935 -2.62479,-2.84323 -2.62479,-4.89487c0,-3.22107 2.57541,-5.83211 5.75319,-5.83211c3.17708,0 5.75234,2.61119 5.75234,5.83211zM9.995,11.64714c-3.50411,0 -6.63934,1.4925 -8.1724,4.00432c-0.30003,0.49221 -0.546,1.25161 -0.546,1.82779c0,1.78689 1.42777,3.22664 3.19732,3.22664h11.04133c1.77028,0 3.19817,-1.43964 3.19817,-3.22664c0,-0.57565 -0.24628,-1.33469 -0.54674,-1.8276c-1.53227,-2.51177 -4.66801,-4.00451 -8.17167,-4.00451zM14.48383,5.83211c0,-2.50626 -2.00378,-4.538 -4.47574,-4.538c-2.4727,0 -4.4766,2.03162 -4.4766,4.538c0,2.50619 2.0037,4.53714 4.4766,4.53714c2.47215,0 4.47574,-2.03107 4.47574,-4.53714z"/>
    </symbol>
    <symbol id="notification" viewBox="0 0 20 22">
        <path d="M1.81422,18.09569l1.20053,-1.92594c0.84216,-1.35044 1.28702,-2.89665 1.28702,-4.47216v-2.29375c0,-3.0275 2.5579,-5.48957 5.70324,-5.48957c3.14533,0 5.70324,2.46208 5.70324,5.48957v2.29375c0,1.57551 0.44485,3.12172 1.28608,4.47216l1.20147,1.92594zM19.43218,18.30786l-1.63205,-2.61668c-0.75237,-1.20776 -1.15042,-2.59016 -1.15042,-3.99908v-2.29213c0,-3.5282 -2.98382,-6.39997 -6.6497,-6.39997c-3.66588,0 -6.6497,2.87177 -6.6497,6.39997v2.29213c0,1.40892 -0.39805,2.79132 -1.15042,3.99908l-1.63204,2.61668c-0.08835,0.14078 -0.09026,0.31727 -0.00664,0.4599c0.08456,0.14353 0.24318,0.23224 0.41417,0.23224h18.04922c0.17099,0 0.32965,-0.08867 0.41417,-0.23224c0.08362,-0.14267 0.08175,-0.31912 -0.00659,-0.4599z"/>
        <path d="M10,0c-1.37876,0 -2.5,0.79733 -2.5,1.77779v1.77779c0,0.2453 0.28002,0.44442 0.62501,0.44442c0.345,0 0.62502,-0.19912 0.62502,-0.44446v-1.77775c0,-0.49066 0.55998,-0.88887 1.24997,-0.88887c0.68999,0 1.24997,0.39821 1.24997,0.88887v1.77779c0,0.2453 0.28002,0.44442 0.62502,0.44442c0.34499,0 0.62501,-0.19912 0.62501,-0.44446v-1.77775c0,-0.98046 -1.12124,-1.77779 -2.5,-1.77779z"/>
        <path d="M12.16212,18.24643c-0.14094,-0.23802 -0.44583,-0.31603 -0.6847,-0.17904c-0.23892,0.14004 -0.31886,0.44707 -0.17895,0.68509c0.12993,0.22105 0.20092,0.48607 0.20092,0.74711c0,0.82714 -0.67271,1.50023 -1.49939,1.50023c-0.82668,0 -1.49939,-0.67309 -1.49939,-1.50023c0,-0.26104 0.07099,-0.52606 0.20092,-0.74711c0.13893,-0.23905 0.05899,-0.5451 -0.17895,-0.68509c-0.24088,-0.13704 -0.54479,-0.05902 -0.6847,0.17904c-0.22093,0.37806 -0.33788,0.81111 -0.33788,1.25321c0.00005,1.37918 1.12056,2.50036 2.49902,2.50036c1.37845,0 2.49897,-1.12118 2.50098,-2.50036c0,-0.4421 -0.11695,-0.87515 -0.33788,-1.25321z"/>
    </symbol>
    <symbol id="cart" viewBox="0 0 25 22">
        <path d="M23.29659,4.4l-2.51122,8.8h-12.14125l-1.95313,-8.8zM8.05589,14.66686c0.00095,0 0.00191,-0.00019 0.00286,-0.00019h13.27918c0.32692,0 0.61435,-0.21714 0.70419,-0.53186l2.92969,-10.26667c0.06314,-0.22133 0.01889,-0.45929 -0.1194,-0.643c-0.13847,-0.18372 -0.35496,-0.29181 -0.58479,-0.29181h-17.90202l-0.52357,-2.35908c-0.07458,-0.33553 -0.37174,-0.57425 -0.71507,-0.57425h-4.39454c-0.40455,0 -0.73242,0.32828 -0.73242,0.73333c0,0.40506 0.32787,0.73334 0.73242,0.73334h3.80708c0.09269,0.41803 2.50549,11.28932 2.64435,11.91475c-0.77839,0.33879 -1.32447,1.11585 -1.32447,2.01858c0,1.21306 0.98572,2.2 2.19727,2.2h13.28128c0.40455,0 0.73242,-0.32828 0.73242,-0.73333c0,-0.40506 -0.32787,-0.73334 -0.73242,-0.73334h-13.28128c-0.40378,0 -0.73242,-0.32904 -0.73242,-0.73333c0,-0.40372 0.32749,-0.73219 0.73052,-0.73314z"/>
        <path d="M8.69392,19.06669c0.39949,0 0.72464,0.32681 0.72464,0.72834c0,0.40154 -0.32515,0.72835 -0.72464,0.72835c-0.3995,0 -0.72464,-0.32681 -0.72464,-0.72835c0,-0.40153 0.32514,-0.72834 0.72464,-0.72834zM6.52,19.8c0,1.21306 0.97524,2.2 2.17391,2.2c1.19867,0 2.17392,-0.98694 2.17392,-2.2c0,-1.21306 -0.97525,-2.2 -2.17392,-2.2c-1.19867,0 -2.17391,0.98694 -2.17391,2.2z"/>
        <path d="M18.47392,19.06669c0.39949,0 0.72464,0.32681 0.72464,0.72834c0,0.40154 -0.32515,0.72835 -0.72464,0.72835c-0.3995,0 -0.72464,-0.32681 -0.72464,-0.72835c0,-0.40153 0.32514,-0.72834 0.72464,-0.72834zM16.3,19.8c0,1.21306 0.97524,2.2 2.17391,2.2c1.19867,0 2.17392,-0.98694 2.17392,-2.2c0,-1.21306 -0.97525,-2.2 -2.17392,-2.2c-1.19867,0 -2.17391,0.98694 -2.17391,2.2z"/>
    </symbol>
    <symbol id="battery" viewBox="0 0 25 21">
        <path d="M24.184 20.208H.806V7.132h23.378zM.806 3.962h23.378V6.34H.806zm.807-1.188h4.839v.396h-4.84zm.806-1.585a.4.4 0 0 1 .404-.397h2.419a.4.4 0 0 1 .403.397v.792H2.42zm16.13 1.585h4.838v.396h-4.839zm.806-1.585a.4.4 0 0 1 .403-.397h2.42a.4.4 0 0 1 .403.397v.792h-3.226zm5.242 1.98h-.403v-.792a.4.4 0 0 0-.404-.396h-.403V1.19A1.2 1.2 0 0 0 22.177 0h-2.419a1.2 1.2 0 0 0-1.21 1.189v.792h-.403a.4.4 0 0 0-.403.396v.793H7.258v-.793a.4.4 0 0 0-.403-.396h-.403V1.19A1.2 1.2 0 0 0 5.242 0h-2.42a1.2 1.2 0 0 0-1.21 1.189v.792H1.21a.4.4 0 0 0-.404.396v.793H.403A.4.4 0 0 0 0 3.566v17.038A.4.4 0 0 0 .403 21h24.194a.4.4 0 0 0 .403-.396V3.566a.4.4 0 0 0-.403-.396z"/>
        <path d="M12.375 9.65v3.85c0 .217.168.393.375.393h1.16l-2.285 3.457V13.5a.384.384 0 0 0-.375-.393h-1.16zm-1.5 4.243v4.714a.39.39 0 0 0 .263.375.368.368 0 0 0 .42-.151l3.375-5.108a.408.408 0 0 0 .024-.405.373.373 0 0 0-.332-.21h-1.5V8.392a.391.391 0 0 0-.263-.375.366.366 0 0 0-.42.151l-3.375 5.107a.408.408 0 0 0-.024.406c.065.13.192.21.332.21zM2.833 13.087h.836a.418.418 0 0 0 .418-.418v-.836h.836v.836c0 .231.187.418.418.418h.836v.836H5.34a.418.418 0 0 0-.418.418v.836h-.836v-.836a.418.418 0 0 0-.418-.418h-.836zm-.416 1.663h.833v.833c0 .23.187.417.417.417h1.666c.23 0 .417-.187.417-.417v-.833h.833c.23 0 .417-.187.417-.417v-1.666a.417.417 0 0 0-.417-.417H5.75v-.833A.417.417 0 0 0 5.333 11H3.667a.417.417 0 0 0-.417.417v.833h-.833a.417.417 0 0 0-.417.417v1.666c0 .23.187.417.417.417zM18.833 12.667h3.344v.656h-3.344zM18.417 14h4.166c.23 0 .417-.15.417-.333v-1.334c0-.184-.187-.333-.417-.333h-4.166c-.23 0-.417.15-.417.333v1.334c0 .184.187.333.417.333z"/>
    </symbol>
    <symbol id="bowling" viewBox="0 0 22 22">
        <path d="M14.787 6.735a9.79 9.79 0 0 0 .093-1.313c0-.032-.004-.064-.004-.096h2.249c0 .032-.004.064-.004.096 0 .439.03.877.089 1.313zM16.472.79c.49.157.859.544.975 1.023a1.4 1.4 0 0 1 .006.601.343.343 0 0 0 .007.167l-.206 1.173a9.35 9.35 0 0 0-.109.85h-2.301a9.274 9.274 0 0 0-.108-.848l-.207-1.174a.335.335 0 0 0 .008-.163 1.516 1.516 0 0 1-.03-.288c0-.42.196-.82.537-1.089A1.55 1.55 0 0 1 16.472.79zM15.62.03c-1.177.193-1.988 1.229-1.843 2.355a.333.333 0 0 0-.012.162L14 3.88a9.128 9.128 0 0 1-.126 3.706 8.645 8.645 0 0 1-.374 1.159l.697.254c.165-.408.3-.827.404-1.253.023-.097.041-.195.062-.293h2.67c.11.527.268 1.044.47 1.546l.697-.255a8.809 8.809 0 0 1-.632-3.323c0-.516.044-1.031.132-1.54l.236-1.334a.336.336 0 0 0-.011-.161c.03-.242.017-.486-.038-.724-.26-1.107-1.39-1.824-2.568-1.632zM2.226 10.287c.355-.72.622-1.484.794-2.275.022-.1.038-.202.057-.303H5.56a10.1 10.1 0 0 0 .85 2.577c.118.238.222.482.313.733a13.735 13.735 0 0 0-.67 4.385 13.707 13.707 0 0 0 .67 4.376 6.494 6.494 0 0 1-.753 1.487H2.668c-.91-1.288-1.47-3.511-1.47-5.863a12.02 12.02 0 0 1 1.028-5.117zm1.211-9.202A1.334 1.334 0 0 1 4.77.824c.458.162.802.564.91 1.06.043.204.045.416.006.622a.393.393 0 0 0 .007.173L5.5 3.894c-.046.289-.079.584-.101.881H3.25a10.616 10.616 0 0 0-.101-.879l-.193-1.215a.385.385 0 0 0 .008-.17 1.745 1.745 0 0 1-.03-.298c0-.436.185-.85.503-1.128zm2.005 5.892H3.196c.056-.454.085-.91.086-1.367 0-.033-.004-.066-.004-.1h2.083c0 .034-.004.067-.004.1 0 .457.03.913.085 1.367zm3.552-5.892a1.334 1.334 0 0 1 1.333-.262c.458.163.802.564.91 1.06.043.205.045.417.006.623a.393.393 0 0 0 .007.173l-.193 1.215c-.046.289-.079.584-.1.881h-2.15a10.616 10.616 0 0 0-.1-.879l-.194-1.215a.385.385 0 0 0 .008-.17 1.737 1.737 0 0 1-.029-.298c0-.436.184-.85.502-1.128zm-.24 5.892c.056-.454.085-.91.086-1.367 0-.033-.003-.066-.003-.1h2.092c0 .034-.004.067-.004.1.001.457.03.913.086 1.367zM2.5 22h3.648a.34.34 0 0 0 .27-.136 6.22 6.22 0 0 0 .685-1.16c.188.412.418.801.686 1.16a.34.34 0 0 0 .27.136h3.647v-.733H8.23a6.6 6.6 0 0 1-.8-1.606 12.792 12.792 0 0 1-.673-4.257c-.018-1.453.21-2.899.674-4.268.101-.29.22-.575.357-.85a9.878 9.878 0 0 0 .794-2.274c.022-.1.039-.202.058-.303h2.487c.153.817.405 1.61.749 2.36l.625-.322a9.893 9.893 0 0 1-.88-4.137c0-.533.04-1.066.123-1.592l.22-1.378a.385.385 0 0 0-.01-.167 2.4 2.4 0 0 0-.035-.747C11.678.58 10.625-.167 9.527.032c-1.098.2-1.853 1.275-1.714 2.44a.38.38 0 0 0-.01.168l.218 1.378a10.433 10.433 0 0 1-.117 3.827 9.156 9.156 0 0 1-.734 2.101c-.025.05-.044.098-.068.147-.023-.05-.042-.098-.067-.147A9.816 9.816 0 0 1 6.06 5.61c0-.533.041-1.066.124-1.592l.219-1.378a.385.385 0 0 0-.01-.167 2.37 2.37 0 0 0-.035-.747C6.12.58 5.067-.167 3.97.032c-1.098.2-1.852 1.275-1.714 2.44a.38.38 0 0 0-.01.168l.219 1.378a10.433 10.433 0 0 1-.117 3.827 9.152 9.152 0 0 1-.734 2.1 12.599 12.599 0 0 0-1.11 5.46c0 2.635.646 5.05 1.728 6.459A.341.341 0 0 0 2.5 22z"/>
        <path d="M2.13 15.5a14.016 14.016 0 0 1 .37-3.287L1.896 12a14.927 14.927 0 0 0-.396 3.5 14.651 14.651 0 0 0 .395 3.5l.604-.215a13.704 13.704 0 0 1-.369-3.286zM7.896 12a14.927 14.927 0 0 0-.396 3.5 14.6 14.6 0 0 0 .395 3.5l.604-.215a13.704 13.704 0 0 1-.369-3.286 14.016 14.016 0 0 1 .37-3.286zM15.504 9.765c2.903.043 5.23 2.618 5.21 5.766-.02 3.148-2.38 5.689-5.283 5.689-2.903 0-5.262-2.541-5.282-5.689-.02-3.148 2.306-5.723 5.21-5.766zm-4.359 1.263c-1.648 1.885-2.104 4.652-1.158 7.037.946 2.386 3.112 3.933 5.509 3.935.054 0 .11 0 .164-.002 2.715-.079 5.042-2.123 5.674-4.984.633-2.861-.587-5.826-2.974-7.228-2.388-1.402-5.346-.893-7.215 1.242z"/>
        <path d="M11.247 14.983c-.029-.954.427-1.872 1.253-2.527L11.988 12c-.981.777-1.522 1.868-1.486 3zM14.495 13.667a.328.328 0 1 1 0 .656.328.328 0 0 1 0-.656zM13.5 14a1 1 0 1 0 2 0 1 1 0 0 0-2 0zM17.495 13.667a.328.328 0 1 1 0 .656.328.328 0 0 1 0-.656zM17.5 15a1 1 0 1 0 0-2 1 1 0 0 0 0 2zM16.495 18.667a.328.328 0 1 1 0 .656.328.328 0 0 1 0-.656zM15.5 19a1 1 0 1 0 2 0 1 1 0 0 0-2 0z"/>
    </symbol>
    <symbol id="box" viewBox="0 0 20 20">
        <path d="M10.302 19.24V9.244l2.055-.978a.291.291 0 0 0 .138-.39.299.299 0 0 0-.397-.137l-2.093.996-.824-.392a.299.299 0 0 0-.396.137.291.291 0 0 0 .138.39l.785.374v9.996l-8.614-4.1V5.143l6.56 3.122a.299.299 0 0 0 .396-.136.291.291 0 0 0-.138-.391L1.48 4.677l2.951-1.405 8.924 4.248.005.005v3.516c0 .1.052.195.139.248a.3.3 0 0 0 .287.016l.16-.077v.346l1.618-.775v-.34l.444-.212a.293.293 0 0 0 .168-.264V6.448l2.74-1.304v9.995zm5.262-11.51v2.728l-1.618.77V8.506zM6.866 2.123l8.499 4.061-1.74.832-8.497-4.06zM10 .618l8.52 4.059-2.47 1.176a.294.294 0 0 0-.05-.031l-8.462-4.03zm9.332 3.795L10.13.029a.3.3 0 0 0-.258 0L.668 4.413a.293.293 0 0 0-.168.264v10.646c0 .113.065.215.168.264l9.203 4.384a.3.3 0 0 0 .258 0l9.203-4.384a.293.293 0 0 0 .168-.264V4.677a.293.293 0 0 0-.168-.264z"/>
    </symbol>
    <symbol id="car" viewBox="0 0 28 11">
        <path d="M15.5 4h-1v1h1z"/>
        <path d="M1.4 4.125h1.35v.916H1.4v1.88a.82.82 0 0 0 .51.765l1.29.528c0-.042.005-.084.008-.126.003-.042.004-.092.008-.138.005-.046.014-.091.02-.137.008-.046.014-.092.022-.133l.034-.132c.012-.044.021-.088.035-.13.013-.043.03-.084.044-.125l.046-.126c.015-.042.036-.08.055-.118.02-.04.038-.082.059-.121.021-.04.045-.073.065-.11a1.428 1.428 0 0 1 .07-.116c.026-.037.05-.067.075-.1.025-.035.053-.075.081-.11.03-.035.056-.063.084-.092.028-.028.06-.067.09-.1.031-.032.062-.057.093-.085.03-.029.064-.062.098-.092s.07-.053.103-.079c.035-.026.069-.054.105-.078.036-.024.076-.046.115-.072a1.306 1.306 0 0 1 .107-.065c.036-.02.081-.04.123-.06.041-.02.074-.039.112-.055.038-.017.09-.034.135-.05.045-.017.074-.03.112-.042.052-.016.104-.028.157-.041.034-.008.067-.02.101-.027.056-.011.112-.017.169-.026.033-.004.065-.012.098-.015.09-.01.18-.014.275-.014 1.49.001 2.698 1.232 2.7 2.75h3.6V3.666H7.25a.443.443 0 0 1-.318-.134L5.765 2.343c-.49.238-.966.503-1.427.795a.446.446 0 0 1-.174.065L1.4 3.605zM4.136 8.61a1.801 1.801 0 0 0 2.124 1.425c.974-.202 1.603-1.168 1.404-2.157A1.801 1.801 0 0 0 5.54 6.453 1.821 1.821 0 0 0 4.1 8.244c0 .123.012.246.036.366zM12.2.917h-.255A13.986 13.986 0 0 0 6.651 1.95l.785.8H12.2zm.9 1.833h6.335l-.087-.048A14.19 14.19 0 0 0 13.1.937zm0 5.5h7.2c0-1.52 1.21-2.75 2.7-2.75s2.7 1.23 2.7 2.75h.9V5.985c0-.42-.221-.807-.58-1.016a9.593 9.593 0 0 0-4.82-1.303h-8.1zm8.137.36a1.8 1.8 0 0 0 2.123 1.425c.974-.202 1.603-1.168 1.404-2.157-.2-.99-1.15-1.628-2.124-1.425a1.821 1.821 0 0 0-1.403 2.157zM.887 2.754l3.056-.444a15.33 15.33 0 0 1 1.732-.935A14.922 14.922 0 0 1 11.945 0h.53a15.078 15.078 0 0 1 7.305 1.897l1.543.857c1.806.02 3.577.51 5.146 1.42A2.1 2.1 0 0 1 27.5 5.987v2.721a.454.454 0 0 1-.45.459h-1.511c-.492 1.428-2.026 2.18-3.429 1.679a2.715 2.715 0 0 1-1.648-1.68H8.439c-.492 1.429-2.027 2.18-3.429 1.68a2.716 2.716 0 0 1-1.648-1.68H3.2a.445.445 0 0 1-.167-.032l-1.458-.595A1.733 1.733 0 0 1 .5 6.92V3.208a.456.456 0 0 1 .386-.454z"/>
    </symbol>
    <symbol id="city_hall" viewBox="0 0 22 23">
        <path d="M20.977 21.515H1.033v-1.452h19.944zM2.221 17.576h17.558v1.492H2.221zm2.995-8.754v7.76H3.615v-7.76zm2.634 0v7.76H6.249v-7.76zm2.634 0v7.76H8.883v-7.76zm2.633 0v7.76h-1.6v-7.76zm2.634 0v7.76h-1.6v-7.76zm2.634 0v7.76h-1.601v-7.76zm-7.39-7.173l7.999 6.178H2.996zm10.481 17.42h-.664v-1.973a.542.542 0 0 0-.539-.515h-.855V8.822h1.056a.515.515 0 0 0 .516-.513.498.498 0 0 0-.193-.384L11.323.61a.532.532 0 0 0-.646-.001L1.203 7.922a.495.495 0 0 0-.075.714.534.534 0 0 0 .398.186h1.056v7.76h-.855a.542.542 0 0 0-.54.514v1.972H.525a.508.508 0 0 0-.524.49v2.462c0 .275.239.48.524.48h20.952c.285 0 .524-.205.524-.48v-2.462a.508.508 0 0 0-.524-.49z"/>
    </symbol>
    <symbol id="coffee" viewBox="0 0 16 22">
        <path d="M.743 21.27V.73h1.041v1.011c0 .202.166.366.372.366h9.849l-1.227 5.645H2.156a.369.369 0 0 0-.372.365v11.644c0 .202.166.365.372.365h13.111v1.143zM12.156 1.375h-9.63V.73h9.77zm-3.08 8.182H8.52V8.482h.555zm-3.693 1.364l-.744-.633h7.33v.633zm-.02 6.84a.947.947 0 0 1-.954-.938V12.59c0-.517.428-.938.954-.938h6.86c.525 0 .954.421.954.938v4.234a.947.947 0 0 1-.955.938zm-1.332.73h9.523v.914H4.03zM2.526 8.483h5.251V9.56H3.641a.371.371 0 0 0-.348.238.362.362 0 0 0 .105.404l1.115.949c-.506.29-.847.828-.847 1.444v4.238c0 .348.108.671.294.939h-.3a.369.369 0 0 0-.372.365v1.27h-.762zm11.77 10.914v-1.268a.368.368 0 0 0-.37-.366h-.301a1.64 1.64 0 0 0 .294-.938V12.59a1.64 1.64 0 0 0-.288-.93c.58.067 1.032.553 1.032 1.14v3.65c0 .201.166.365.371.365a.368.368 0 0 0 .372-.366v-3.648c0-1.036-.858-1.88-1.912-1.88h-.782v-.998a.368.368 0 0 0-.372-.365H9.808V8.483h1.263a.37.37 0 0 0 .364-.29l1.684-7.75a.36.36 0 0 0-.075-.307.374.374 0 0 0-.289-.135H.372A.368.368 0 0 0 0 .365v21.27c0 .201.166.365.372.365h15.256a.368.368 0 0 0 .372-.365V19.76a.368.368 0 0 0-.372-.365z"/>
    </symbol>
    <symbol id="cream" viewBox="0 0 24 23">
        <path d="M.5 0l1.838 21h6.1v-.75H3.022L1.314.75h10.372l-.824 9.419.743.065L12.5 0z"/>
        <path d="M2.5 15h6v1h-6zM10.492 2.266c-.043-.18-.245-.297-.451-.259a19.443 19.443 0 0 1-7.081 0c-.206-.038-.408.077-.452.258-.043.18.088.357.294.395 1.22.227 2.452.34 3.687.34 1.235 0 2.474-.113 3.708-.34.206-.037.338-.214.295-.394zM9.232 22.2V11.8h13.536v10.4zM8.5 11v12h15V11z"/>
        <path d="M16 20.222a2.725 2.725 0 0 1-2.722-2.722A2.725 2.725 0 0 1 16 14.778a2.725 2.725 0 0 1 2.722 2.722A2.725 2.725 0 0 1 16 20.222zM16 14c-1.93 0-3.5 1.57-3.5 3.5S14.07 21 16 21s3.5-1.57 3.5-3.5S17.93 14 16 14zM20.25 9.34c-.467-.347-.907-.675-.98-1.08a.326.326 0 0 0-.272-.254.36.36 0 0 0-.36.141c-.592.87-2.197.828-3.749.788-1.505-.039-3.06-.079-3.865.724-.459.459-.614 1.118-.475 2.015.026.168.2.285.388.262.188-.024.32-.179.293-.347-.11-.707-.01-1.204.306-1.52.591-.59 1.985-.554 3.333-.519 1.497.039 3.037.078 3.952-.648.24.352.619.635.99.911.812.606 1.253.986.846 1.746-.082.154-.01.337.162.41a.367.367 0 0 0 .148.031.35.35 0 0 0 .31-.175C21.935 10.595 21 9.9 20.25 9.34z"/>
    </symbol>
    <symbol id="truck" viewBox="0 0 25 16">
        <path d="M21.571 5.416h-2.743V7.84h4.485zm-1.117-1.55h-3.67v8.852h.916c.16-1.359 1.337-2.384 2.735-2.384 1.397 0 2.573 1.025 2.734 2.384h.919V8.923l-.138-.193h-5.598a.453.453 0 0 1-.458-.449V4.958a.454.454 0 0 1 .458-.45h2.57zM.926.899v8.048h12.44a.454.454 0 0 1 .458.449.454.454 0 0 1-.458.449H.926v2.874h2.442c.16-1.359 1.335-2.384 2.73-2.384 1.396 0 2.57 1.025 2.732 2.384h7.07V2.94h-3.308a.454.454 0 0 1-.459-.449.454.454 0 0 1 .459-.449H15.9V.898zm5.178 14.065c1.01 0 1.828-.804 1.828-1.796s-.819-1.796-1.828-1.796c-1.01 0-1.828.804-1.828 1.796 0 .996.814 1.806 1.828 1.819zm14.35 0c1.01 0 1.829-.804 1.829-1.796s-.819-1.796-1.828-1.796c-1.01 0-1.828.804-1.828 1.796 0 .996.814 1.806 1.828 1.819zm2.717-1.347c-.16 1.358-1.335 2.383-2.73 2.383-1.396 0-2.57-1.025-2.731-2.384H8.82C8.66 14.975 7.485 16 6.09 16c-1.396 0-2.57-1.025-2.731-2.384h-2.9A.454.454 0 0 1 0 13.167V.449A.454.454 0 0 1 .458 0h15.9a.454.454 0 0 1 .458.45v2.518h3.881c.15 0 .29.073.376.194l2.506 3.516.981 1.347.358.498A.442.442 0 0 1 25 8.78v4.375a.444.444 0 0 1-.128.324.462.462 0 0 1-.326.138z"/>
    </symbol>
    <symbol id="diesel" viewBox="0 0 16 22">
        <path d="M13.446 21.29H2.544c-1.002 0-1.817-.796-1.817-1.774V5.323c0-.979.815-1.775 1.817-1.775h4.21l8.509 8.309v7.66c0 .977-.815 1.773-1.817 1.773zM2.182 2.13H5.09v.71H2.545c-.123 0-.244.011-.363.028zM1.455.709h4.373v.71H1.455zM13.09 8.715L9.969 5.677h2.758c.2 0 .364.16.364.354zm2.172-3.391v5.53l-1.453-1.42v-3.4c0-.588-.489-1.065-1.09-1.065H9.24l-1.453-1.42h5.66c1.001 0 1.816.796 1.816 1.775zM13.454 2.84H5.818v-.71h.364a.36.36 0 0 0 .363-.355V.354A.36.36 0 0 0 6.182 0H1.09a.36.36 0 0 0-.364.355v1.42a.36.36 0 0 0 .364.354h.364v.953C.596 3.482 0 4.334 0 5.322v14.194C0 20.886 1.142 22 2.545 22h10.91C14.858 22 16 20.885 16 19.516V5.323c0-1.37-1.142-2.484-2.545-2.484z"/>
        <path d="M7.505 12.111l1.363 2.542c.28.521.428 1.111.428 1.706v.091c0 .52-.22 1.016-.602 1.362-.387.35-.888.509-1.408.447-.881-.106-1.572-.94-1.572-1.9 0-.595.148-1.185.428-1.707zM5 16.36c0 1.344.945 2.473 2.198 2.623a2.479 2.479 0 0 0 1.963-.626A2.575 2.575 0 0 0 10 16.451v-.091a4.37 4.37 0 0 0-.514-2.055l-1.672-3.128c-.125-.235-.503-.235-.628 0l-1.672 3.127A4.372 4.372 0 0 0 5 16.36z"/>
        <path d="M9 16H8a1 1 0 0 1-1 1v1c1.103 0 2-.897 2-2z"/>
    </symbol>
    <symbol id="flask" viewBox="0 0 14 20">
        <path d="M12.09 19.219H1.9a1.11 1.11 0 0 1-.94-.512 1.155 1.155 0 0 1-.182-.811h.631a.387.387 0 0 0 .383-.391.387.387 0 0 0-.383-.39h-.352l.44-1.094h.647a.387.387 0 0 0 .383-.391.387.387 0 0 0-.383-.39h-.332l.44-1.094h.664a.387.387 0 0 0 .383-.391.387.387 0 0 0-.383-.39h-.35l.44-1.094h.683a.387.387 0 0 0 .383-.391.387.387 0 0 0-.383-.39H3.32l.44-1.094h6.468l2.909 7.228c.146.363.107.757-.107 1.083a1.111 1.111 0 0 1-.942.512zM5.002 7.316c.269-.667.405-1.37.405-2.09V2.5a1.89 1.89 0 0 0-.54-1.33.56.56 0 0 1-.161-.39h4.586a.56.56 0 0 1-.16.39c-.349.356-.54.828-.54 1.33v2.725c0 .72.135 1.423.404 2.09l.925 2.298H4.078zm8.854 10.012L9.707 7.019a4.781 4.781 0 0 1-.348-1.793V2.5c0-.294.112-.57.316-.777.248-.253.385-.59.385-.947V.39A.387.387 0 0 0 9.677 0H4.323a.387.387 0 0 0-.383.39v.387c0 .357.137.694.385.947a1.1 1.1 0 0 1 .316.777v2.725c0 .618-.117 1.221-.347 1.793l-1.14 2.833-.002.003-3.01 7.473a1.965 1.965 0 0 0 .18 1.814c.354.537.945.858 1.58.858h10.196a1.89 1.89 0 0 0 1.58-.858 1.97 1.97 0 0 0 .18-1.814z"/>
    </symbol>
    <symbol id="fruits" viewBox="0 0 27 22">
        <path d="M21.887 19.51H20.21v.83h1.677v.83H5.113v-.83H19.37v-.83H5.113c-1.94 0-3.541-1.456-3.75-3.321h2.97a1.672 1.672 0 0 0 3.055.43c.293.245.666.4 1.08.4.618 0 1.153-.336 1.444-.83h15.726c-.21 1.865-1.811 3.32-3.75 3.32zM1.34 12.037c0-.458.376-.83.838-.83.463 0 .84.372.84.83 0 .458-.377.83-.84.83a.835.835 0 0 1-.838-.83zm.846-4.981c.035.948.19 1.88.464 2.784a4.541 4.541 0 0 1-1.292-2.784zm3.347 4.15c0 .458-.376.83-.838.83a.835.835 0 0 1-.84-.83c0-.457.377-.83.84-.83.462 0 .838.373.838.83zM7.21 9.963c.462 0 .838.373.838.83 0 .458-.376.83-.838.83a.835.835 0 0 1-.839-.83c0-.457.376-.83.839-.83zm2.935 4.566a.833.833 0 0 1 1.668 0 .833.833 0 0 1-1.668 0zm-1.677 0c.462 0 .838.373.838.83 0 .458-.376.83-.838.83a.835.835 0 0 1-.839-.83c0-.457.376-.83.839-.83zm-2.516.415c.462 0 .838.373.838.83 0 .458-.376.83-.838.83a.835.835 0 0 1-.84-.83c0-.457.377-.83.84-.83zm-1.268-.83a.833.833 0 0 1-1.668 0 .833.833 0 0 1 1.668 0zm4.203-.415a.835.835 0 0 1-.839-.83c0-.458.377-.83.84-.83.462 0 .838.372.838.83 0 .458-.376.83-.839.83zm-1.677-.415c0 .458-.376.83-.839.83a.835.835 0 0 1-.839-.83c0-.458.376-.83.839-.83.463 0 .839.372.839.83zm5.87-5.72v.618a1.395 1.395 0 0 1-.464-.482l-.749.374c.022.043.548 1.06 1.633 1.06s1.611-1.017 1.633-1.06l-.749-.374a1.39 1.39 0 0 1-.464.481v-.617c0-.299.014-.596.04-.893 1.518.135 2.87.93 3.721 2.196l-2.582 4.88.17.212c.043.052.656.788 1.84 1.4h-4.68a1.63 1.63 0 0 0 .232-.83 1.67 1.67 0 0 0-1.677-1.66 1.66 1.66 0 0 0-.426.06c.001-.02.007-.04.007-.06a1.67 1.67 0 0 0-1.678-1.66c-.02 0-.04.005-.062.006.037-.136.062-.275.062-.422a1.63 1.63 0 0 0-.169-.713c.63-1.912 2.388-3.27 4.403-3.422-.025.3-.04.602-.04.906zm7.307-2.021c.095-.18.39-.18.484 0l3.488 6.59c-.78.748-2.02 1.566-3.73 1.566s-2.95-.818-3.73-1.566zm-4.282 8.09l.389-.734c.903.809 2.279 1.63 4.135 1.63 1.856 0 3.232-.821 4.136-1.63l.388.733c-.496.487-2.006 1.727-4.524 1.727-2.537 0-4.031-1.235-4.524-1.725zM5.245 7.23c.065-.106.183-.172.348-.172.198 0 .359.159.359.354v.12a.358.358 0 0 1-.359.356.357.357 0 0 1-.32-.197l-.14-.276zM9.33.83h.396c1.94 0 3.541 1.455 3.75 3.32h-.395c-1.94 0-3.542-1.454-3.751-3.32zm14.819 14.528c1.184-.612 1.797-1.348 1.84-1.4l.17-.213-4.544-8.589a1.11 1.11 0 0 0-.986-.59 1.11 1.11 0 0 0-.985.59l-1.524 2.88a5.825 5.825 0 0 0-4.047-2.195A9.895 9.895 0 0 1 16.334 1.1l-.636-.54a10.723 10.723 0 0 0-1.62 2.513A4.609 4.609 0 0 0 9.726 0H8.468v.415c0 2.518 2.07 4.566 4.613 4.566h.326c-.07.278-.13.558-.177.841-2.264.105-4.275 1.512-5.144 3.561a1.676 1.676 0 0 0-.876-.25c-.613 0-1.144.329-1.437.815a1.673 1.673 0 0 0-1.436-.361c.064-.442.175-.875.343-1.288.224.263.555.418.913.418.66 0 1.197-.531 1.197-1.185v-.12c0-.654-.536-1.186-1.237-1.186a1.21 1.21 0 0 0-.835.337 5.55 5.55 0 0 1-.444-2.167v-.66h-.839v.66c0 .99.237 1.98.684 2.867l.063.125a6.367 6.367 0 0 0-.705 2.28c-.303-.98-.46-1.994-.46-3.026v-.416H.5v.416c0 1.41.543 2.736 1.527 3.75C1.173 10.47.5 11.173.5 12.038c0 .915.752 1.66 1.677 1.66.021 0 .041-.005.062-.006a1.612 1.612 0 0 0-.062.421c0 .499.228.94.58 1.245H.5v.416c0 2.234 1.63 4.095 3.774 4.486V22h18.452v-1.74c2.143-.391 3.774-2.252 3.774-4.486v-.416z"/>
        <path d="M21.5 9h1v1h-1zM23.5 11h1v1h-1zM19.5 11h1v1h-1z"/>
    </symbol>
    <symbol id="handshake" viewBox="0 0 26 16">
        <path d="M20.324 10.926c-.482-1.057-2.208-2.524-3.875-3.941-.93-.79-1.809-1.537-2.369-2.126a.494.494 0 0 0-.536-.126c-.345.131-.558.233-.726.311-.256.12-.342.162-.687.198a.508.508 0 0 0-.375.236c-.724 1.137-1.474 1.04-1.974.864-.16-.056-.189-.128-.204-.197-.108-.472.432-1.572 1.132-2.307 1.664-1.75 2.522-2.188 4.335-1.337a58.152 58.152 0 0 0 4.137 1.73c.27.098.56-.05.653-.33a.546.546 0 0 0-.316-.686 56.73 56.73 0 0 1-4.055-1.698c-2.349-1.103-3.637-.376-5.478 1.559-.7.736-1.651 2.225-1.406 3.318.106.465.417.81.88.97 1.16.402 2.22.017 3.008-1.083.326-.053.503-.13.769-.256a9.82 9.82 0 0 1 .359-.162c.585.578 1.376 1.25 2.209 1.958 1.505 1.28 3.212 2.73 3.596 3.57.19.414-.014.684-.152.808-.203.183-.48.24-.631.13a.492.492 0 0 0-.553-.02.547.547 0 0 0-.247.52c.035.343-.263.539-.392.606-.328.175-.67.145-.798.02a.498.498 0 0 0-.532-.11.535.535 0 0 0-.327.453c-.031.353-.28.692-.605.824-.156.063-.384.1-.587-.095a.5.5 0 0 0-.828.214c-.02.054-.063.183-.543.183-.34 0-.954-.242-1.254-.451-.36-.249-2.614-2.016-4.56-3.73-.274-.241-.747-.76-1.165-1.219-.37-.406-.71-.776-.884-.93a.493.493 0 0 0-.722.063.558.558 0 0 0 .06.759c.16.14.466.482.805.853.457.502.93 1.02 1.247 1.3 1.907 1.678 4.199 3.49 4.656 3.805.376.26 1.189.626 1.817.626.505 0 .893-.122 1.163-.36.36.148.77.15 1.164-.012a2.06 2.06 0 0 0 1.066-1.035c.404.09.866.027 1.286-.194.41-.218.707-.55.855-.939.407.023.827-.129 1.174-.442.588-.529.75-1.35.41-2.092z"/>
        <path d="M11.045 2h-4.09c-.251 0-.455.224-.455.5s.204.5.455.5h4.09c.251 0 .455-.224.455-.5s-.204-.5-.455-.5zM21.43 10.224c-.125-.231-.377-.295-.563-.137l-1.187.99c-.186.155-.236.47-.11.7.078.144.206.223.337.223a.35.35 0 0 0 .226-.086l1.188-.99c.185-.156.235-.47.11-.7zM18.81 12.107c-.358-.282-1.96-1.92-2.949-2.952a.5.5 0 1 0-.722.692c.257.267 2.524 2.63 3.05 3.046a.498.498 0 0 0 .704-.084.5.5 0 0 0-.083-.702zM16.34 13.237c-.514-.41-1.804-1.781-2.095-2.098a.43.43 0 0 0-.632.58c.015.016 1.555 1.678 2.19 2.188a.43.43 0 0 0 .603-.067.43.43 0 0 0-.066-.603zM14.348 14.243c-.611-.515-1.862-1.845-2.106-2.107a.428.428 0 1 0-.627.585c.352.377 1.548 1.645 2.18 2.178a.427.427 0 0 0 .604-.052.429.429 0 0 0-.051-.604z"/>
        <path d="M4.158 9.9H1.667V1.14c1.875.139 3.898.443 4.633.78-.31 2.408-1.708 6.688-2.142 7.98zm3.16-8.65C6.318.357 2.32.068 1.118 0a.6.6 0 0 0-.435.15.535.535 0 0 0-.183.4v9.9c0 .304.261.55.583.55h3.5a.58.58 0 0 0 .555-.38c.085-.246 2.095-6.063 2.36-8.923a.53.53 0 0 0-.18-.447zM24.507 10.9h-2.135c-.477-1.698-1.883-6.127-2.668-7.957.767-.285 2.413-.775 4.803-.836zM25 1c-3.936 0-6.12 1.105-6.211 1.152a.536.536 0 0 0-.268.342c-.04.15-.02.312.055.446.62 1.095 2.56 7.174 2.933 8.656a.51.51 0 0 0 .483.404H25c.276 0 .501-.246.501-.55v-9.9c0-.305-.225-.55-.501-.55z"/>
    </symbol>
    <symbol id="home" viewBox="0 0 20 20">
        <path d="M17.217 19.305h-4.59V12.09c0-.555-.431-1.006-.962-1.006h-3.32c-.531 0-.963.451-.963 1.006v7.214h-4.59V7.932L10.006.935l4.681 4.541 1.875 1.82.656.635zm-9.183-7.208c0-.177.138-.321.308-.321h3.326c.17 0 .307.144.307.32v7.209h-3.94zm5.897-9.573h1.965v3.213l-1.965-1.915zm5.464 6.602l-2.843-2.762V1.838h-3.276v1.344L10 0 .605 9.126a.354.354 0 0 0-.017.485c.122.138.33.146.463.017l1.087-1.056V20h15.724V8.572l1.088 1.056a.318.318 0 0 0 .462-.018.354.354 0 0 0-.017-.484z"/>
    </symbol>
    <symbol id="logs" viewBox="0 0 23 22">
        <path d="M5 12c1.654 0 3-1.346 3-3S6.654 6 5 6a.335.335 0 1 0 0 .67A2.333 2.333 0 0 1 7.33 9 2.333 2.333 0 0 1 5 11.33 2.333 2.333 0 0 1 2.67 9 .335.335 0 1 0 2 9c0 1.654 1.346 3 3 3zM10.855 10h7.29c.196 0 .355-.224.355-.5s-.159-.5-.355-.5h-7.29c-.196 0-.355.224-.355.5s.159.5.355.5zM1.5 17.5C1.5 19.43 3.07 21 5 21s3.5-1.57 3.5-3.5S6.93 14 5 14a.39.39 0 1 0 0 .781A2.722 2.722 0 0 1 7.719 17.5 2.722 2.722 0 0 1 5 20.219 2.722 2.722 0 0 1 2.281 17.5a.39.39 0 1 0-.781 0z"/>
        <path d="M8.928 17.46c0 2.115-1.731 3.837-3.86 3.838-2.13 0-3.862-1.722-3.862-3.839 0-2.116 1.732-3.838 3.861-3.838 2.129 0 3.86 1.722 3.86 3.838zM5.067 5.241c2.129 0 3.86 1.722 3.86 3.838s-1.73 3.838-3.858 3.839c-2.131 0-3.863-1.722-3.863-3.839 0-2.116 1.732-3.838 3.861-3.838zm7.197 0a.352.352 0 0 0 .354-.351.352.352 0 0 0-.354-.351h-1.407L9.468 3.16a1.604 1.604 0 0 0 1.271-1.262l3.262 3.241a.355.355 0 0 0 .25.103h3.69c2.01 0 3.667 1.535 3.846 3.487h-2.438a.352.352 0 0 0-.353.351c0 .194.158.351.353.351h2.438a3.86 3.86 0 0 1-3.847 3.488H7.504a4.593 4.593 0 0 0 1.402-1.38h5.298a.352.352 0 0 0 .353-.351.352.352 0 0 0-.353-.352H9.28a4.49 4.49 0 0 0 .355-1.756 4.535 4.535 0 0 0-2.131-3.838h3.207zM9.162.702c.495 0 .898.4.898.893a.896.896 0 0 1-.898.892.896.896 0 0 1-.898-.892c0-.492.403-.893.898-.893zm12.202 18.514h-11.25a.352.352 0 0 0-.354.35c0 .195.159.352.354.352h10.781a3.863 3.863 0 0 1-2.962 1.38H7.504A4.54 4.54 0 0 0 9.62 17.81h3.169a.352.352 0 0 0 .353-.35.352.352 0 0 0-.353-.352H9.62a4.54 4.54 0 0 0-2.116-3.487h10.43c2.128 0 3.86 1.722 3.86 3.838 0 .633-.156 1.23-.43 1.757zm-1.67-5.946A4.547 4.547 0 0 0 22.5 9.08c0-2.503-2.049-4.54-4.567-4.54h-3.54L10.296.467A1.603 1.603 0 0 0 9.162 0c-.884 0-1.604.715-1.604 1.595a1.584 1.584 0 0 0 .47 1.127L9.856 4.54H5.067C2.549 4.54.5 6.577.5 9.08a4.547 4.547 0 0 0 2.807 4.19A4.547 4.547 0 0 0 .5 17.46C.5 19.962 2.549 22 5.067 22h12.866c2.518 0 4.567-2.037 4.567-4.54a4.547 4.547 0 0 0-2.807-4.19z"/>
        <path d="M14.5 17.5c0 .276.174.5.39.5h7.22c.216 0 .39-.224.39-.5s-.174-.5-.39-.5h-7.22c-.216 0-.39.224-.39.5z"/>
    </symbol>
    <symbol id="nails" viewBox="0 0 23 25">
        <path d="M10.258 2.755a.433.433 0 0 0-.339-.328l-1.918-.403-.036-.17 4.731-.93.037.17-1.598 1.094a.415.415 0 0 0-.176.43l2.154 10.048-.083 1.315-.618-1.177zM13.371 16a.435.435 0 0 0 .442-.398l.186-2.94a.405.405 0 0 0-.008-.111l-2.108-9.834 1.598-1.094a.415.415 0 0 0 .176-.43l-.183-.855a.442.442 0 0 0-.522-.33l-5.599 1.1a.424.424 0 0 0-.344.5l.183.856a.433.433 0 0 0 .339.328l1.918.403 2.108 9.834c.008.036.02.071.038.105l1.381 2.633a.445.445 0 0 0 .395.233zM21.627 11.3l-4.479 9.611a.43.43 0 0 0 .072.47l1.308 1.452-.076.164-4.42-1.98.077-.159 1.975.025h.005a.45.45 0 0 0 .405-.26l4.478-9.614.883-1.047zm.587-3.142l-1.972 2.336a.43.43 0 0 0-.062.097l-4.377 9.399-1.973-.02a.445.445 0 0 0-.41.254l-.38.818a.433.433 0 0 0 .22.577l5.22 2.342a.45.45 0 0 0 .59-.216l.38-.817a.43.43 0 0 0-.07-.47l-1.308-1.45 4.378-9.4a.44.44 0 0 0 .034-.108l.51-2.992a.434.434 0 0 0-.253-.469.45.45 0 0 0-.527.119zM8.858 12.003l-2.052.037a.463.463 0 0 0-.417.265L2.038 21.97l-.885 1.062.196-1.335L5.7 12.032a.413.413 0 0 0-.089-.464l-1.404-1.403.074-.165 4.65 1.839zm.86-.794L4.215 9.034a.474.474 0 0 0-.605.23l-.37.824a.413.413 0 0 0 .088.464l1.404 1.403-4.259 9.459a.417.417 0 0 0-.032.11l-.437 2.984a.43.43 0 0 0 .279.458.482.482 0 0 0 .544-.133l1.977-2.376a.433.433 0 0 0 .061-.098l4.26-9.459 2.051-.037a.463.463 0 0 0 .417-.264l.37-.823a.423.423 0 0 0-.245-.567z"/>
    </symbol>
    <symbol id="pacifier" viewBox="0 0 19 18">
        <path d="M17.615 4.826a3.362 3.362 0 0 1-2.238 2.278 12.86 12.86 0 0 0-1.698.646l-.006-.008-.258.131-.043.024c-.084.043-.164.09-.245.137-.412.23-.763.475-1.046.734-.02.017-.043.034-.062.052-.124.12-.237.24-.335.365-.17-.197-.345-.39-.52-.583a29.542 29.542 0 0 0-1.707-1.728c.121-.1.24-.215.355-.341l.06-.075c.242-.278.47-.617.687-1.013.052-.095.105-.188.154-.285l.022-.04.126-.259-.007-.006c.26-.57.468-1.163.628-1.7A3.36 3.36 0 0 1 13.729.887c1.023-.31 2.065-.103 2.862.57a3.669 3.669 0 0 1 .46.467c.665.808.87 1.866.564 2.902zm-1.518 9.478c-.27.274-1.114.257-2.676-.61a17.554 17.554 0 0 1-1.533-.987c-.101-.073-.203-.146-.305-.222-.1-.075-.202-.155-.304-.234l-.046-.035c-.18-.141-.361-.287-.541-.436-.045-.037-.09-.072-.134-.11a27.567 27.567 0 0 1-.515-.444l-.123-.108-.095-.086a28 28 0 0 1-.443-.409l-.069-.063-.143-.136a31.625 31.625 0 0 1-.608-.597c-.202-.204-.397-.41-.59-.617l-.134-.145-.062-.07a23.638 23.638 0 0 1-.403-.449l-.085-.096-.107-.125a26.35 26.35 0 0 1-.438-.522l-.109-.135c-.147-.183-.29-.366-.43-.55l-.034-.046c-.078-.103-.157-.206-.231-.308-.075-.104-.146-.206-.218-.309a17.922 17.922 0 0 1-.974-1.554c-.856-1.583-.873-2.439-.603-2.713.109-.11.282-.165.51-.165.965 0 2.926.989 5.288 3.021-.037.068-.073.142-.11.207l-.01.017a5.473 5.473 0 0 1-.263.407l-.009.012a3.92 3.92 0 0 1-.272.338l-.011.013c-.091.1-.183.188-.277.265l-.018.014c-.093.076-.187.14-.283.193l-.461.252.39.354a29.213 29.213 0 0 1 2.827 2.936l.36.429.25-.501a1.91 1.91 0 0 1 .185-.293l.012-.017a2.64 2.64 0 0 1 .258-.285l.014-.013c.099-.095.21-.188.331-.28l.014-.01a5.17 5.17 0 0 1 .401-.27l.019-.011c.064-.04.137-.076.205-.114 2.312 2.835 3.144 5.069 2.603 5.617zM10.64 15.63a5.461 5.461 0 0 1-7.795 0c-2.149-2.18-2.149-5.728 0-7.908a5.413 5.413 0 0 1 1.971-1.28l.15.22c.078.114.156.228.238.343l.048.07a4.744 4.744 0 0 0-1.887 1.174c-1.862 1.89-1.862 4.964 0 6.854a4.728 4.728 0 0 0 3.377 1.417 4.727 4.727 0 0 0 3.378-1.417 4.836 4.836 0 0 0 1.157-1.915c.023.018.046.032.069.05.113.082.226.161.338.24.073.05.146.104.217.153a5.51 5.51 0 0 1-1.261 1.999zm-2.025-4.71l.07.067.082.077.023.021c.14.132.28.262.42.39l.127.118.01.01.046.039a22 22 0 0 0 .5.437l.086.075a25.093 25.093 0 0 0 .673.55A4.094 4.094 0 0 1 9.6 14.568a4.008 4.008 0 0 1-5.716 0 4.142 4.142 0 0 1 0-5.795 4.012 4.012 0 0 1 1.838-1.066l.097.125c.145.185.293.371.446.557l.074.088c.14.169.284.338.431.506l.04.046.008.01c.038.044.078.087.117.13.126.142.254.284.384.426l.022.023.075.084.067.07a30.46 30.46 0 0 0 1.132 1.148zm9.008-9.471a4.38 4.38 0 0 0-.553-.562C16.08.05 14.786-.21 13.523.174a4.102 4.102 0 0 0-2.742 2.77c-.155.521-.325.99-.506 1.413C7.854 2.31 4.797.476 3.625 1.663c-.62.629-.454 1.873.479 3.597.097.18.203.364.315.55a6.134 6.134 0 0 0-2.092 1.384c-2.436 2.468-2.436 6.485 0 8.954A6.184 6.184 0 0 0 6.743 18c1.6 0 3.2-.617 4.417-1.851a6.228 6.228 0 0 0 1.366-2.121c.183.113.364.22.542.319 1.026.57 1.88.858 2.533.858.428 0 .77-.124 1.016-.374 1.128-1.143-.472-4.027-2.445-6.48a12.65 12.65 0 0 1 1.424-.526 4.104 4.104 0 0 0 2.733-2.78c.379-1.282.122-2.592-.705-3.596z"/>
    </symbol>
    <symbol id="password" viewBox="0 0 20 23">
        <path d="M15.955 15.445a3.735 3.735 0 0 0-2.682 1.47 3.805 3.805 0 0 0-.706 2.997H1.283a.694.694 0 0 1-.691-.697V8.862c0-.385.31-.696.69-.697h13.982c.382 0 .69.312.69.697zm3.463 3.77c0 1.76-1.416 3.186-3.162 3.186-1.747 0-3.162-1.426-3.162-3.186s1.415-3.186 3.162-3.186c1.745.002 3.16 1.428 3.162 3.186zM3.25 3.52C3.253 1.906 4.548.599 6.146.597H7.18v.476H6.146A2.437 2.437 0 0 0 3.723 3.52v4.049H3.25zm7.15-1.848a1.842 1.842 0 0 1 1.831 1.848v4.049H4.315v-4.05a1.842 1.842 0 0 1 1.831-1.848zm-2.63-.607V.597h1.014v.467zm5.525 6.504h-.472v-4.05A2.437 2.437 0 0 0 10.4 1.073H9.367V.597h1.034c1.598.002 2.893 1.31 2.895 2.922zM10.4 0H6.146C4.221.002 2.661 1.576 2.659 3.519v4.049H1.283A1.29 1.29 0 0 0 0 8.862v10.353a1.29 1.29 0 0 0 1.283 1.294h11.445a3.743 3.743 0 0 0 4.29 2.41c1.826-.385 3.093-2.065 2.974-3.943-.118-1.878-1.586-3.383-3.445-3.531V8.862a1.29 1.29 0 0 0-1.283-1.294h-1.376V3.519C13.885 1.576 12.326.002 10.4 0z"/>
        <path d="M14.516 19.107a.286.286 0 0 0-.428 0 .347.347 0 0 0 0 .463l1.232 1.334c.118.128.31.128.427 0l2.164-2.345a.347.347 0 0 0 0-.463.286.286 0 0 0-.428 0l-1.95 2.113z"/>
    </symbol>
    <symbol id="pickaxe" viewBox="0 0 23 22">
        <path d="M16.346 8.098l.935-.935a19.052 19.052 0 0 1 2.07 2.853A17.476 17.476 0 0 1 20.86 13.3l-.193-.236c-1.841-2.253-3.28-3.862-4.32-4.965zm-.115-1.829a.458.458 0 1 0-.001.649l-1.62 1.62-.648-.649 2.917-2.916.648.648-1.296 1.296a.458.458 0 0 0 0-.648zM2.198 20.94a.456.456 0 0 1-.647 0 .458.458 0 0 1 0-.648L13.305 8.538l.647.647zM9.437 1.833L9.2 1.64a17.5 17.5 0 0 1 3.282 1.509 19.096 19.096 0 0 1 2.854 2.069l-.935.935c-1.673-1.58-3.566-3.176-4.965-4.32zm8.494 4.68l.893-.892-1.945-1.945-.892.892C10.807.012 5.647 0 5.647 0s4.593 3.485 8.107 6.801L.903 19.653a1.375 1.375 0 1 0 1.944 1.944L15.698 8.746c3.317 3.514 6.802 8.106 6.802 8.106s-.013-5.16-4.569-10.34z"/>
        <path d="M16.576 15.947l3.187 2.17L21.022 21H18.1l.358-1.846zM17.15 21H9.968l1.263-2.888 3.92-2.712 2.32 3.946zm3.35-3.572L15.454 14 10.5 17.428 8.5 22h14z"/>
    </symbol>
    <symbol id="pizza" viewBox="0 0 23 19">
        <path d="M19.537 16.39h-.003a2.208 2.208 0 0 0-2.167-1.87 2.208 2.208 0 0 0-2.168 1.87h-3.332v-1.32c0-.174-.04-.345-.116-.5l-.758-1.539h6.74l.012-.002h2.268l.229.93a.733.733 0 0 0 .71.562h.809l-.006 1.496zm-2.17 1.856c-.81 0-1.467-.667-1.467-1.49s.657-1.49 1.467-1.49 1.466.667 1.466 1.49-.656 1.49-1.466 1.49zM3.468 16.39H2.391l-1.158-.372v-.937l1.175-.894a.753.753 0 0 0 .293-.596v-.56h1.454l.015.001h6.013l.924 1.873a.374.374 0 0 1 .038.165v1.32H7.808a2.212 2.212 0 0 0-2.17-1.868 2.212 2.212 0 0 0-2.17 1.868zm2.165 1.857c-.81 0-1.466-.667-1.466-1.49s.656-1.49 1.466-1.49c.81 0 1.467.667 1.467 1.49s-.657 1.49-1.467 1.49zM1.757 13.03h.22v.561l-.744.559v-.59zm3.76-2.977h.425l-.272 2.233h-.973zm1.949-1.49H12.6v.755H7.467zm2.894-.745a.372.372 0 0 0 .017-.088 1.014 1.014 0 0 1 .49-.89.98.98 0 0 1 1.004 0c.31.185.498.525.491.89a.38.38 0 0 0 .018.088zm-5.784 0a.087.087 0 0 1-.082-.06.09.09 0 0 1 .03-.099L8.415 4.59c.227.471.71.755 1.225.72a1.272 1.272 0 0 0 1.118-.882 1.304 1.304 0 0 0-.379-1.386l1.364-1.075a10.668 10.668 0 0 1 1.96 5.848h-.637a.371.371 0 0 0 .018-.087 1.76 1.76 0 0 0-.855-1.54 1.699 1.699 0 0 0-1.738 0 1.76 1.76 0 0 0-.855 1.54.37.37 0 0 0 .017.087zm5.52-3.799a.539.539 0 0 1-1.07.09l.746-.58a.535.535 0 0 1 .325.49zM13.299.765a.09.09 0 0 1 .07-.02.076.076 0 0 1 .054.032c1.29 1.82 1.996 4.162 2.101 6.961a.08.08 0 0 1-.023.058.092.092 0 0 1-.068.03h-.999c-.065-2.27-.8-4.468-2.107-6.306zm3.548 11.52h-6.08v-2.233h3.881zm-6.823-2.233v2.233H6.415l.275-2.233zm11.74 3.725h-.81l-.183-.748h.997zm.004-1.492h-3.884l-2.716-2.76a.722.722 0 0 0-.52-.218h-1.314v-.745h2.11a.826.826 0 0 0 .824-.862c-.11-2.942-.867-5.42-2.246-7.358a.805.805 0 0 0-.543-.333.82.82 0 0 0-.623.165l-1.254.968-7.526 5.926a.842.842 0 0 0-.275.93.822.822 0 0 0 .776.564h2.157v.745h-1.21a.739.739 0 0 0-.687.484l-.923 2.494H1.75a.713.713 0 0 0-.515.22l-.528.532a.763.763 0 0 0-.207.521v2.459a.733.733 0 0 0 .534.716l1.188.384a.361.361 0 0 0 .111.017h1.135c.07.414.253.8.53 1.112.259.118.187.255.446.373.286.13 1.184.087 1.47.217 1.1-.181 1.704-.63 1.885-1.702h7.402c.07.414.145.812.483 1.177 0 0 .053.263.583.525.53.263 1.347.104 1.347.104 1.04-.104 1.738-.734 1.919-1.806h.034c.02 0 .04-.001.06-.005l2.238-.375a.75.75 0 0 0 .635-.745v-2.98a.75.75 0 0 0-.215-.526.728.728 0 0 0-.518-.218z"/>
    </symbol>
    <symbol id="resort" viewBox="0 0 20 21">
        <path d="M11.177 20.111H7.833V17.89h3.344zM11.583 17H7.417c-.23 0-.417.199-.417.444v3.112c0 .245.187.444.417.444h4.166c.23 0 .417-.199.417-.444v-3.112c0-.245-.186-.444-.417-.444z"/>
        <path d="M5.91 20.125V.875h8.18v19.25zM14.544 0h-9.09A.446.446 0 0 0 5 .437v20.126c0 .241.204.437.455.437h9.09a.446.446 0 0 0 .455-.437V.437A.446.446 0 0 0 14.545 0z"/>
        <path d="M5 20.146H2V2.864h3zM5.5 2h-4c-.276 0-.5.193-.5.432v18.136c0 .239.224.432.5.432h4c.276 0 .5-.193.5-.432V2.432C6 2.193 5.776 2 5.5 2z"/>
        <path d="M1 2h1v1H1zM5 0h10v1H5zM7 10h1v1H7zM9 10h1v1H9zM10 10h1v1h-1zM12 10h1v1h-1zM7 9h1v1H7zM9 9h1v1H9zM10 9h1v1h-1zM12 9h1v1h-1zM3 10h1v1H3zM3 9h1v1H3zM18 20.146h-3V2.864h3zM18.5 2h-4c-.277 0-.5.193-.5.432v18.136c0 .239.223.432.5.432h4c.277 0 .5-.193.5-.432V2.432c0-.239-.223-.432-.5-.432z"/>
        <path d="M18 2h1v1h-1zM16 10h1v1h-1zM16 9h1v1h-1zM0 20h5v1H0zM13 20h7v1h-7z"/>
    </symbol>
    <symbol id="ribbon" viewBox="0 0 21 19">
        <path d="M16.888 15.399a.292.292 0 0 0-.273.086l-1.97 2.1c-.869-4.475-2.863-8.049-3.613-9.28h.076c.306 0 .611-.06.895-.174.238.235.739.713 1.386 1.229 1.056.842 2.292 1.694 3.651 1.923.43.072.878.068 1.296-.062l.011-.004a26.747 26.747 0 0 1 1.386 4.767zM1.086 5.916c0-3.205.782-4.83 2.325-4.83C5.257 1.086 7.67 3.247 8.453 4a2.39 2.39 0 0 0 .001 3.831c-.195.188-.49.462-.853.769-.006.004-.776.628-1.177.906-.96.664-2.199 1.462-3.426 1.197h-.001c-1.269-.277-1.911-1.884-1.911-4.787zm10.022-1.804c.969 0 1.804.834 1.804 1.804 0 .974-.82 1.802-1.801 1.803H9.89c-.968 0-1.801-.837-1.801-1.803 0-.976.827-1.804 1.804-1.804zm8.86 5.422c.353-.876.532-2.093.532-3.618 0-1.974-.301-3.425-.895-4.315a.293.293 0 0 0-.487.325c.528.792.796 2.134.796 3.99 0 2.596-.513 4.16-1.525 4.655l-.005.003c-1.249.614-2.775-.385-3.785-1.046-.723-.474-1.39-1.057-2.016-1.652a.935.935 0 0 0-.047-.045c.6-.441.962-1.172.962-1.915 0-.749-.361-1.47-.962-1.916a17.2 17.2 0 0 1 2.012-1.66c1.129-.784 2.707-1.61 3.814-1.093a.293.293 0 0 0 .248-.53C16.3-.362 12.772 2.938 12.002 3.7a2.378 2.378 0 0 0-.894-.174H9.892c-.316 0-.618.063-.895.175C8.336 3.046 5.62.5 3.414.5 2.508.5 1.8.917 1.308 1.738.772 2.634.5 4.04.5 5.916c0 1.875.272 3.281.808 4.177.226.378.498.67.814.875-.26.662-.495 1.33-.7 1.992a.293.293 0 1 0 .559.174 27.99 27.99 0 0 1 .672-1.915c.235.074.49.112.762.112 1.685 0 3.67-1.488 4.806-2.48.078-.069.723-.742.776-.72.284.115.59.174.895.174h.076c-.75 1.231-2.744 4.805-3.613 9.28l-1.97-2.1a.293.293 0 0 0-.273-.086l-2.845.585a24.79 24.79 0 0 1 .382-1.691.293.293 0 0 0-.567-.149c-.192.73-.35 1.458-.469 2.165-.033.2.15.377.348.336l3.108-.64 2.257 2.405a.296.296 0 0 0 .502-.152c.495-2.93 1.532-5.513 2.315-7.164A27.588 27.588 0 0 1 10.5 8.56a27.51 27.51 0 0 1 1.357 2.534c.783 1.651 1.82 4.234 2.315 7.164.04.234.34.325.502.152l2.257-2.404 3.108.639a.299.299 0 0 0 .344-.358 27.075 27.075 0 0 0-1.506-5.32c.46-.3.827-.78 1.09-1.433z"/>
    </symbol>
    <symbol id="shirt" viewBox="0 0 22 19">
        <path d="M19.6 7.831l-1.902-.657-1.206-.417V18.05H5.498V6.757l-1.206.417-1.903.657-1.263-3.603L6.657.95h1.264c.395 1.374 1.622 2.375 3.074 2.375 1.453 0 2.68-1.001 3.073-2.375h1.265l5.532 3.278zM15.585 0h-2.292c0 1.31-1.028 2.375-2.292 2.375C9.736 2.375 8.709 1.31 8.709 0H6.417L0 3.8l1.834 5.225 2.75-.95V19h12.833V8.075l2.75.95L22 3.8z"/>
    </symbol>
    <symbol id="startup" viewBox="0 0 20 20">
        <path d="M15.071 6.071A.802.802 0 0 1 13.94 4.94a.795.795 0 0 1 .566-.234.801.801 0 0 1 .566 1.366zm.49-1.632A1.49 1.49 0 0 0 14.5 4a1.502 1.502 0 0 0 0 3 1.502 1.502 0 0 0 1.061-2.56zM5.774 15.25a.407.407 0 0 0-.546.184l-.485.974c-.21.423-.635.706-1.107.738l-.564.04a.239.239 0 0 1-.187-.071.239.239 0 0 1-.07-.187l.039-.564c.032-.472.315-.896.738-1.107l.974-.485a.407.407 0 1 0-.363-.73l-.973.486a2.161 2.161 0 0 0-1.189 1.78l-.039.564a1.055 1.055 0 0 0 1.126 1.126l.564-.04a2.161 2.161 0 0 0 1.78-1.188l.485-.973a.407.407 0 0 0-.183-.546z"/>
        <path d="M19.206 1.111a11.076 11.076 0 0 1-4.249 8.206l-6.15 4.797c-.51-.3-.986-.653-1.421-1.054l2.073-2.084a.396.396 0 0 0 0-.558.39.39 0 0 0-.554 0l-2.072 2.083a8.344 8.344 0 0 1-1.006-1.379l5.044-6.24a11.028 11.028 0 0 1 7.848-4.07l.365-.023a.122.122 0 0 1 .095.036.122.122 0 0 1 .037.094zm-5.461 11.706a5.908 5.908 0 0 1-1.726 4.192l-1.68 1.69-.235-4.589 3.64-2.842v1.549zm-6.528 1.815c-.204.172-.414.348-.61.51a4.332 4.332 0 0 1-1.746-1.757l.846-1.01c.256.345.537.672.84.978v.001c.336.34.697.652 1.08.934l-.41.344zM1.293 9.61l1.68-1.695a5.831 5.831 0 0 1 4.163-1.741l1.644.048-2.92 3.625zM19.73.263a.905.905 0 0 0-.695-.261l-.365.023a11.81 11.81 0 0 0-8.407 4.362l-.86 1.064-2.249-.066h-.012A6.616 6.616 0 0 0 2.42 7.352L.115 9.67a.396.396 0 0 0 .257.673l4.877.252-.199.246a.396.396 0 0 0-.04.437c.076.142.157.28.24.417l-1.156 1.381a.397.397 0 0 0-.055.423 5.135 5.135 0 0 0 2.452 2.466.39.39 0 0 0 .415-.05c.249-.203.536-.444.814-.677.198-.166.4-.336.59-.493.113.068.227.134.343.198a.39.39 0 0 0 .428-.035l.268-.208.251 4.926a.394.394 0 0 0 .392.374.39.39 0 0 0 .277-.116l2.304-2.317a6.694 6.694 0 0 0 1.956-4.75v-2.161l.91-.71a11.877 11.877 0 0 0 4.55-8.796L20 .958a.917.917 0 0 0-.27-.695z"/>
    </symbol>
    <symbol id="triangle" viewBox="0 0 23 22">
        <path d="M21.79 18.66l-7.127-7.128 1.506-1.505 3.492 3.493V2.839H8.981l3.492 3.492-1.505 1.506L3.84.71h2.337v.71h.71V.71h.71v1.419h.71V.709h.71v.71h.709V.71h.71v1.42h.71V.709h.709v.71h.71V.71h.71v1.42h.709V.709h.71v.71h.71V.71h.709v1.42h.71V.709h.71v.71h.709V.71h.71v1.42h.71V.709h2.128zM1.238 21.262l.393-1.178.785.785zm1.191-3.573l2.382 2.382-1.643.547-1.286-1.286zm1.944.94l5.604-5.604-.502-.502-5.604 5.604-1.095-1.095 7.66-7.66 2.691 2.693-7.66 7.659zM11.5 8.309L14.192 11l-.563.563-2.692-2.692zm2.073-2.074a1.905 1.905 0 0 1 2.692 2.692l-1.571 1.571-2.692-2.692zm-.501-.502l-.097.097-2.281-2.282h8.258v8.258L16.67 9.525l.097-.097c.493-.493.765-1.15.765-1.847a2.616 2.616 0 0 0-2.613-2.613c-.698 0-1.354.272-1.847.765zM22.5 0H2.127l8.339 8.339-8.502 8.502L.5 21.233V22h.767l4.392-1.464 8.502-8.502 8.339 8.339z"/>
        <path d="M10.5 11.586l.586-.586.414.414-.586.586z"/>
    </symbol>
    <symbol id="web" viewBox="0 0 19 18">
        <path d="M18.208 11.445H.792v-9.4c0-.678.531-1.227 1.187-1.227h15.042c.656 0 1.187.55 1.187 1.226zm0 1.646c0 .678-.531 1.227-1.187 1.227H1.979c-.656 0-1.187-.55-1.187-1.227v-.818h17.416zM7.65 17.17l.565-2.035h2.57l.565 2.036zM17.02 0H1.98C.886.001 0 .916 0 2.045v11.046c.001 1.129.887 2.044 1.98 2.045h5.412l-.565 2.046H5.542V18h7.916v-.818h-1.285l-.565-2.046h5.413c1.092-.001 1.978-.916 1.979-2.045V2.045C18.999.916 18.113.001 17.02 0z"/>
    </symbol>
    <symbol id="arrow_right" viewBox="0 0 7 11">
        <path d="M4.97083834,0.242655563 L5.09548588,0.103843531 C5.06092562,0.142331091 5.02933193,0.182874985 5.00070482,0.225124934 C5.15699236,0.136999319 5.32911941,0.0956498477 5.5,0.100749156 C5.67088059,0.0956498477 5.84300764,0.136999319 5.99929518,0.225124934 C5.97066807,0.182874985 5.93907438,0.142331091 5.90451412,0.103843531 L6.02916166,0.242655563 C6.11346203,0.294118576 6.19269997,0.359570678 6.26408296,0.439065372 L10.5963045,5.26358483 C11.0025556,5.71600084 11.003752,6.44645054 10.5999344,6.89615647 L10.89732,6.56497703 C10.4968604,7.0109435 9.83715966,7.01287312 9.43133735,6.56093463 L5.5,2.1828544 L1.56866265,6.56093463 C1.16284034,7.01287312 0.503139641,7.0109435 0.102679954,6.56497703 L0.400065573,6.89615647 C-0.00375199897,6.44645054 -0.00255562959,5.71600084 0.403695485,5.26358483 L4.73591704,0.439065372 C4.80730003,0.359570678 4.88653797,0.294118576 4.97083834,0.242655563 Z" transform="rotate(90 0 7) translate(-7 0)"/>
    </symbol>
    <symbol id="check" viewBox="0 0 14 11">
        <path d="M11.97121,0.39812v0l-6.50202,7.35296v0l-3.35853,-3.80546c-0.22132,-0.29046 -0.54701,-0.47327 -0.91138,-0.47327c-0.66217,0 -1.19928,0.60631 -1.19928,1.3538c0,0.4103 0.16194,0.77896 0.41745,1.02677l4.21233,4.75404c0.20603,0.24273 0.49573,0.39304 0.81691,0.39304c0.0081,0 0.0162,0 0.0243,0c0.00359,0 0.00809,0 0.01349,0c0.32299,0 0.61539,-0.15031 0.82501,-0.39304l7.34143,-8.30154c0.21593,-0.24476 0.34908,-0.58194 0.34908,-0.95467c0,-0.37272 -0.13315,-0.7099 -0.34908,-0.95466c-0.21412,-0.24477 -0.51102,-0.39609 -0.8394,-0.39609c-0.32839,0 -0.62529,0.15132 -0.83941,0.39609z"/>
    </symbol>
    <symbol id="star_empty" viewBox="0 0 11 10">
        <path fill="#acb6c3" fill-opacity="1" d="M4.03916,3.54195c0.05842,-0.00883 0.10877,-0.04734 0.13493,-0.10275l1.3309,-2.82661l1.3309,2.82642c0.02616,0.05542 0.07652,0.09393 0.13493,0.10275l2.97557,0.45329l-2.15323,2.20031c-0.04211,0.04321 -0.06147,0.10539 -0.05143,0.16625l0.5082,3.10669l-2.66144,-1.46674c-0.05251,-0.02893 -0.11469,-0.02893 -0.16683,0l-2.6618,1.46674l0.50838,-3.10669c0.01003,-0.06086 -0.00932,-0.12323 -0.05143,-0.16625l-2.15323,-2.20031zM2.60348,9.97813l2.8965,-1.59787l2.89615,1.59787c0.06032,0.03363 0.13353,0.02818 0.18866,-0.01428c0.05495,-0.04208 0.08252,-0.11327 0.07106,-0.18372l-0.55309,-3.38452l2.34322,-2.39718c0.04887,-0.04978 0.06623,-0.12455 0.04529,-0.19236c-0.0213,-0.06819 -0.07715,-0.1176 -0.14463,-0.12793l-3.2382,-0.49386l-1.44808,-3.07946c-0.02989,-0.06424 -0.09218,-0.10482 -0.16038,-0.10482c-0.06801,0 -0.1303,0.04058 -0.16037,0.10482l-1.44826,3.07946l-3.23802,0.49386c-0.06748,0.01033 -0.12351,0.05993 -0.14463,0.12793c-0.02094,0.06781 -0.0034,0.14239 0.04529,0.19236l2.34322,2.3968l-0.55327,3.38472c-0.01163,0.07044 0.01593,0.14164 0.07106,0.18371c0.03115,0.02386 0.0682,0.03588 0.10525,0.03588c0.02846,0 0.0571,-0.00713 0.08323,-0.02141z"/>
    </symbol>
    <symbol id="star_filled" viewBox="0 0 11 10">
        <path fill="#1e4bd2" fill-opacity="1" d="M10.53445,3.80588c-0.0213,-0.068 -0.07779,-0.1176 -0.14584,-0.12793l-3.26503,-0.49386v0l-1.46015,-3.07927c-0.03032,-0.06424 -0.09313,-0.10482 -0.16171,-0.10482c-0.06859,0 -0.13158,0.04058 -0.16172,0.10482l-1.46033,3.07946v0l-3.26503,0.49386c-0.06805,0.01033 -0.12436,0.05974 -0.14584,0.12793c-0.02111,0.06781 -0.00361,0.14258 0.04567,0.19236l2.36277,2.39699v0l-0.55789,3.38471c-0.01155,0.07045 0.01624,0.14164 0.07165,0.18372c0.05577,0.04246 0.12959,0.04791 0.19006,0.01428l2.92066,-1.59787v0l2.92029,1.59787c0.02635,0.01446 0.05541,0.0216 0.08411,0.0216c0.03736,0 0.07454,-0.01202 0.10613,-0.03588c0.05559,-0.04208 0.08338,-0.11327 0.07165,-0.18372l-0.55771,-3.38452v0l2.36277,-2.39718c0.0491,-0.05016 0.06678,-0.12474 0.04549,-0.19255z"/>
    </symbol>
    <symbol id="envelope" viewBox="0 0 21 16">
        <path d="M19.38681,13.42904c0,0.76998 -0.5959,1.39641 -1.32837,1.39641h-15.11275c-0.73247,0 -1.32837,-0.62643 -1.32837,-1.39641v-10.85373c0,-0.76998 0.5959,-1.39641 1.32837,-1.39641h15.10862c0.73246,0 1.32836,0.62643 1.32836,1.39641v10.85373zM18.05844,0h-15.11276c-1.34905,0 -2.44568,1.1528 -2.44568,2.57096v10.85808c0,1.41816 1.09663,2.57096 2.44568,2.57096h15.10862c1.34906,0 2.44569,-1.1528 2.44569,-2.57096v-10.85373c0.00414,-1.41816 -1.09249,-2.57531 -2.44155,-2.57531z"/>
        <path d="M13.21347,7.85652v0l5.0847,-4.78829c0.23659,-0.22587 0.2581,-0.60984 0.04301,-0.8628c-0.21508,-0.24845 -0.58074,-0.27104 -0.82164,-0.04517l-7.01189,6.60875v0l-1.36796,-1.2829c-0.0043,-0.00452 -0.00861,-0.00904 -0.00861,-0.01355c-0.03011,-0.03162 -0.06022,-0.05873 -0.09464,-0.08583l-5.56649,-5.23099c-0.2409,-0.22587 -0.60655,-0.20328 -0.82164,0.04969c-0.21509,0.25296 -0.19358,0.63693 0.04732,0.8628l5.14492,4.82895v0l-5.12341,5.03675c-0.2323,0.23038 -0.2452,0.61434 -0.02581,0.86279c0.11614,0.12649 0.27101,0.19425 0.42587,0.19425c0.14196,0 0.28392,-0.05421 0.39577,-0.16263l5.20084,-5.10902v0l1.41098,1.32356c0.11185,0.1039 0.24951,0.15359 0.38716,0.15359c0.13766,0 0.27962,-0.05421 0.38716,-0.15811l1.4497,-1.36421v0l5.17073,5.15871c0.11185,0.11293 0.25811,0.16714 0.40007,0.16714c0.15486,0 0.30543,-0.06324 0.42157,-0.18973c0.21939,-0.24393 0.21079,-0.63241 -0.02151,-0.86279z"/>
    </symbol>
    <symbol id="return" viewBox="0 0 20 20">
        <path d="M17.1722,0.91822c-0.45694,0 -0.82779,0.37966 -0.82779,0.84746v0.70635c-1.77811,-1.58728 -4.04585,-2.47203 -6.4626,-2.47203c-5.44896,0 -9.88181,4.55466 -9.88181,10.15254c0,0.4678 0.37085,0.84746 0.8278,0.84746c0.45694,0 0.82779,-0.37966 0.82779,-0.84746c0,-4.66356 3.69031,-8.45762 8.22622,-8.45762c1.98961,0 3.85877,0.72118 5.33224,2.01652h-0.75867c-0.45694,0 -0.8278,0.37966 -0.8278,0.84746c0,0.46779 0.37086,0.84746 0.8278,0.84746h2.71682c0.45695,0 0.8278,-0.37967 0.8278,-0.84746v-2.79322c0,-0.4678 -0.37085,-0.84746 -0.8278,-0.84746z"/>
        <path d="M19.16817,9c-0.45917,0 -0.83183,0.37966 -0.83183,0.84746c0,4.66356 -3.70831,8.45762 -8.26633,8.45762c-1.97601,0 -3.83432,-0.70339 -5.30667,-1.97033h0.79898c0.45917,0 0.83183,-0.37967 0.83183,-0.84746c0,-0.4678 -0.37266,-0.84746 -0.83183,-0.84746h-2.73049c-0.00749,0 -0.01414,0.00212 -0.02121,0.00212c-0.03161,0.00085 -0.0628,0.00508 -0.09441,0.00974c-0.02329,0.00339 -0.04659,0.00551 -0.06946,0.01102c-0.02745,0.00636 -0.05449,0.01653 -0.08152,0.02585c-0.02496,0.0089 -0.05033,0.01652 -0.07445,0.02754c-0.02287,0.01059 -0.0445,0.02415 -0.06655,0.03687c-0.0262,0.01525 -0.05199,0.03008 -0.07652,0.04788c-0.00624,0.00466 -0.01331,0.0072 -0.01955,0.01229c-0.01414,0.01101 -0.02496,0.02457 -0.03827,0.03644c-0.02204,0.01949 -0.04408,0.03898 -0.06405,0.06101c-0.01871,0.02034 -0.03493,0.04153 -0.05116,0.06314c-0.01622,0.02161 -0.03202,0.04322 -0.04658,0.0661c-0.01456,0.02373 -0.02703,0.04831 -0.03909,0.07288c-0.01207,0.02415 -0.0233,0.04873 -0.03286,0.07415c-0.00957,0.02628 -0.01705,0.05255 -0.02412,0.07967c-0.00666,0.02584 -0.01373,0.05169 -0.01789,0.07839c-0.00499,0.03008 -0.00707,0.06016 -0.00915,0.09067c-0.00125,0.01738 -0.00499,0.03433 -0.00499,0.05212v2.79322c0,0.4678 0.37266,0.84746 0.83183,0.84746c0.45917,0 0.83183,-0.37966 0.83183,-0.84746v-0.67373c1.77305,1.53772 4.01775,2.3928 6.40635,2.3928c5.47553,0 9.92999,-4.55466 9.92999,-10.15254c0,-0.4678 -0.37266,-0.84746 -0.83183,-0.84746z"/>
    </symbol>
    <symbol id="airplane" viewBox="0 0 20 20">
        <path d="M18.11234,3.56253l-11.66458,11.64184c-0.11002,0.1098 -0.17167,0.25844 -0.17167,0.41362v2.50549c0,0.17833 -0.06958,0.346 -0.19622,0.4724c-0.05371,0.05361 -0.1149,0.09701 -0.18128,0.12914l-1.67221,-2.78158c-0.04944,-0.08224 -0.11841,-0.15123 -0.20096,-0.20057l-2.78671,-1.6688c0.10834,-0.2228 0.33737,-0.37676 0.60181,-0.37676h2.51114c0.15533,0 0.30441,-0.06168 0.41427,-0.17133l11.66458,-11.642c0.46158,-0.46067 1.07529,-0.71439 1.72821,-0.71439h0.00077c0.36865,0 0.66864,0.2994 0.66864,0.66795c0,0.65165 -0.25421,1.26416 -0.71579,1.72499zM16.43288,16.05918c0.2028,0.86212 -0.04338,1.762 -0.62088,2.40223l-3.83416,-7.12232l2.70764,-2.70833zM1.50269,4.17154c0.64148,-0.57779 1.54312,-0.8239 2.40692,-0.6212l7.44278,1.74784l-2.71362,2.70833zM20,1.83693c0,-1.01289 -0.82565,-1.83693 -1.84113,-1.83693h-0.00015c-0.96588,0 -1.87393,0.3754 -2.55676,1.05705l-3.27499,3.26861l-8.14896,-1.91368c-1.55441,-0.36504 -3.19382,0.28052 -4.07959,1.60651c-0.06409,0.09609 -0.09842,0.20894 -0.09842,0.32438c0,0.21518 0.11841,0.41316 0.30823,0.51504l7.46536,4.01209l-3.6647,3.65756h-2.26837c-1.01487,0 -1.84052,0.82405 -1.84052,1.83769c0,0.20529 0.10803,0.39565 0.28458,0.50134l3.01239,1.80404l1.8074,3.00651c0.1059,0.17605 0.29663,0.28387 0.50247,0.28387c0.4921,0 0.95444,-0.19127 1.30173,-0.53819c0.3479,-0.34707 0.5394,-0.80851 0.5394,-1.29934v-2.26319l3.6647,-3.65771l4.01993,7.45096c0.10223,0.18945 0.3006,0.30763 0.51605,0.30763c0.11566,0 0.22873,-0.03427 0.32501,-0.09838c1.32859,-0.8839 1.97541,-2.52011 1.60981,-4.07149l-1.91742,-8.13307l3.27484,-3.26861c0.68298,-0.6818 1.05911,-1.58808 1.05911,-2.55269z"/>
    </symbol>
    <symbol id="shop" viewBox="0 0 20 20">
        <path d="M18.183 18.846H1.827a.674.674 0 0 1 0-1.346h16.356a.674.674 0 0 1 0 1.346zm-9.914-2.5H5.577v-3.654c0-.318.259-.577.577-.577h1.538c.318 0 .577.26.577.577zM3.093 9.997c.043-.002.086-.006.13-.01l.024-.003c.044-.005.088-.01.13-.017h.006a2.91 2.91 0 0 0 .126-.024l.023-.004a2.98 2.98 0 0 0 .123-.029l.024-.006c.042-.012.083-.023.123-.036l.01-.003a2.95 2.95 0 0 0 .115-.04l.021-.008c.039-.014.077-.03.115-.046l.024-.01a2.954 2.954 0 0 0 .231-.114l.019-.01a2.821 2.821 0 0 0 .34-.221l.015-.012c.033-.025.065-.05.096-.077l.02-.017c.032-.026.063-.053.093-.081l.013-.012a2.84 2.84 0 0 0 .084-.082l.013-.012.084-.09.018-.02a2.97 2.97 0 0 0 .08-.094l.011-.015c.025-.03.05-.062.073-.094l.01-.012c0-.002.002-.003.003-.005l.004.005.01.012c.023.032.047.063.072.094l.012.015.08.094.017.02.085.09.012.012a2.658 2.658 0 0 0 .306.269l.016.012.095.069.013.009a3.093 3.093 0 0 0 .232.143l.018.01c.035.02.07.038.106.055l.012.006c.037.019.075.036.113.053l.024.01a2.69 2.69 0 0 0 .252.094l.01.003c.04.013.08.024.122.036l.025.006.123.029.022.004c.042.009.084.017.126.023l.006.001c.043.007.087.012.13.017l.025.003c.043.004.086.008.13.01l.024.001a2.877 2.877 0 0 0 .272 0l.024-.001a2.995 2.995 0 0 0 .285-.03h.005a2.86 2.86 0 0 0 .126-.024l.023-.004.123-.029.024-.006c.042-.012.083-.023.123-.036l.01-.003.115-.04.021-.008c.039-.014.077-.03.115-.046l.024-.01a3.07 3.07 0 0 0 .114-.053l.011-.006a2.756 2.756 0 0 0 .23-.127l.023-.014.104-.067.013-.01.095-.068.015-.012c.033-.025.065-.05.096-.077l.02-.017c.032-.026.063-.053.093-.081l.013-.012c.029-.027.057-.054.084-.082l.013-.012.084-.09.017-.02c.028-.03.055-.062.08-.094l.012-.015c.025-.03.05-.062.073-.094l.01-.012c0-.002.002-.003.003-.005l.004.005.01.012c.023.032.047.063.072.094l.012.015.08.094.017.02.085.09.012.012.085.082.012.012c.03.028.062.055.093.081l.02.017.096.077.016.012.095.069.013.009.103.067.023.014a2.688 2.688 0 0 0 .23.127l.012.006c.037.019.075.036.114.053l.024.01c.037.016.076.032.114.046l.021.008a2.941 2.941 0 0 0 .248.079l.025.006.123.029.022.004c.042.009.084.017.126.023l.006.001c.043.007.087.012.13.017l.025.003c.043.004.086.008.13.01l.024.001a2.884 2.884 0 0 0 .272 0l.024-.001c.044-.002.086-.006.13-.01l.024-.003a2.83 2.83 0 0 0 .13-.017h.006a2.91 2.91 0 0 0 .126-.024l.023-.004.123-.029.024-.006c.042-.012.083-.023.123-.036l.01-.003a2.95 2.95 0 0 0 .115-.04l.021-.008a2.69 2.69 0 0 0 .115-.046l.024-.01c.038-.017.076-.034.114-.053l.012-.006c.035-.017.07-.036.105-.055l.019-.01a2.821 2.821 0 0 0 .34-.221l.015-.012c.033-.025.065-.05.096-.077l.02-.017c.032-.026.063-.053.093-.081l.013-.012a2.84 2.84 0 0 0 .084-.082l.013-.012.084-.09.018-.02a2.97 2.97 0 0 0 .08-.094l.011-.015c.025-.03.05-.062.073-.094l.01-.012c0-.002.002-.003.003-.005l.004.005.01.012c.023.032.047.063.072.094l.012.015.08.094.017.02.085.09.012.012a2.658 2.658 0 0 0 .19.175l.02.017.096.077.016.012a3.005 3.005 0 0 0 .34.221l.019.01a2.642 2.642 0 0 0 .23.114l.025.01a2.772 2.772 0 0 0 .251.094l.01.003c.04.013.081.024.122.036l.025.006.123.029.022.004c.042.009.084.017.126.023l.006.001c.043.007.087.012.13.017l.025.003c.043.004.086.008.13.01l.024.001a2.877 2.877 0 0 0 .184.003v6.355H9.428v-3.659c0-.955-.777-1.733-1.732-1.733h-1.54c-.955 0-1.732.778-1.732 1.733v3.66h-1.54V10a2.57 2.57 0 0 0 .185-.003l.024-.001zM1.216 7.5H4.65a1.959 1.959 0 0 1-.012.043l-.007.024a1.977 1.977 0 0 1-.026.078l-.005.014a2.07 2.07 0 0 1-.024.063l-.011.026a2.092 2.092 0 0 1-.06.125l-.013.026-.028.051-.012.02a2 2 0 0 1-.043.069l-.006.009c-.013.02-.026.039-.04.057l-.016.022a1.825 1.825 0 0 1-.144.17l-.016.017-.057.056-.006.006a1.777 1.777 0 0 1-.054.048l-.02.016a1.818 1.818 0 0 1-.108.083l-.024.017-.047.031-.02.013a1.635 1.635 0 0 1-.07.041l-.005.003a1.679 1.679 0 0 1-.066.034l-.023.012a1.36 1.36 0 0 1-.05.023l-.027.012a2.367 2.367 0 0 1-.13.048l-.024.008a1.652 1.652 0 0 1-.078.023l-.003.001c-.025.007-.05.013-.077.018l-.026.005a1.677 1.677 0 0 1-.227.03l-.027.002a1.556 1.556 0 0 1-.192-.002h-.02a1.75 1.75 0 0 1-.224-.032h-.003A1.81 1.81 0 0 1 1.216 7.5zm2.345-4.104a.579.579 0 0 0 .093-.315V1.73c0-.318.259-.577.577-.577h11.538c.318 0 .577.26.577.578V3.08c0 .111.032.22.093.315l1.92 2.96H1.64zm5.78 4.17a1.975 1.975 0 0 1-.025.079l-.006.014a1.498 1.498 0 0 1-.024.063l-.01.026a1.593 1.593 0 0 1-.06.125l-.013.026-.029.051-.011.02a1.78 1.78 0 0 1-.043.069l-.007.009c-.013.02-.026.039-.04.057l-.015.022-.034.043-.018.023a1.747 1.747 0 0 1-.166.177l-.006.006a1.777 1.777 0 0 1-.054.048l-.02.016a1.539 1.539 0 0 1-.108.083l-.023.017-.048.031-.02.013a1.85 1.85 0 0 1-.069.041c-.002 0-.004.002-.005.003a1.792 1.792 0 0 1-.066.034l-.023.012a1.639 1.639 0 0 1-.05.023l-.028.012a2.733 2.733 0 0 1-.13.048l-.023.008a1.767 1.767 0 0 1-.078.023l-.004.001c-.025.007-.05.013-.076.018l-.026.005a1.691 1.691 0 0 1-.14.022l-.03.004a1.79 1.79 0 0 1-.057.004l-.027.002a1.739 1.739 0 0 1-.17 0l-.026-.002a1.779 1.779 0 0 1-.142-.015l-.03-.004a1.673 1.673 0 0 1-.055-.01l-.027-.006a1.79 1.79 0 0 1-.076-.018H7.2a1.652 1.652 0 0 1-.078-.024l-.024-.008a1.696 1.696 0 0 1-.13-.048l-.027-.012a1.368 1.368 0 0 1-.14-.07l-.004-.002a1.642 1.642 0 0 1-.07-.041l-.02-.013a1.962 1.962 0 0 1-.047-.031l-.024-.017a2.181 2.181 0 0 1-.108-.083l-.02-.016a1.595 1.595 0 0 1-.054-.048l-.006-.006a1.814 1.814 0 0 1-.057-.056l-.016-.017a1.687 1.687 0 0 1-.092-.104l-.019-.023a1.825 1.825 0 0 1-.033-.043l-.016-.022a1.916 1.916 0 0 1-.04-.057l-.006-.01a2 2 0 0 1-.043-.068l-.012-.02a1.905 1.905 0 0 1-.028-.051l-.014-.026a1.713 1.713 0 0 1-.059-.125l-.01-.026a2.07 2.07 0 0 1-.025-.063l-.005-.014a1.945 1.945 0 0 1-.026-.078l-.007-.024a1.754 1.754 0 0 1-.012-.043H9.36a1.959 1.959 0 0 1-.012.043l-.007.024zm4.712 0a1.977 1.977 0 0 1-.026.079l-.005.014a2.07 2.07 0 0 1-.024.063l-.011.026a2.942 2.942 0 0 1-.022.05l-.013.027a1.713 1.713 0 0 1-.024.048l-.014.026-.028.051-.012.02a2 2 0 0 1-.043.069l-.006.009c-.013.02-.026.039-.04.057l-.016.022-.033.043-.019.023a2.261 2.261 0 0 1-.092.104l-.016.017c-.018.02-.038.038-.057.056l-.006.006a1.777 1.777 0 0 1-.054.048l-.02.016a1.818 1.818 0 0 1-.108.083l-.024.017-.047.031-.02.013a1.635 1.635 0 0 1-.07.041l-.005.003a1.679 1.679 0 0 1-.066.034l-.023.012a1.36 1.36 0 0 1-.05.023l-.027.012a2.367 2.367 0 0 1-.13.048l-.024.008a1.652 1.652 0 0 1-.078.023l-.003.001c-.025.007-.05.013-.076.018l-.027.005a1.677 1.677 0 0 1-.227.03l-.027.002a1.737 1.737 0 0 1-.169 0l-.027-.002a1.79 1.79 0 0 1-.057-.004l-.03-.004a2 2 0 0 1-.054-.007l-.03-.004a1.682 1.682 0 0 1-.056-.01l-.026-.006a1.79 1.79 0 0 1-.158-.042l-.024-.008a1.572 1.572 0 0 1-.13-.048l-.027-.012a1.65 1.65 0 0 1-.139-.07l-.005-.002a1.866 1.866 0 0 1-.07-.041l-.02-.013a1.991 1.991 0 0 1-.047-.031l-.023-.017a2.181 2.181 0 0 1-.043-.03l-.023-.018a1.569 1.569 0 0 1-.043-.035l-.02-.016a1.595 1.595 0 0 1-.053-.048l-.006-.006a2.002 2.002 0 0 1-.058-.056l-.016-.017a1.712 1.712 0 0 1-.039-.042l-.019-.022a1.722 1.722 0 0 1-.034-.04l-.018-.023a1.831 1.831 0 0 1-.034-.043l-.015-.022a1.485 1.485 0 0 1-.04-.057l-.007-.01a2 2 0 0 1-.043-.068l-.011-.02a1.911 1.911 0 0 1-.101-.202l-.011-.026a1.485 1.485 0 0 1-.024-.063l-.006-.014a1.959 1.959 0 0 1-.025-.078l-.007-.024a1.272 1.272 0 0 1-.012-.043h3.432a1.959 1.959 0 0 1-.012.043l-.007.024zm3.369 1.243l-.003.001c-.074.015-.15.026-.224.031l-.02.001a1.815 1.815 0 0 1-.192.002l-.027-.002a1.415 1.415 0 0 1-.058-.004l-.03-.004a2.071 2.071 0 0 1-.14-.021l-.025-.006a1.58 1.58 0 0 1-.077-.018h-.003a1.652 1.652 0 0 1-.078-.023l-.024-.009a1.289 1.289 0 0 1-.054-.018l-.027-.01a1.972 1.972 0 0 1-.126-.055l-.023-.011a1.925 1.925 0 0 1-.066-.035l-.005-.003a1.83 1.83 0 0 1-.07-.04l-.02-.014-.047-.031a.794.794 0 0 1-.066-.048l-.023-.017a2.339 2.339 0 0 1-.043-.035l-.02-.016a2.006 2.006 0 0 1-.054-.048l-.006-.006a1.81 1.81 0 0 1-.057-.056l-.016-.017a2.029 2.029 0 0 1-.04-.042l-.018-.022a2.959 2.959 0 0 1-.086-.106l-.016-.022a2.138 2.138 0 0 1-.04-.057l-.006-.01a1.87 1.87 0 0 1-.043-.068l-.012-.02a1.52 1.52 0 0 1-.028-.051l-.014-.026a1.373 1.373 0 0 1-.023-.048 1.819 1.819 0 0 1-.035-.078l-.012-.025a2.426 2.426 0 0 1-.024-.063l-.005-.014a1.943 1.943 0 0 1-.026-.078l-.007-.024a2.238 2.238 0 0 1-.012-.043h3.433a1.81 1.81 0 0 1-1.362 1.31zm.847.928A2.987 2.987 0 0 0 20 7.02l-.001-.062a.577.577 0 0 0-.094-.35v-.002l-1.341-2.062-.008-.013L17.5 2.906V1.73C17.5.776 16.724 0 15.77 0H4.23C3.277 0 2.5.776 2.5 1.73v1.176l-2.404 3.7H.095A.575.575 0 0 0 0 6.948L0 7.02c0 1.209.712 2.25 1.73 2.718v6.612A1.83 1.83 0 0 0 0 18.173C0 19.18.82 20 1.827 20h16.346C19.18 20 20 19.18 20 18.173a1.83 1.83 0 0 0-1.73-1.824z"/>
        <path d="M13.857 12.114a.581.581 0 0 1 0 1.164h-1.544a.581.581 0 0 1 0-1.164zm-.008 2.307c.955 0 1.731-.776 1.731-1.73 0-.955-.776-1.731-1.73-1.731h-1.54c-.954 0-1.73.776-1.73 1.73 0 .955.776 1.731 1.73 1.731z"/>
        <path d="M15.574 3.077a.577.577 0 0 0-.577-.577h-10a.577.577 0 0 0 0 1.154h10a.577.577 0 0 0 .577-.577z"/>
    </symbol>
    <symbol id="truck" viewBox="0 0 22 16">
        <path d="M4.995 15.177c-.733 0-1.328-.75-1.328-1.672 0-.922.595-1.672 1.328-1.672.733 0 1.328.75 1.328 1.672 0 .922-.595 1.672-1.328 1.672zM5 11c-1.103 0-2 1.121-2 2.5S3.897 16 5 16s2-1.121 2-2.5S6.103 11 5 11z"/>
        <path d="M17.995 15.177c-.733 0-1.328-.75-1.328-1.672 0-.922.595-1.672 1.328-1.672.733 0 1.328.75 1.328 1.672 0 .922-.595 1.672-1.328 1.672zM18 11c-1.103 0-2 1.121-2 2.5s.897 2.5 2 2.5 2-1.121 2-2.5-.897-2.5-2-2.5z"/>
        <path d="M21.942 8.355L18.67 3.17a.362.362 0 0 0-.305-.17h-4a.367.367 0 0 0-.364.37v9.26c0 .204.163.37.364.37h1.454v-.74h-1.09V3.74h3.437l3.108 4.924v3.595h-1.818V13h2.181a.367.367 0 0 0 .364-.37V8.556c0-.071-.02-.141-.058-.2z"/>
        <path d="M14.875 8.273V5.727h3.5V5h-3.938c-.241 0-.437.163-.437.364v3.272c0 .201.196.364.437.364H21v-.727h-6.125z"/>
        <path d="M14.625 0H.375A.379.379 0 0 0 0 .382v12.236c0 .211.168.382.375.382h3v-.765H.75V.765h13.5v11.47H7.125V13h7.5c.207 0 .375-.17.375-.382V.382A.379.379 0 0 0 14.625 0z"/>
    </symbol>
    <symbol id="warehouse" viewBox="0 0 24 23">
        <path d="M22.723 22.233h-1.15V8.817a.383.383 0 0 0-.382-.384H2.799a.383.383 0 0 0-.383.384v13.416h-1.15V6.743L11.99.824l10.734 6.295zm.588-15.664L12.194.053a.383.383 0 0 0-.38-.005L.699 6.18a.383.383 0 0 0-.198.336v16.1c0 .212.172.383.383.383H2.8a.383.383 0 0 0 .383-.383V9.2h17.634v13.417c0 .212.171.383.383.383h1.917a.383.383 0 0 0 .383-.383V6.9a.382.382 0 0 0-.19-.33z"/>
        <path d="M16.214 22.296v-3.582h3.582v3.582zM20.143 18h-4.286a.357.357 0 0 0-.357.357v4.286c0 .197.16.357.357.357h4.286c.197 0 .357-.16.357-.357v-4.286a.357.357 0 0 0-.357-.357z"/>
        <path d="M14.796 22.296h-3.582v-3.582h3.582zM15.143 18h-4.286a.357.357 0 0 0-.357.357v4.286c0 .197.16.357.357.357h4.286c.197 0 .357-.16.357-.357v-4.286a.357.357 0 0 0-.357-.357z"/>
        <path d="M16.214 17.296v-3.582h3.582v3.582zM20.143 13h-4.286a.357.357 0 0 0-.357.357v4.286c0 .197.16.357.357.357h4.286c.197 0 .357-.16.357-.357v-4.286a.357.357 0 0 0-.357-.357z"/>
        <path d="M3.5 10h18v1h-18z"/>
        <path d="M13.677 6.323h-3.344v-.656h3.344zM14.083 5H9.917c-.23 0-.417.15-.417.333v1.334c0 .184.187.333.417.333h4.166c.23 0 .417-.15.417-.333V5.333c0-.184-.186-.333-.417-.333z"/>
    </symbol>
    <symbol id="file" viewBox="0 0 15 17">
        <path d="M13.1782,12.00452c-0.17773,0 -0.32181,0.16207 -0.32181,0.362v3.54751c0,0.1996 -0.14436,0.36199 -0.3218,0.36199h-11.06918c-0.17744,0 -0.3218,-0.16239 -0.3218,-0.36199v-6.55204c0,-0.19993 -0.14408,-0.36199 -0.32181,-0.36199c-0.17773,0 -0.3218,0.16206 -0.3218,0.36199v6.55204c0,0.5988 0.43308,1.08597 0.96541,1.08597h11.06918c0.53233,0 0.96541,-0.48717 0.96541,-1.08597v-3.54751c0,-0.19993 -0.14407,-0.362 -0.3218,-0.362z"/>
        <path d="M10.16167,3.42339c-0.16943,0 -0.30728,-0.15672 -0.30728,-0.34936v-1.88119l1.96182,2.23055zM13.74433,6.53829c-0.26261,-0.3001 -0.56832,-0.52121 -0.89436,-0.66491v-2.10062c-0.00025,-0.00004 -0.00049,-0.00007 -0.00073,-0.00007c-0.00003,-0.09087 -0.03036,-0.18017 -0.08881,-0.24697l-2.99561,-3.42336c-0.05845,-0.06679 -0.13665,-0.10142 -0.21613,-0.10145c0,-0.00032 -0.00003,-0.0006 -0.00003,-0.00091h-8.13153c-0.5057,0 -0.91713,0.47018 -0.91713,1.04809v6.50982c0,0.19296 0.13687,0.34937 0.30571,0.34937c0.16885,0 0.30571,-0.15641 0.30571,-0.34937v-6.50985c0,-0.19264 0.13714,-0.34937 0.30571,-0.34937h7.82581v2.37534c0,0.57792 0.41143,1.04809 0.91714,1.04809h2.07844v1.57612c-0.76437,-0.10861 -1.56329,0.17084 -2.14888,0.84005l-4.35703,4.97915c-0.11938,0.13643 -0.11938,0.35764 0,0.49411c0.11938,0.13642 0.31296,0.13642 0.43237,0l4.35703,-4.97919c0.76917,-0.879 2.02078,-0.87903 2.78998,0c0.7692,0.87904 0.7692,2.30934 0,3.18834l-4.08632,4.66982c-0.47966,0.54812 -1.26011,0.54816 -1.73974,0c-0.23234,-0.26552 -0.36031,-0.61855 -0.36031,-0.99408c0,-0.3755 0.12797,-0.72857 0.36031,-0.99408l4.10619,-4.69253c0.09049,-0.10341 0.21082,-0.16039 0.33879,-0.16039c0.12797,0 0.2483,0.05694 0.33879,0.16039c0.09049,0.10341 0.14032,0.24092 0.14032,0.38716c0,0.14625 -0.04983,0.28376 -0.14035,0.38717l-3.70073,4.22913c-0.11938,0.13643 -0.11938,0.35765 0,0.49411c0.11938,0.13639 0.31296,0.13639 0.43237,0l3.7007,-4.22917c0.20598,-0.23536 0.31943,-0.54836 0.31943,-0.88124c0,-0.33287 -0.11345,-0.64587 -0.3194,-0.88123c-0.20596,-0.23541 -0.47985,-0.36505 -0.77113,-0.36505c-0.29128,0 -0.56514,0.12964 -0.77113,0.36501l-4.10619,4.69253c-0.71802,0.82059 -0.71802,2.15576 0,2.97634c0.35906,0.41033 0.83056,0.61548 1.30221,0.61541c0.47153,-0.00003 0.94324,-0.20518 1.30221,-0.61541l4.08632,-4.66982c1.00756,-1.15143 1.00756,-3.02504 0,-4.17648z"/>
    </symbol>
</svg>
