<svg xmlns="http://www.w3.org/2000/svg" width="25" height="21" viewBox="0 0 25 21"><g opacity=".3"><path fill="#1e4bd2" d="M24.184 20.208H.806V7.132h23.378zM.806 3.962h23.378V6.34H.806zm.807-1.188h4.839v.396h-4.84zm.806-1.585a.4.4 0 01.404-.397h2.419a.4.4 0 01.403.397v.792H2.42zm16.13 1.585h4.838v.396h-4.839zm.806-1.585a.4.4 0 01.403-.397h2.42a.4.4 0 01.403.397v.792h-3.226zm5.242 1.98h-.403v-.792a.4.4 0 00-.404-.396h-.403V1.19A1.2 1.2 0 0022.177 0h-2.419a1.2 1.2 0 00-1.21 1.189v.792h-.403a.4.4 0 00-.403.396v.793H7.258v-.793a.4.4 0 00-.403-.396h-.403V1.19A1.2 1.2 0 005.242 0h-2.42a1.2 1.2 0 00-1.21 1.189v.792H1.21a.4.4 0 00-.404.396v.793H.403A.4.4 0 000 3.566v17.038A.4.4 0 00.403 21h24.194a.4.4 0 00.403-.396V3.566a.4.4 0 00-.403-.396z" opacity=".3"/><path fill="#1e4bd2" d="M12.375 9.65v3.85c0 .217.168.393.375.393h1.16l-2.285 3.457V13.5a.384.384 0 00-.375-.393h-1.16zm-1.5 4.243v4.714a.39.39 0 00.263.375.368.368 0 00.42-.151l3.375-5.108a.408.408 0 00.024-.405.373.373 0 00-.332-.21h-1.5V8.392a.391.391 0 00-.263-.375.366.366 0 00-.42.151l-3.375 5.107a.408.408 0 00-.024.406c.065.13.192.21.332.21zM2.833 13.087h.836a.418.418 0 00.418-.418v-.836h.836v.836c0 .231.187.418.418.418h.836v.836H5.34a.418.418 0 00-.418.418v.836h-.836v-.836a.418.418 0 00-.418-.418h-.836zm-.416 1.663h.833v.833c0 .23.187.417.417.417h1.666c.23 0 .417-.187.417-.417v-.833h.833c.23 0 .417-.187.417-.417v-1.666a.417.417 0 00-.417-.417H5.75v-.833A.417.417 0 005.333 11H3.667a.417.417 0 00-.417.417v.833h-.833a.417.417 0 00-.417.417v1.666c0 .23.187.417.417.417zM18.833 12.667h3.344v.656h-3.344zM18.417 14h4.166c.23 0 .417-.15.417-.333v-1.334c0-.184-.187-.333-.417-.333h-4.166c-.23 0-.417.15-.417.333v1.334c0 .184.187.333.417.333z" opacity=".3"/></g></svg>