<svg xmlns="http://www.w3.org/2000/svg" width="22" height="22" viewBox="0 0 22 22"><g opacity=".3"><path fill="#1e4bd2" d="M14.787 6.735a9.79 9.79 0 0 0 .093-1.313c0-.032-.004-.064-.004-.096h2.249c0 .032-.004.064-.004.096 0 .439.03.877.089 1.313zM16.472.79c.49.157.859.544.975 1.023a1.4 1.4 0 0 1 .006.601.343.343 0 0 0 .007.167l-.206 1.173a9.35 9.35 0 0 0-.109.85h-2.301a9.274 9.274 0 0 0-.108-.848l-.207-1.174a.335.335 0 0 0 .008-.163 1.516 1.516 0 0 1-.03-.288c0-.42.196-.82.537-1.089A1.55 1.55 0 0 1 16.472.79zM15.62.03c-1.177.193-1.988 1.229-1.843 2.355a.333.333 0 0 0-.012.162L14 3.88a9.128 9.128 0 0 1-.126 3.706 8.645 8.645 0 0 1-.374 1.159l.697.254c.165-.408.3-.827.404-1.253.023-.097.041-.195.062-.293h2.67c.11.527.268 1.044.47 1.546l.697-.255a8.809 8.809 0 0 1-.632-3.323c0-.516.044-1.031.132-1.54l.236-1.334a.336.336 0 0 0-.011-.161c.03-.242.017-.486-.038-.724-.26-1.107-1.39-1.824-2.568-1.632zM2.226 10.287c.355-.72.622-1.484.794-2.275.022-.1.038-.202.057-.303H5.56a10.1 10.1 0 0 0 .85 2.577c.118.238.222.482.313.733a13.735 13.735 0 0 0-.67 4.385 13.707 13.707 0 0 0 .67 4.376 6.494 6.494 0 0 1-.753 1.487H2.668c-.91-1.288-1.47-3.511-1.47-5.863a12.02 12.02 0 0 1 1.028-5.117zm1.211-9.202A1.334 1.334 0 0 1 4.77.824c.458.162.802.564.91 1.06.043.204.045.416.006.622a.393.393 0 0 0 .007.173L5.5 3.894c-.046.289-.079.584-.101.881H3.25a10.616 10.616 0 0 0-.101-.879l-.193-1.215a.385.385 0 0 0 .008-.17 1.745 1.745 0 0 1-.03-.298c0-.436.185-.85.503-1.128zm2.005 5.892H3.196c.056-.454.085-.91.086-1.367 0-.033-.004-.066-.004-.1h2.083c0 .034-.004.067-.004.1 0 .457.03.913.085 1.367zm3.552-5.892a1.334 1.334 0 0 1 1.333-.262c.458.163.802.564.91 1.06.043.205.045.417.006.623a.393.393 0 0 0 .007.173l-.193 1.215c-.046.289-.079.584-.1.881h-2.15a10.616 10.616 0 0 0-.1-.879l-.194-1.215a.385.385 0 0 0 .008-.17 1.737 1.737 0 0 1-.029-.298c0-.436.184-.85.502-1.128zm-.24 5.892c.056-.454.085-.91.086-1.367 0-.033-.003-.066-.003-.1h2.092c0 .034-.004.067-.004.1.001.457.03.913.086 1.367zM2.5 22h3.648a.34.34 0 0 0 .27-.136 6.22 6.22 0 0 0 .685-1.16c.188.412.418.801.686 1.16a.34.34 0 0 0 .27.136h3.647v-.733H8.23a6.6 6.6 0 0 1-.8-1.606 12.792 12.792 0 0 1-.673-4.257c-.018-1.453.21-2.899.674-4.268.101-.29.22-.575.357-.85a9.878 9.878 0 0 0 .794-2.274c.022-.1.039-.202.058-.303h2.487c.153.817.405 1.61.749 2.36l.625-.322a9.893 9.893 0 0 1-.88-4.137c0-.533.04-1.066.123-1.592l.22-1.378a.385.385 0 0 0-.01-.167 2.4 2.4 0 0 0-.035-.747C11.678.58 10.625-.167 9.527.032c-1.098.2-1.853 1.275-1.714 2.44a.38.38 0 0 0-.01.168l.218 1.378a10.433 10.433 0 0 1-.117 3.827 9.156 9.156 0 0 1-.734 2.101c-.025.05-.044.098-.068.147-.023-.05-.042-.098-.067-.147A9.816 9.816 0 0 1 6.06 5.61c0-.533.041-1.066.124-1.592l.219-1.378a.385.385 0 0 0-.01-.167 2.37 2.37 0 0 0-.035-.747C6.12.58 5.067-.167 3.97.032c-1.098.2-1.852 1.275-1.714 2.44a.38.38 0 0 0-.01.168l.219 1.378a10.433 10.433 0 0 1-.117 3.827 9.152 9.152 0 0 1-.734 2.1 12.599 12.599 0 0 0-1.11 5.46c0 2.635.646 5.05 1.728 6.459A.341.341 0 0 0 2.5 22z" opacity=".3"/><path fill="#1e4bd2" d="M2.13 15.5a14.016 14.016 0 0 1 .37-3.287L1.896 12a14.927 14.927 0 0 0-.396 3.5 14.651 14.651 0 0 0 .395 3.5l.604-.215a13.704 13.704 0 0 1-.369-3.286zM7.896 12a14.927 14.927 0 0 0-.396 3.5 14.6 14.6 0 0 0 .395 3.5l.604-.215a13.704 13.704 0 0 1-.369-3.286 14.016 14.016 0 0 1 .37-3.286zM15.504 9.765c2.903.043 5.23 2.618 5.21 5.766-.02 3.148-2.38 5.689-5.283 5.689-2.903 0-5.262-2.541-5.282-5.689-.02-3.148 2.306-5.723 5.21-5.766zm-4.359 1.263c-1.648 1.885-2.104 4.652-1.158 7.037.946 2.386 3.112 3.933 5.509 3.935.054 0 .11 0 .164-.002 2.715-.079 5.042-2.123 5.674-4.984.633-2.861-.587-5.826-2.974-7.228-2.388-1.402-5.346-.893-7.215 1.242z" opacity=".3"/><path fill="#1e4bd2" d="M11.247 14.983c-.029-.954.427-1.872 1.253-2.527L11.988 12c-.981.777-1.522 1.868-1.486 3zM14.495 13.667a.328.328 0 1 1 0 .656.328.328 0 0 1 0-.656zM13.5 14a1 1 0 1 0 2 0 1 1 0 0 0-2 0zM17.495 13.667a.328.328 0 1 1 0 .656.328.328 0 0 1 0-.656zM17.5 15a1 1 0 1 0 0-2 1 1 0 0 0 0 2zM16.495 18.667a.328.328 0 1 1 0 .656.328.328 0 0 1 0-.656zM15.5 19a1 1 0 1 0 2 0 1 1 0 0 0-2 0z" opacity=".3"/></g></svg>