<svg xmlns="http://www.w3.org/2000/svg" width="20" height="20" viewBox="0 0 20 20"><path fill="#1e4bd2" d="M10.302 19.24V9.244l2.055-.978a.291.291 0 0 0 .138-.39.299.299 0 0 0-.397-.137l-2.093.996-.824-.392a.299.299 0 0 0-.396.137.291.291 0 0 0 .138.39l.785.374v9.996l-8.614-4.1V5.143l6.56 3.122a.299.299 0 0 0 .396-.136.291.291 0 0 0-.138-.391L1.48 4.677l2.951-1.405 8.924 4.248.005.005v3.516c0 .1.052.195.139.248a.3.3 0 0 0 .287.016l.16-.077v.346l1.618-.775v-.34l.444-.212a.293.293 0 0 0 .168-.264V6.448l2.74-1.304v9.995zm5.262-11.51v2.728l-1.618.77V8.506zM6.866 2.123l8.499 4.061-1.74.832-8.497-4.06zM10 .618l8.52 4.059-2.47 1.176a.294.294 0 0 0-.05-.031l-8.462-4.03zm9.332 3.795L10.13.029a.3.3 0 0 0-.258 0L.668 4.413a.293.293 0 0 0-.168.264v10.646c0 .113.065.215.168.264l9.203 4.384a.3.3 0 0 0 .258 0l9.203-4.384a.293.293 0 0 0 .168-.264V4.677a.293.293 0 0 0-.168-.264z" opacity=".3"/></svg>