<svg xmlns="http://www.w3.org/2000/svg" width="28" height="11" viewBox="0 0 28 11"><g opacity=".3"><path fill="#1e4bd2" d="M15.5 4h-1v1h1z" opacity=".3"/><path fill="#1e4bd2" d="M1.4 4.125h1.35v.916H1.4v1.88a.82.82 0 00.51.765l1.29.528c0-.042.005-.084.008-.126.003-.042.004-.092.008-.138.005-.046.014-.091.02-.137.008-.046.014-.092.022-.133l.034-.132c.012-.044.021-.088.035-.13.013-.043.03-.084.044-.125l.046-.126c.015-.042.036-.08.055-.118.02-.04.038-.082.059-.121.021-.04.045-.073.065-.11a1.428 1.428 0 01.07-.116c.026-.037.05-.067.075-.1.025-.035.053-.075.081-.11.03-.035.056-.063.084-.092.028-.028.06-.067.09-.1.031-.032.062-.057.093-.085.03-.029.064-.062.098-.092s.07-.053.103-.079c.035-.026.069-.054.105-.078.036-.024.076-.046.115-.072a1.306 1.306 0 01.107-.065c.036-.02.081-.04.123-.06.041-.02.074-.039.112-.055.038-.017.09-.034.135-.05.045-.017.074-.03.112-.042.052-.016.104-.028.157-.041.034-.008.067-.02.101-.027.056-.011.112-.017.169-.026.033-.004.065-.012.098-.015.09-.01.18-.014.275-.014 1.49.001 2.698 1.232 2.7 2.75h3.6V3.666H7.25a.443.443 0 01-.318-.134L5.765 2.343c-.49.238-.966.503-1.427.795a.446.446 0 01-.174.065L1.4 3.605zM4.136 8.61a1.801 1.801 0 002.124 1.425c.974-.202 1.603-1.168 1.404-2.157A1.801 1.801 0 005.54 6.453 1.821 1.821 0 004.1 8.244c0 .123.012.246.036.366zM12.2.917h-.255A13.986 13.986 0 006.651 1.95l.785.8H12.2zm.9 1.833h6.335l-.087-.048A14.19 14.19 0 0013.1.937zm0 5.5h7.2c0-1.52 1.21-2.75 2.7-2.75s2.7 1.23 2.7 2.75h.9V5.985c0-.42-.221-.807-.58-1.016a9.593 9.593 0 00-4.82-1.303h-8.1zm8.137.36a1.8 1.8 0 002.123 1.425c.974-.202 1.603-1.168 1.404-2.157-.2-.99-1.15-1.628-2.124-1.425a1.821 1.821 0 00-1.403 2.157zM.887 2.754l3.056-.444a15.33 15.33 0 011.732-.935A14.922 14.922 0 0111.945 0h.53a15.078 15.078 0 017.305 1.897l1.543.857c1.806.02 3.577.51 5.146 1.42A2.1 2.1 0 0127.5 5.987v2.721a.454.454 0 01-.45.459h-1.511c-.492 1.428-2.026 2.18-3.429 1.679a2.715 2.715 0 01-1.648-1.68H8.439c-.492 1.429-2.027 2.18-3.429 1.68a2.716 2.716 0 01-1.648-1.68H3.2a.445.445 0 01-.167-.032l-1.458-.595A1.733 1.733 0 01.5 6.92V3.208a.456.456 0 01.386-.454z" opacity=".3"/></g></svg>