<svg xmlns="http://www.w3.org/2000/svg" width="24" height="23" viewBox="0 0 24 23"><g opacity=".3"><path fill="#1e4bd2" d="M.5 0l1.838 21h6.1v-.75H3.022L1.314.75h10.372l-.824 9.419.743.065L12.5 0z" opacity=".3"/><path fill="#1e4bd2" d="M2.5 15h6v1h-6zM10.492 2.266c-.043-.18-.245-.297-.451-.259a19.443 19.443 0 01-7.081 0c-.206-.038-.408.077-.452.258-.043.18.088.357.294.395 1.22.227 2.452.34 3.687.34 1.235 0 2.474-.113 3.708-.34.206-.037.338-.214.295-.394zM9.232 22.2V11.8h13.536v10.4zM8.5 11v12h15V11z" opacity=".3"/><path fill="#1e4bd2" d="M16 20.222a2.725 2.725 0 01-2.722-2.722A2.725 2.725 0 0116 14.778a2.725 2.725 0 012.722 2.722A2.725 2.725 0 0116 20.222zM16 14c-1.93 0-3.5 1.57-3.5 3.5S14.07 21 16 21s3.5-1.57 3.5-3.5S17.93 14 16 14zM20.25 9.34c-.467-.347-.907-.675-.98-1.08a.326.326 0 00-.272-.254.36.36 0 00-.36.141c-.592.87-2.197.828-3.749.788-1.505-.039-3.06-.079-3.865.724-.459.459-.614 1.118-.475 2.015.026.168.2.285.388.262.188-.024.32-.179.293-.347-.11-.707-.01-1.204.306-1.52.591-.59 1.985-.554 3.333-.519 1.497.039 3.037.078 3.952-.648.24.352.619.635.99.911.812.606 1.253.986.846 1.746-.082.154-.01.337.162.41a.367.367 0 00.148.031.35.35 0 00.31-.175C21.935 10.595 21 9.9 20.25 9.34z" opacity=".3"/></g></svg>