<svg xmlns="http://www.w3.org/2000/svg" width="25" height="16" viewBox="0 0 25 16"><path fill="#1e4bd2" d="M21.571 5.416h-2.743V7.84h4.485zm-1.117-1.55h-3.67v8.852h.916c.16-1.359 1.337-2.384 2.735-2.384 1.397 0 2.573 1.025 2.734 2.384h.919V8.923l-.138-.193h-5.598a.453.453 0 01-.458-.449V4.958a.454.454 0 01.458-.45h2.57zM.926.899v8.048h12.44a.454.454 0 01.458.449.454.454 0 01-.458.449H.926v2.874h2.442c.16-1.359 1.335-2.384 2.73-2.384 1.396 0 2.57 1.025 2.732 2.384h7.07V2.94h-3.308a.454.454 0 01-.459-.449.454.454 0 01.459-.449H15.9V.898zm5.178 14.065c1.01 0 1.828-.804 1.828-1.796s-.819-1.796-1.828-1.796c-1.01 0-1.828.804-1.828 1.796 0 .996.814 1.806 1.828 1.819zm14.35 0c1.01 0 1.829-.804 1.829-1.796s-.819-1.796-1.828-1.796c-1.01 0-1.828.804-1.828 1.796 0 .996.814 1.806 1.828 1.819zm2.717-1.347c-.16 1.358-1.335 2.383-2.73 2.383-1.396 0-2.57-1.025-2.731-2.384H8.82C8.66 14.975 7.485 16 6.09 16c-1.396 0-2.57-1.025-2.731-2.384h-2.9A.454.454 0 010 13.167V.449A.454.454 0 01.458 0h15.9a.454.454 0 01.458.45v2.518h3.881c.15 0 .29.073.376.194l2.506 3.516.981 1.347.358.498A.442.442 0 0125 8.78v4.375a.444.444 0 01-.128.324.462.462 0 01-.326.138z" opacity=".3"/></svg>