<svg xmlns="http://www.w3.org/2000/svg" width="31" height="36" viewBox="0 0 31 36"><defs><clipPath id="a"><path d="M27.481 13.287c0 3.977-1.807 7.545-4.67 9.98l7.976 10.952c.371.51.245 1.216-.283 1.575a1.194 1.194 0 01-1.628-.273L20.93 24.61a14.026 14.026 0 01-7.188 1.96C6.152 26.571 0 20.624 0 13.287 0 5.949 6.152 0 13.742 0 21.33 0 27.48 5.95 27.48 13.287zm-2.347 0c0-6.09-5.103-11.027-11.397-11.027-6.297 0-11.4 4.937-11.4 11.027 0 6.09 5.103 11.025 11.4 11.025 6.294 0 11.397-4.936 11.397-11.025z"/></clipPath></defs><g opacity=".5"><g clip-path="url(#a)" opacity=".5"><path fill="#8f9399" d="M-10.33-6h49.6v48h-49.6z" opacity=".5"/></g></g><path fill="#d8d8d8" d="M9.5 13a1.5 1.5 0 100-3 1.5 1.5 0 000 3zM17.5 13a1.5 1.5 0 100-3 1.5 1.5 0 000 3z"/><path fill="none" stroke="#d8d8d8" stroke-linecap="square" stroke-miterlimit="50" d="M8 17.499v0s3.495-.998 5.25-.998 5.25.998 5.25.998v0"/></svg>