<svg xmlns="http://www.w3.org/2000/svg" width="19" height="20" viewBox="0 0 19 20"><path fill="#fff" d="M3.296 8h7.408c.163 0 .296-.224.296-.5s-.133-.5-.296-.5H3.296C3.133 7 3 7.224 3 7.5s.133.5.296.5zM3.333 6h3.334C6.85 6 7 5.776 7 5.5S6.85 5 6.667 5H3.333C3.15 5 3 5.224 3 5.5s.15.5.333.5zM3.296 11h7.408c.163 0 .296-.224.296-.5s-.133-.5-.296-.5H3.296c-.163 0-.296.224-.296.5s.133.5.296.5zM8.684 13H3.316c-.175 0-.316.224-.316.5s.141.5.316.5h5.368c.175 0 .316-.224.316-.5s-.141-.5-.316-.5zM7.688 15H3.313c-.173 0-.313.224-.313.5s.14.5.313.5h4.374c.173 0 .313-.224.313-.5s-.14-.5-.313-.5z"/><path fill="#fff" d="M14.667 19.333A3.671 3.671 0 0111 15.667 3.671 3.671 0 0114.667 12a3.636 3.636 0 01.611.055l.148.025a3.673 3.673 0 012.907 3.587 3.671 3.671 0 01-3.666 3.666zm-2.308-.01H.667V.667h9.666V5.33H15v6.011a4.337 4.337 0 00-4.667 4.316 4.405 4.405 0 00.03.485c.014.128.032.254.057.377l.01.044c.024.112.053.223.086.332l.024.082c.038.118.08.233.127.346l.028.063c.043.098.09.195.14.29l.035.068c.059.105.121.208.188.308l.047.068a4.4 4.4 0 00.192.257l.038.047c.077.093.158.181.243.267l.063.062c.081.08.165.157.253.23l.023.02a4.405 4.405 0 00.366.269l.076.05zM11 1.138l3.529 3.529H11zm4.667 10.316V4.862L10.805 0H0v20h14.667A4.338 4.338 0 0019 15.667a4.338 4.338 0 00-3.333-4.213z"/><path fill="#fff" d="M16.3 14.157L14.147 17.1l-1.518-1.187a.398.398 0 00-.542.051.353.353 0 00.054.515l1.84 1.438a.398.398 0 00.56-.074l2.39-3.268a.355.355 0 00-.096-.51.397.397 0 00-.535.092z"/></svg>