<svg xmlns="http://www.w3.org/2000/svg" width="18" height="22" viewBox="0 0 18 22"><path fill="#fff" d="M9.925 17.693c-2.035 0-3.69-1.614-3.69-3.599 0-1.984 1.655-3.598 3.69-3.598s3.69 1.614 3.69 3.598c0 1.985-1.655 3.599-3.69 3.599zm-7.3 2.474v-17.6H10.5v5.5h5.625v11.581l-2.818-2.755a4.26 4.26 0 001.048-2.794c0-2.391-1.99-4.337-4.435-4.337-2.446 0-4.436 1.946-4.436 4.337 0 2.392 1.99 4.337 4.436 4.337a4.474 4.474 0 002.857-1.024l2.818 2.755zM.75 18.333V.733h13.5v4.249l-3.033-2.966-.187-.183H1.875v16.5zm14.845-11.01H11.25V3.085L15 6.743zm2.295 14.051l-1.015-.992V7.548l-.186-.182-1.69-1.651V0H0v19.067h1.875V20.9h14.47l1.015.993a.378.378 0 00.53 0 .36.36 0 000-.519z"/><path fill="#fff" d="M8.375 13h2.25c.207 0 .375-.224.375-.5 0-.277-.168-.5-.375-.5h-2.25c-.207 0-.375.224-.375.5 0 .277.168.5.375.5zM12.643 14H8.357c-.197 0-.357.224-.357.5 0 .277.16.5.357.5h4.286c.197 0 .357-.224.357-.5 0-.277-.16-.5-.357-.5z"/></svg>