<svg xmlns="http://www.w3.org/2000/svg" width="14" height="20" viewBox="0 0 14 20"><path fill="#1e4bd2" d="M12.09 19.219H1.9a1.11 1.11 0 01-.94-.512 1.155 1.155 0 01-.182-.811h.631a.387.387 0 00.383-.391.387.387 0 00-.383-.39h-.352l.44-1.094h.647a.387.387 0 00.383-.391.387.387 0 00-.383-.39h-.332l.44-1.094h.664a.387.387 0 00.383-.391.387.387 0 00-.383-.39h-.35l.44-1.094h.683a.387.387 0 00.383-.391.387.387 0 00-.383-.39H3.32l.44-1.094h6.468l2.909 7.228c.146.363.107.757-.107 1.083a1.111 1.111 0 01-.942.512zM5.002 7.316c.269-.667.405-1.37.405-2.09V2.5a1.89 1.89 0 00-.54-1.33.56.56 0 01-.161-.39h4.586a.56.56 0 01-.16.39c-.349.356-.54.828-.54 1.33v2.725c0 .72.135 1.423.404 2.09l.925 2.298H4.078zm8.854 10.012L9.707 7.019a4.781 4.781 0 01-.348-1.793V2.5c0-.294.112-.57.316-.777.248-.253.385-.59.385-.947V.39A.387.387 0 009.677 0H4.323a.387.387 0 00-.383.39v.387c0 .357.137.694.385.947a1.1 1.1 0 01.316.777v2.725c0 .618-.117 1.221-.347 1.793l-1.14 2.833-.002.003-3.01 7.473a1.965 1.965 0 00.18 1.814c.354.537.945.858 1.58.858h10.196a1.89 1.89 0 001.58-.858 1.97 1.97 0 00.18-1.814z" opacity=".3"/></svg>