<svg xmlns="http://www.w3.org/2000/svg" width="27" height="22" viewBox="0 0 27 22"><g opacity=".3"><path fill="#1e4bd2" d="M21.887 19.51H20.21v.83h1.677v.83H5.113v-.83H19.37v-.83H5.113c-1.94 0-3.541-1.456-3.75-3.321h2.97a1.672 1.672 0 0 0 3.055.43c.293.245.666.4 1.08.4.618 0 1.153-.336 1.444-.83h15.726c-.21 1.865-1.811 3.32-3.75 3.32zM1.34 12.037c0-.458.376-.83.838-.83.463 0 .84.372.84.83 0 .458-.377.83-.84.83a.835.835 0 0 1-.838-.83zm.846-4.981c.035.948.19 1.88.464 2.784a4.541 4.541 0 0 1-1.292-2.784zm3.347 4.15c0 .458-.376.83-.838.83a.835.835 0 0 1-.84-.83c0-.457.377-.83.84-.83.462 0 .838.373.838.83zM7.21 9.963c.462 0 .838.373.838.83 0 .458-.376.83-.838.83a.835.835 0 0 1-.839-.83c0-.457.376-.83.839-.83zm2.935 4.566a.833.833 0 0 1 1.668 0 .833.833 0 0 1-1.668 0zm-1.677 0c.462 0 .838.373.838.83 0 .458-.376.83-.838.83a.835.835 0 0 1-.839-.83c0-.457.376-.83.839-.83zm-2.516.415c.462 0 .838.373.838.83 0 .458-.376.83-.838.83a.835.835 0 0 1-.84-.83c0-.457.377-.83.84-.83zm-1.268-.83a.833.833 0 0 1-1.668 0 .833.833 0 0 1 1.668 0zm4.203-.415a.835.835 0 0 1-.839-.83c0-.458.377-.83.84-.83.462 0 .838.372.838.83 0 .458-.376.83-.839.83zm-1.677-.415c0 .458-.376.83-.839.83a.835.835 0 0 1-.839-.83c0-.458.376-.83.839-.83.463 0 .839.372.839.83zm5.87-5.72v.618a1.395 1.395 0 0 1-.464-.482l-.749.374c.022.043.548 1.06 1.633 1.06s1.611-1.017 1.633-1.06l-.749-.374a1.39 1.39 0 0 1-.464.481v-.617c0-.299.014-.596.04-.893 1.518.135 2.87.93 3.721 2.196l-2.582 4.88.17.212c.043.052.656.788 1.84 1.4h-4.68a1.63 1.63 0 0 0 .232-.83 1.67 1.67 0 0 0-1.677-1.66 1.66 1.66 0 0 0-.426.06c.001-.02.007-.04.007-.06a1.67 1.67 0 0 0-1.678-1.66c-.02 0-.04.005-.062.006.037-.136.062-.275.062-.422a1.63 1.63 0 0 0-.169-.713c.63-1.912 2.388-3.27 4.403-3.422-.025.3-.04.602-.04.906zm7.307-2.021c.095-.18.39-.18.484 0l3.488 6.59c-.78.748-2.02 1.566-3.73 1.566s-2.95-.818-3.73-1.566zm-4.282 8.09l.389-.734c.903.809 2.279 1.63 4.135 1.63 1.856 0 3.232-.821 4.136-1.63l.388.733c-.496.487-2.006 1.727-4.524 1.727-2.537 0-4.031-1.235-4.524-1.725zM5.245 7.23c.065-.106.183-.172.348-.172.198 0 .359.159.359.354v.12a.358.358 0 0 1-.359.356.357.357 0 0 1-.32-.197l-.14-.276zM9.33.83h.396c1.94 0 3.541 1.455 3.75 3.32h-.395c-1.94 0-3.542-1.454-3.751-3.32zm14.819 14.528c1.184-.612 1.797-1.348 1.84-1.4l.17-.213-4.544-8.589a1.11 1.11 0 0 0-.986-.59 1.11 1.11 0 0 0-.985.59l-1.524 2.88a5.825 5.825 0 0 0-4.047-2.195A9.895 9.895 0 0 1 16.334 1.1l-.636-.54a10.723 10.723 0 0 0-1.62 2.513A4.609 4.609 0 0 0 9.726 0H8.468v.415c0 2.518 2.07 4.566 4.613 4.566h.326c-.07.278-.13.558-.177.841-2.264.105-4.275 1.512-5.144 3.561a1.676 1.676 0 0 0-.876-.25c-.613 0-1.144.329-1.437.815a1.673 1.673 0 0 0-1.436-.361c.064-.442.175-.875.343-1.288.224.263.555.418.913.418.66 0 1.197-.531 1.197-1.185v-.12c0-.654-.536-1.186-1.237-1.186a1.21 1.21 0 0 0-.835.337 5.55 5.55 0 0 1-.444-2.167v-.66h-.839v.66c0 .99.237 1.98.684 2.867l.063.125a6.367 6.367 0 0 0-.705 2.28c-.303-.98-.46-1.994-.46-3.026v-.416H.5v.416c0 1.41.543 2.736 1.527 3.75C1.173 10.47.5 11.173.5 12.038c0 .915.752 1.66 1.677 1.66.021 0 .041-.005.062-.006a1.612 1.612 0 0 0-.062.421c0 .499.228.94.58 1.245H.5v.416c0 2.234 1.63 4.095 3.774 4.486V22h18.452v-1.74c2.143-.391 3.774-2.252 3.774-4.486v-.416z" opacity=".3"/><path fill="#1e4bd2" d="M21.5 9h1v1h-1zM23.5 11h1v1h-1zM19.5 11h1v1h-1z" opacity=".3"/></g></svg>