<svg xmlns="http://www.w3.org/2000/svg" width="17" height="17" viewBox="0 0 17 17"><path fill="#0af" d="M10.445 15.727c0 .1-.08.182-.177.182H1.742a.18.18 0 01-.177-.182v-1.454c0-.1.08-.182.177-.182h8.526a.18.18 0 01.177.182zM10.258 13H1.742C1.057 13 .5 13.57.5 14.273v1.454C.5 16.43 1.057 17 1.742 17h8.516c.685 0 1.242-.57 1.242-1.273v-1.454c0-.702-.557-1.273-1.242-1.273z"/><path fill="#0a2896" d="M14.307 12.508c-.383-.382-2.818-3.045-4.597-5.114l.187-.185c2.08 1.781 4.744 4.208 5.124 4.586.435.434.462.672.454.754-.009.093-.075.166-.16.252-.152.151-.359.354-1.008-.293zM5.101 5.71c.182-.744 2.367-2.929 3.111-3.11l2.217 2.216c-.18.74-2.367 2.93-3.11 3.11zm1.583 3.257l-.48.478a.168.168 0 01-.234 0l-2.397-2.39a.164.164 0 010-.233l.48-.478a.167.167 0 01.234 0l2.398 2.39a.165.165 0 01-.001.233zm2.642-7.895a.165.165 0 01.235 0l2.398 2.397a.166.166 0 010 .234l-.48.48a.167.167 0 01-.235 0L8.847 1.785a.166.166 0 010-.235zm2.022 4.181l.014.002c.304 0 .61-.116.841-.348l.48-.48a1.19 1.19 0 000-1.682L10.285.348a1.19 1.19 0 00-1.683 0l-.479.48c-.234.234-.35.542-.347.85a3.26 3.26 0 00-.526.279c-.942.599-2.195 1.852-2.793 2.794a3.157 3.157 0 00-.278.522 1.189 1.189 0 00-.851.347l-.479.48a1.182 1.182 0 00-.349.841c0 .318.124.617.349.841l2.397 2.397c.232.232.537.348.842.348.304 0 .61-.116.841-.348l.48-.48c.235-.234.35-.544.347-.853.224-.09.418-.207.523-.274.208-.132.435-.301.67-.493 1.726 2.01 4.191 4.72 4.634 5.163.392.392.905.758 1.452.758.328 0 .668-.131 1.002-.466.123-.123.41-.41.457-.872.05-.503-.202-1.035-.749-1.582-.437-.439-3.142-2.899-5.158-4.63.334-.405.612-.818.761-1.197z"/></svg>