<svg xmlns="http://www.w3.org/2000/svg" width="26" height="16" viewBox="0 0 26 16"><g opacity=".3"><path fill="#1e4bd2" d="M20.324 10.926c-.482-1.057-2.208-2.524-3.875-3.941-.93-.79-1.809-1.537-2.369-2.126a.494.494 0 0 0-.536-.126c-.345.131-.558.233-.726.311-.256.12-.342.162-.687.198a.508.508 0 0 0-.375.236c-.724 1.137-1.474 1.04-1.974.864-.16-.056-.189-.128-.204-.197-.108-.472.432-1.572 1.132-2.307 1.664-1.75 2.522-2.188 4.335-1.337a58.152 58.152 0 0 0 4.137 1.73c.27.098.56-.05.653-.33a.546.546 0 0 0-.316-.686 56.73 56.73 0 0 1-4.055-1.698c-2.349-1.103-3.637-.376-5.478 1.559-.7.736-1.651 2.225-1.406 3.318.106.465.417.81.88.97 1.16.402 2.22.017 3.008-1.083.326-.053.503-.13.769-.256a9.82 9.82 0 0 1 .359-.162c.585.578 1.376 1.25 2.209 1.958 1.505 1.28 3.212 2.73 3.596 3.57.19.414-.014.684-.152.808-.203.183-.48.24-.631.13a.492.492 0 0 0-.553-.02.547.547 0 0 0-.247.52c.035.343-.263.539-.392.606-.328.175-.67.145-.798.02a.498.498 0 0 0-.532-.11.535.535 0 0 0-.327.453c-.031.353-.28.692-.605.824-.156.063-.384.1-.587-.095a.5.5 0 0 0-.828.214c-.02.054-.063.183-.543.183-.34 0-.954-.242-1.254-.451-.36-.249-2.614-2.016-4.56-3.73-.274-.241-.747-.76-1.165-1.219-.37-.406-.71-.776-.884-.93a.493.493 0 0 0-.722.063.558.558 0 0 0 .06.759c.16.14.466.482.805.853.457.502.93 1.02 1.247 1.3 1.907 1.678 4.199 3.49 4.656 3.805.376.26 1.189.626 1.817.626.505 0 .893-.122 1.163-.36.36.148.77.15 1.164-.012a2.06 2.06 0 0 0 1.066-1.035c.404.09.866.027 1.286-.194.41-.218.707-.55.855-.939.407.023.827-.129 1.174-.442.588-.529.75-1.35.41-2.092z" opacity=".3"/><path fill="#1e4bd2" d="M11.045 2h-4.09c-.251 0-.455.224-.455.5s.204.5.455.5h4.09c.251 0 .455-.224.455-.5s-.204-.5-.455-.5zM21.43 10.224c-.125-.231-.377-.295-.563-.137l-1.187.99c-.186.155-.236.47-.11.7.078.144.206.223.337.223a.35.35 0 0 0 .226-.086l1.188-.99c.185-.156.235-.47.11-.7zM18.81 12.107c-.358-.282-1.96-1.92-2.949-2.952a.5.5 0 1 0-.722.692c.257.267 2.524 2.63 3.05 3.046a.498.498 0 0 0 .704-.084.5.5 0 0 0-.083-.702zM16.34 13.237c-.514-.41-1.804-1.781-2.095-2.098a.43.43 0 0 0-.632.58c.015.016 1.555 1.678 2.19 2.188a.43.43 0 0 0 .603-.067.43.43 0 0 0-.066-.603zM14.348 14.243c-.611-.515-1.862-1.845-2.106-2.107a.428.428 0 1 0-.627.585c.352.377 1.548 1.645 2.18 2.178a.427.427 0 0 0 .604-.052.429.429 0 0 0-.051-.604z" opacity=".3"/><path fill="#1e4bd2" d="M4.158 9.9H1.667V1.14c1.875.139 3.898.443 4.633.78-.31 2.408-1.708 6.688-2.142 7.98zm3.16-8.65C6.318.357 2.32.068 1.118 0a.6.6 0 0 0-.435.15.535.535 0 0 0-.183.4v9.9c0 .304.261.55.583.55h3.5a.58.58 0 0 0 .555-.38c.085-.246 2.095-6.063 2.36-8.923a.53.53 0 0 0-.18-.447zM24.507 10.9h-2.135c-.477-1.698-1.883-6.127-2.668-7.957.767-.285 2.413-.775 4.803-.836zM25 1c-3.936 0-6.12 1.105-6.211 1.152a.536.536 0 0 0-.268.342c-.04.15-.02.312.055.446.62 1.095 2.56 7.174 2.933 8.656a.51.51 0 0 0 .483.404H25c.276 0 .501-.246.501-.55v-9.9c0-.305-.225-.55-.501-.55z" opacity=".3"/></g></svg>