<svg xmlns="http://www.w3.org/2000/svg" width="23" height="22" viewBox="0 0 23 22"><g opacity=".3"><path fill="#1e4bd2" d="M5 12c1.654 0 3-1.346 3-3S6.654 6 5 6a.335.335 0 100 .67A2.333 2.333 0 017.33 9 2.333 2.333 0 015 11.33 2.333 2.333 0 012.67 9 .335.335 0 102 9c0 1.654 1.346 3 3 3zM10.855 10h7.29c.196 0 .355-.224.355-.5s-.159-.5-.355-.5h-7.29c-.196 0-.355.224-.355.5s.159.5.355.5zM1.5 17.5C1.5 19.43 3.07 21 5 21s3.5-1.57 3.5-3.5S6.93 14 5 14a.39.39 0 100 .781A2.722 2.722 0 017.719 17.5 2.722 2.722 0 015 20.219 2.722 2.722 0 012.281 17.5a.39.39 0 10-.781 0z" opacity=".3"/><path fill="#1e4bd2" d="M8.928 17.46c0 2.115-1.731 3.837-3.86 3.838-2.13 0-3.862-1.722-3.862-3.839 0-2.116 1.732-3.838 3.861-3.838 2.129 0 3.86 1.722 3.86 3.838zM5.067 5.241c2.129 0 3.86 1.722 3.86 3.838s-1.73 3.838-3.858 3.839c-2.131 0-3.863-1.722-3.863-3.839 0-2.116 1.732-3.838 3.861-3.838zm7.197 0a.352.352 0 00.354-.351.352.352 0 00-.354-.351h-1.407L9.468 3.16a1.604 1.604 0 001.271-1.262l3.262 3.241a.355.355 0 00.25.103h3.69c2.01 0 3.667 1.535 3.846 3.487h-2.438a.352.352 0 00-.353.351c0 .194.158.351.353.351h2.438a3.86 3.86 0 01-3.847 3.488H7.504a4.593 4.593 0 001.402-1.38h5.298a.352.352 0 00.353-.351.352.352 0 00-.353-.352H9.28a4.49 4.49 0 00.355-1.756 4.535 4.535 0 00-2.131-3.838h3.207zM9.162.702c.495 0 .898.4.898.893a.896.896 0 01-.898.892.896.896 0 01-.898-.892c0-.492.403-.893.898-.893zm12.202 18.514h-11.25a.352.352 0 00-.354.35c0 .195.159.352.354.352h10.781a3.863 3.863 0 01-2.962 1.38H7.504A4.54 4.54 0 009.62 17.81h3.169a.352.352 0 00.353-.35.352.352 0 00-.353-.352H9.62a4.54 4.54 0 00-2.116-3.487h10.43c2.128 0 3.86 1.722 3.86 3.838 0 .633-.156 1.23-.43 1.757zm-1.67-5.946A4.547 4.547 0 0022.5 9.08c0-2.503-2.049-4.54-4.567-4.54h-3.54L10.296.467A1.603 1.603 0 009.162 0c-.884 0-1.604.715-1.604 1.595a1.584 1.584 0 00.47 1.127L9.856 4.54H5.067C2.549 4.54.5 6.577.5 9.08a4.547 4.547 0 002.807 4.19A4.547 4.547 0 00.5 17.46C.5 19.962 2.549 22 5.067 22h12.866c2.518 0 4.567-2.037 4.567-4.54a4.547 4.547 0 00-2.807-4.19z" opacity=".3"/><path fill="#1e4bd2" d="M14.5 17.5c0 .276.174.5.39.5h7.22c.216 0 .39-.224.39-.5s-.174-.5-.39-.5h-7.22c-.216 0-.39.224-.39.5z" opacity=".3"/></g></svg>