<svg xmlns="http://www.w3.org/2000/svg" width="20" height="23" viewBox="0 0 20 23"><g opacity=".3"><path fill="#1e4bd2" d="M15.955 15.445a3.735 3.735 0 0 0-2.682 1.47 3.805 3.805 0 0 0-.706 2.997H1.283a.694.694 0 0 1-.691-.697V8.862c0-.385.31-.696.69-.697h13.982c.382 0 .69.312.69.697zm3.463 3.77c0 1.76-1.416 3.186-3.162 3.186-1.747 0-3.162-1.426-3.162-3.186s1.415-3.186 3.162-3.186c1.745.002 3.16 1.428 3.162 3.186zM3.25 3.52C3.253 1.906 4.548.599 6.146.597H7.18v.476H6.146A2.437 2.437 0 0 0 3.723 3.52v4.049H3.25zm7.15-1.848a1.842 1.842 0 0 1 1.831 1.848v4.049H4.315v-4.05a1.842 1.842 0 0 1 1.831-1.848zm-2.63-.607V.597h1.014v.467zm5.525 6.504h-.472v-4.05A2.437 2.437 0 0 0 10.4 1.073H9.367V.597h1.034c1.598.002 2.893 1.31 2.895 2.922zM10.4 0H6.146C4.221.002 2.661 1.576 2.659 3.519v4.049H1.283A1.29 1.29 0 0 0 0 8.862v10.353a1.29 1.29 0 0 0 1.283 1.294h11.445a3.743 3.743 0 0 0 4.29 2.41c1.826-.385 3.093-2.065 2.974-3.943-.118-1.878-1.586-3.383-3.445-3.531V8.862a1.29 1.29 0 0 0-1.283-1.294h-1.376V3.519C13.885 1.576 12.326.002 10.4 0z" opacity=".3"/><path fill="#1e4bd2" d="M14.516 19.107a.286.286 0 0 0-.428 0 .347.347 0 0 0 0 .463l1.232 1.334c.118.128.31.128.427 0l2.164-2.345a.347.347 0 0 0 0-.463.286.286 0 0 0-.428 0l-1.95 2.113z" opacity=".3"/></g></svg>