<svg xmlns="http://www.w3.org/2000/svg" width="23" height="22" viewBox="0 0 23 22"><g opacity=".3"><path fill="#1e4bd2" d="M16.346 8.098l.935-.935a19.052 19.052 0 0 1 2.07 2.853A17.476 17.476 0 0 1 20.86 13.3l-.193-.236c-1.841-2.253-3.28-3.862-4.32-4.965zm-.115-1.829a.458.458 0 1 0-.001.649l-1.62 1.62-.648-.649 2.917-2.916.648.648-1.296 1.296a.458.458 0 0 0 0-.648zM2.198 20.94a.456.456 0 0 1-.647 0 .458.458 0 0 1 0-.648L13.305 8.538l.647.647zM9.437 1.833L9.2 1.64a17.5 17.5 0 0 1 3.282 1.509 19.096 19.096 0 0 1 2.854 2.069l-.935.935c-1.673-1.58-3.566-3.176-4.965-4.32zm8.494 4.68l.893-.892-1.945-1.945-.892.892C10.807.012 5.647 0 5.647 0s4.593 3.485 8.107 6.801L.903 19.653a1.375 1.375 0 1 0 1.944 1.944L15.698 8.746c3.317 3.514 6.802 8.106 6.802 8.106s-.013-5.16-4.569-10.34z" opacity=".3"/><path fill="#1e4bd2" d="M16.576 15.947l3.187 2.17L21.022 21H18.1l.358-1.846zM17.15 21H9.968l1.263-2.888 3.92-2.712 2.32 3.946zm3.35-3.572L15.454 14 10.5 17.428 8.5 22h14z" opacity=".3"/></g></svg>