<svg xmlns="http://www.w3.org/2000/svg" width="23" height="19" viewBox="0 0 23 19"><path fill="#1e4bd2" d="M19.537 16.39h-.003a2.208 2.208 0 0 0-2.167-1.87 2.208 2.208 0 0 0-2.168 1.87h-3.332v-1.32c0-.174-.04-.345-.116-.5l-.758-1.539h6.74l.012-.002h2.268l.229.93a.733.733 0 0 0 .71.562h.809l-.006 1.496zm-2.17 1.856c-.81 0-1.467-.667-1.467-1.49s.657-1.49 1.467-1.49 1.466.667 1.466 1.49-.656 1.49-1.466 1.49zM3.468 16.39H2.391l-1.158-.372v-.937l1.175-.894a.753.753 0 0 0 .293-.596v-.56h1.454l.015.001h6.013l.924 1.873a.374.374 0 0 1 .038.165v1.32H7.808a2.212 2.212 0 0 0-2.17-1.868 2.212 2.212 0 0 0-2.17 1.868zm2.165 1.857c-.81 0-1.466-.667-1.466-1.49s.656-1.49 1.466-1.49c.81 0 1.467.667 1.467 1.49s-.657 1.49-1.467 1.49zM1.757 13.03h.22v.561l-.744.559v-.59zm3.76-2.977h.425l-.272 2.233h-.973zm1.949-1.49H12.6v.755H7.467zm2.894-.745a.372.372 0 0 0 .017-.088 1.014 1.014 0 0 1 .49-.89.98.98 0 0 1 1.004 0c.31.185.498.525.491.89a.38.38 0 0 0 .018.088zm-5.784 0a.087.087 0 0 1-.082-.06.09.09 0 0 1 .03-.099L8.415 4.59c.227.471.71.755 1.225.72a1.272 1.272 0 0 0 1.118-.882 1.304 1.304 0 0 0-.379-1.386l1.364-1.075a10.668 10.668 0 0 1 1.96 5.848h-.637a.371.371 0 0 0 .018-.087 1.76 1.76 0 0 0-.855-1.54 1.699 1.699 0 0 0-1.738 0 1.76 1.76 0 0 0-.855 1.54.37.37 0 0 0 .017.087zm5.52-3.799a.539.539 0 0 1-1.07.09l.746-.58a.535.535 0 0 1 .325.49zM13.299.765a.09.09 0 0 1 .07-.02.076.076 0 0 1 .054.032c1.29 1.82 1.996 4.162 2.101 6.961a.08.08 0 0 1-.023.058.092.092 0 0 1-.068.03h-.999c-.065-2.27-.8-4.468-2.107-6.306zm3.548 11.52h-6.08v-2.233h3.881zm-6.823-2.233v2.233H6.415l.275-2.233zm11.74 3.725h-.81l-.183-.748h.997zm.004-1.492h-3.884l-2.716-2.76a.722.722 0 0 0-.52-.218h-1.314v-.745h2.11a.826.826 0 0 0 .824-.862c-.11-2.942-.867-5.42-2.246-7.358a.805.805 0 0 0-.543-.333.82.82 0 0 0-.623.165l-1.254.968-7.526 5.926a.842.842 0 0 0-.275.93.822.822 0 0 0 .776.564h2.157v.745h-1.21a.739.739 0 0 0-.687.484l-.923 2.494H1.75a.713.713 0 0 0-.515.22l-.528.532a.763.763 0 0 0-.207.521v2.459a.733.733 0 0 0 .534.716l1.188.384a.361.361 0 0 0 .111.017h1.135c.07.414.253.8.53 1.112.259.118.187.255.446.373.286.13 1.184.087 1.47.217 1.1-.181 1.704-.63 1.885-1.702h7.402c.07.414.145.812.483 1.177 0 0 .053.263.583.525.53.263 1.347.104 1.347.104 1.04-.104 1.738-.734 1.919-1.806h.034c.02 0 .04-.001.06-.005l2.238-.375a.75.75 0 0 0 .635-.745v-2.98a.75.75 0 0 0-.215-.526.728.728 0 0 0-.518-.218z" opacity=".3"/></svg>