<svg xmlns="http://www.w3.org/2000/svg" width="22" height="23" viewBox="0 0 22 23"><path fill="#0a2896" d="M21.846 10.137a.855.855 0 10-1.686.286c.87 5.136-2.577 10.006-7.702 10.879-5.124.872-9.983-2.584-10.854-7.72C.734 8.446 4.182 3.576 9.306 2.703a9.398 9.398 0 018.518 2.93l-3.787 1.264a.857.857 0 00-.541 1.084.854.854 0 001.08.543h.001l5.129-1.714a.857.857 0 00.584-.813V.857a.856.856 0 10-1.71 0v3.13C14.18-.21 7.217-.036 3.03 4.376c-4.187 4.412-4.013 11.39.39 15.587 4.401 4.196 11.364 4.021 15.55-.39a11.042 11.042 0 002.876-9.437z"/></svg>