<svg xmlns="http://www.w3.org/2000/svg" width="20" height="21" viewBox="0 0 20 21"><g opacity=".3"><path fill="#1e4bd2" d="M11.177 20.111H7.833V17.89h3.344zM11.583 17H7.417c-.23 0-.417.199-.417.444v3.112c0 .245.187.444.417.444h4.166c.23 0 .417-.199.417-.444v-3.112c0-.245-.186-.444-.417-.444z" opacity=".3"/><path fill="#1e4bd2" d="M5.91 20.125V.875h8.18v19.25zM14.544 0h-9.09A.446.446 0 0 0 5 .437v20.126c0 .241.204.437.455.437h9.09a.446.446 0 0 0 .455-.437V.437A.446.446 0 0 0 14.545 0z" opacity=".3"/><path fill="#1e4bd2" d="M5 20.146H2V2.864h3zM5.5 2h-4c-.276 0-.5.193-.5.432v18.136c0 .239.224.432.5.432h4c.276 0 .5-.193.5-.432V2.432C6 2.193 5.776 2 5.5 2z" opacity=".3"/><path fill="#1e4bd2" d="M1 2h1v1H1zM5 0h10v1H5zM7 10h1v1H7zM9 10h1v1H9zM10 10h1v1h-1zM12 10h1v1h-1zM7 9h1v1H7zM9 9h1v1H9zM10 9h1v1h-1zM12 9h1v1h-1zM3 10h1v1H3zM3 9h1v1H3zM18 20.146h-3V2.864h3zM18.5 2h-4c-.277 0-.5.193-.5.432v18.136c0 .239.223.432.5.432h4c.277 0 .5-.193.5-.432V2.432c0-.239-.223-.432-.5-.432z" opacity=".3"/><path fill="#1e4bd2" d="M18 2h1v1h-1zM16 10h1v1h-1zM16 9h1v1h-1zM0 20h5v1H0zM13 20h7v1h-7z" opacity=".3"/></g></svg>