<svg xmlns="http://www.w3.org/2000/svg" width="21" height="19" viewBox="0 0 21 19"><path fill="#1e4bd2" d="M16.888 15.399a.292.292 0 0 0-.273.086l-1.97 2.1c-.869-4.475-2.863-8.049-3.613-9.28h.076c.306 0 .611-.06.895-.174.238.235.739.713 1.386 1.229 1.056.842 2.292 1.694 3.651 1.923.43.072.878.068 1.296-.062l.011-.004a26.747 26.747 0 0 1 1.386 4.767zM1.086 5.916c0-3.205.782-4.83 2.325-4.83C5.257 1.086 7.67 3.247 8.453 4a2.39 2.39 0 0 0 .001 3.831c-.195.188-.49.462-.853.769-.006.004-.776.628-1.177.906-.96.664-2.199 1.462-3.426 1.197h-.001c-1.269-.277-1.911-1.884-1.911-4.787zm10.022-1.804c.969 0 1.804.834 1.804 1.804 0 .974-.82 1.802-1.801 1.803H9.89c-.968 0-1.801-.837-1.801-1.803 0-.976.827-1.804 1.804-1.804zm8.86 5.422c.353-.876.532-2.093.532-3.618 0-1.974-.301-3.425-.895-4.315a.293.293 0 0 0-.487.325c.528.792.796 2.134.796 3.99 0 2.596-.513 4.16-1.525 4.655l-.005.003c-1.249.614-2.775-.385-3.785-1.046-.723-.474-1.39-1.057-2.016-1.652a.935.935 0 0 0-.047-.045c.6-.441.962-1.172.962-1.915 0-.749-.361-1.47-.962-1.916a17.2 17.2 0 0 1 2.012-1.66c1.129-.784 2.707-1.61 3.814-1.093a.293.293 0 0 0 .248-.53C16.3-.362 12.772 2.938 12.002 3.7a2.378 2.378 0 0 0-.894-.174H9.892c-.316 0-.618.063-.895.175C8.336 3.046 5.62.5 3.414.5 2.508.5 1.8.917 1.308 1.738.772 2.634.5 4.04.5 5.916c0 1.875.272 3.281.808 4.177.226.378.498.67.814.875-.26.662-.495 1.33-.7 1.992a.293.293 0 1 0 .559.174 27.99 27.99 0 0 1 .672-1.915c.235.074.49.112.762.112 1.685 0 3.67-1.488 4.806-2.48.078-.069.723-.742.776-.72.284.115.59.174.895.174h.076c-.75 1.231-2.744 4.805-3.613 9.28l-1.97-2.1a.293.293 0 0 0-.273-.086l-2.845.585a24.79 24.79 0 0 1 .382-1.691.293.293 0 0 0-.567-.149c-.192.73-.35 1.458-.469 2.165-.033.2.15.377.348.336l3.108-.64 2.257 2.405a.296.296 0 0 0 .502-.152c.495-2.93 1.532-5.513 2.315-7.164A27.588 27.588 0 0 1 10.5 8.56a27.51 27.51 0 0 1 1.357 2.534c.783 1.651 1.82 4.234 2.315 7.164.04.234.34.325.502.152l2.257-2.404 3.108.639a.299.299 0 0 0 .344-.358 27.075 27.075 0 0 0-1.506-5.32c.46-.3.827-.78 1.09-1.433z" opacity=".3"/></svg>