<svg xmlns="http://www.w3.org/2000/svg" width="22" height="16" viewBox="0 0 22 16"><g opacity=".25"><path d="M4.995 15.177c-.733 0-1.328-.75-1.328-1.672 0-.922.595-1.672 1.328-1.672.733 0 1.328.75 1.328 1.672 0 .922-.595 1.672-1.328 1.672zM5 11c-1.103 0-2 1.121-2 2.5S3.897 16 5 16s2-1.121 2-2.5S6.103 11 5 11zM17.995 15.177c-.733 0-1.328-.75-1.328-1.672 0-.922.595-1.672 1.328-1.672.733 0 1.328.75 1.328 1.672 0 .922-.595 1.672-1.328 1.672zM18 11c-1.103 0-2 1.121-2 2.5s.897 2.5 2 2.5 2-1.121 2-2.5-.897-2.5-2-2.5z" opacity=".25"/><path d="M21.942 8.355L18.67 3.17a.362.362 0 00-.305-.17h-4a.367.367 0 00-.364.37v9.26c0 .204.163.37.364.37h1.454v-.74h-1.09V3.74h3.437l3.108 4.924v3.595h-1.818V13h2.181a.367.367 0 00.364-.37V8.556a.37.37 0 00-.058-.2z" opacity=".25"/><path d="M14.875 8.273V5.727h3.5V5h-3.938c-.241 0-.437.163-.437.364v3.272c0 .201.196.364.437.364H21v-.727h-6.125z" opacity=".25"/><path d="M14.625 0H.375A.379.379 0 000 .382v12.236c0 .211.168.382.375.382h3v-.765H.75V.765h13.5v11.47H7.125V13h7.5c.207 0 .375-.17.375-.382V.382A.379.379 0 0014.625 0z" opacity=".25"/></g></svg>