<svg xmlns="http://www.w3.org/2000/svg" width="31" height="31" viewBox="0 0 31 31"><path fill="#0a2896" d="M29.688 22.029h-7.985c-1.982 0-3.628-1.651-3.628-3.625s1.653-3.625 3.628-3.625h7.985zm-1.39 6.731c0 .526-.398.987-.923.987H2.176c-.525 0-.923-.461-.923-.987V8.047c0-.525.398-.987.923-.987h25.13c.524 0 .923.462.923.987v5.34H21.7c-2.771 0-4.947 2.176-4.947 4.947a4.938 4.938 0 004.947 4.948h6.599zM24.864 1.253c.33.063.658.461.658.987V5.8H7.32zm5.479 12.134h-.79v-5.34c0-1.252-.988-2.24-2.177-2.24h-.595V2.24C26.78.987 25.857 0 24.737 0h-.133L2.044 5.801c-.007 0-.02.007-.026.007C.905 5.896 0 6.852 0 8.048V28.76C0 30.013.987 31 2.176 31h25.199a2.22 2.22 0 002.24-2.24v-5.478h.727c.399 0 .658-.266.658-.658V14.05a.662.662 0 00-.658-.664z"/><path fill="#0af" d="M20 18.5c0 .909.517 1.5 1.033 1.5h.934c.516 0 1.033-.606 1.033-1.5 0-.909-.517-1.5-1.033-1.5h-.924c-.626 0-1.043.606-1.043 1.5z"/></svg>