<svg xmlns="http://www.w3.org/2000/svg" width="24" height="23" viewBox="0 0 24 23"><g opacity=".25"><path d="M22.723 22.233h-1.15V8.817a.383.383 0 00-.382-.384H2.799a.383.383 0 00-.383.384v13.416h-1.15V6.743L11.99.824l10.734 6.295zm.588-15.664L12.194.053a.383.383 0 00-.38-.005L.699 6.18a.383.383 0 00-.198.336v16.1c0 .212.172.383.383.383H2.8a.383.383 0 00.383-.383V9.2h17.634v13.417c0 .212.171.383.383.383h1.917a.383.383 0 00.383-.383V6.9a.382.382 0 00-.19-.33z" opacity=".25"/><path d="M16.214 22.296v-3.582h3.582v3.582zM20.143 18h-4.286a.357.357 0 00-.357.357v4.286c0 .197.16.357.357.357h4.286c.197 0 .357-.16.357-.357v-4.286a.357.357 0 00-.357-.357zM14.796 22.296h-3.582v-3.582h3.582zM15.143 18h-4.286a.357.357 0 00-.357.357v4.286c0 .197.16.357.357.357h4.286c.197 0 .357-.16.357-.357v-4.286a.357.357 0 00-.357-.357zM16.214 17.296v-3.582h3.582v3.582zM20.143 13h-4.286a.357.357 0 00-.357.357v4.286c0 .197.16.357.357.357h4.286c.197 0 .357-.16.357-.357v-4.286a.357.357 0 00-.357-.357zM3.5 10h18v1h-18zM13.677 6.323h-3.344v-.656h3.344zM14.083 5H9.917c-.23 0-.417.15-.417.333v1.334c0 .184.187.333.417.333h4.166c.23 0 .417-.15.417-.333V5.333c0-.184-.186-.333-.417-.333z" opacity=".25"/></g></svg>