<svg xmlns="http://www.w3.org/2000/svg" width="69" height="68" viewBox="0 0 69 68"><g><g opacity=".3"><g opacity=".3"><path fill="#0a2896" d="M62.824 49.867H6.166a3.4 3.4 0 0 1-3.4-3.4v-3.4h63.457v3.4a3.4 3.4 0 0 1-3.4 3.4zM42.32 61.2H26.686l.906-9.067h13.821zm5.78 3.395a1.13 1.13 0 0 1-1.133 1.128H22.033a1.13 1.13 0 0 1-1.133-1.128 1.13 1.13 0 0 1 1.133-1.128h24.934a1.13 1.13 0 0 1 1.133 1.128zM23.167 28.22v.779l-1.134 1.133-1.133-1.133v-.779a5.667 5.667 0 0 0 2.267 0zm-4.145-6.687a5.628 5.628 0 0 0 4.006-1.659l.139-.138.8.801c.409.404.913.696 1.466.849v1.28a3.4 3.4 0 1 1-6.8 0v-1.133zm7.545-2.266h-.194c-.301 0-.59-.12-.803-.332l-1.602-1.603a1.133 1.133 0 0 0-1.603 0l-.94.94a3.423 3.423 0 0 1-2.403.995H17.5v-1.134a4.533 4.533 0 1 1 9.067 0zM15.233 35.133V40.8H14.1v-4.533a5.656 5.656 0 0 1 5.24-5.624l1.56 1.56V40.8h-3.4v-5.667zm11.334 0V40.8h-3.4v-8.597l1.56-1.56a5.656 5.656 0 0 1 5.24 5.624V40.8h-1.134v-5.667zM62.824 2.267a3.4 3.4 0 0 1 3.4 3.4V40.8H32.228v-4.533a7.945 7.945 0 0 0-6.8-7.853v-1.247a5.64 5.64 0 0 0 2.267-4.5v-1.134c.626 0 1.133-.507 1.133-1.133v-2.267a6.8 6.8 0 1 0-13.598 0V20.4c0 .626.508 1.133 1.134 1.133v1.134a5.64 5.64 0 0 0 2.266 4.504v1.246a7.945 7.945 0 0 0-6.8 7.85V40.8H2.768V5.667a3.4 3.4 0 0 1 3.4-3.4zM6.167 0A5.673 5.673 0 0 0 .5 5.667v40.8a5.673 5.673 0 0 0 5.667 5.666H25.32l-.907 9.067h-2.38a3.4 3.4 0 0 0 0 6.8h24.934a3.4 3.4 0 0 0 0-6.8h-2.375l-.906-9.067h19.147a5.673 5.673 0 0 0 5.667-5.666v-40.8A5.673 5.673 0 0 0 62.833 0z"/></g><g opacity=".3"><path fill="#0af" d="M60.5 45h3v3h-3z"/></g><g opacity=".3"><path fill="#0af" d="M47.75 21.5h-2.5c-.69 0-1.25-.522-1.25-1.167h-2.5c0 1.933 1.679 3.5 3.75 3.5V25h2.5v-1.167c2.071 0 3.75-1.567 3.75-3.5s-1.679-3.5-3.75-3.5h-2.5c-.69 0-1.25-.522-1.25-1.166 0-.645.56-1.167 1.25-1.167h2.5c.69 0 1.25.522 1.25 1.167h2.5c0-1.933-1.679-3.5-3.75-3.5V11h-2.5v1.167c-2.071 0-3.75 1.567-3.75 3.5s1.679 3.5 3.75 3.5h2.5c.69 0 1.25.522 1.25 1.166 0 .645-.56 1.167-1.25 1.167z"/></g><g opacity=".3"><path fill="#0af" d="M44.046 9.81c4.315-1.595 9.128.304 11.238 4.434 2.109 4.13.856 9.203-2.924 11.843a9.049 9.049 0 0 1-11.978-1.436 1.131 1.131 0 0 0-.849-.383h-2.97l1.593-2.93c.136-.246.18-.533.12-.809-1.016-4.533 1.455-9.125 5.77-10.72zm-5.004 16.76a11.262 11.262 0 0 0 14.356 1.526c4.531-3.028 6.312-8.878 4.25-13.962-2.062-5.084-7.39-7.98-12.716-6.914-5.327 1.066-9.164 5.797-9.158 11.293.001.699.066 1.396.193 2.083l-2.326 4.267c-.194.357-.188.79.017 1.141.204.35.576.566.979.566z"/></g></g></g></svg>