<svg width="11" height="7" xmlns="http://www.w3.org/2000/svg" viewBox="0 0 11 7">
    <path d="M4.97083834,0.242655563 L5.09548588,0.103843531 C5.06092562,0.142331091 5.02933193,0.182874985 5.00070482,0.225124934 C5.15699236,0.136999319 5.32911941,0.0956498477 5.5,0.100749156 C5.67088059,0.0956498477 5.84300764,0.136999319 5.99929518,0.225124934 C5.97066807,0.182874985 5.93907438,0.142331091 5.90451412,0.103843531 L6.02916166,0.242655563 C6.11346203,0.294118576 6.19269997,0.359570678 6.26408296,0.439065372 L10.5963045,5.26358483 C11.0025556,5.71600084 11.003752,6.44645054 10.5999344,6.89615647 L10.89732,6.56497703 C10.4968604,7.0109435 9.83715966,7.01287312 9.43133735,6.56093463 L5.5,2.1828544 L1.56866265,6.56093463 C1.16284034,7.01287312 0.503139641,7.0109435 0.102679954,6.56497703 L0.400065573,6.89615647 C-0.00375199897,6.44645054 -0.00255562959,5.71600084 0.403695485,5.26358483 L4.73591704,0.439065372 C4.80730003,0.359570678 4.88653797,0.294118576 4.97083834,0.242655563 Z"/>
</svg>
