<svg xmlns="http://www.w3.org/2000/svg" width="23" height="31" viewBox="0 0 23 31"><g><g><g><path fill="#0a2896" d="M21.945 28.933l-.627-.826a.544.544 0 0 0-.836 0l-1.15 1.515-1.15-1.515a.524.524 0 0 0-.835 0l-1.15 1.515-1.15-1.515a.544.544 0 0 0-.835 0l-1.15 1.515-1.149-1.515a.544.544 0 0 0-.836 0l-1.15 1.515-1.149-1.515a.544.544 0 0 0-.836 0l-1.15 1.515-1.149-1.515a.544.544 0 0 0-.836 0l-1.15 1.515-1.149-1.515a.544.544 0 0 0-.836 0l-.627.826V2.067l.627.826a.544.544 0 0 0 .836 0l1.15-1.515 1.15 1.515a.544.544 0 0 0 .835 0l1.15-1.515 1.15 1.515a.544.544 0 0 0 .835 0l1.15-1.515 1.149 1.515a.544.544 0 0 0 .836 0l1.15-1.515 1.149 1.515a.544.544 0 0 0 .836 0l1.15-1.515 1.149 1.515a.544.544 0 0 0 .836 0l1.15-1.515 1.149 1.515a.544.544 0 0 0 .836 0l.627-.826zM22.059.207l-1.15 1.515L19.76.207a.544.544 0 0 0-.836 0l-1.15 1.515-1.15-1.515a.544.544 0 0 0-.837 0l-1.15 1.515-1.15-1.515a.544.544 0 0 0-.836 0L11.5 1.722 10.35.207a.544.544 0 0 0-.836 0l-1.15 1.515L7.214.207a.544.544 0 0 0-.837 0l-1.15 1.515L4.077.207a.544.544 0 0 0-.836 0L2.09 1.722.94.207a.526.526 0 0 0-.584-.18.517.517 0 0 0-.357.49v29.966c0 .223.144.42.357.49a.526.526 0 0 0 .584-.18l1.15-1.515 1.15 1.515a.544.544 0 0 0 .836 0l1.15-1.515 1.15 1.515a.544.544 0 0 0 .837 0l1.15-1.515 1.15 1.515a.544.544 0 0 0 .836 0l1.15-1.515 1.15 1.515a.544.544 0 0 0 .836 0l1.15-1.515 1.15 1.515a.544.544 0 0 0 .837 0l1.15-1.515 1.15 1.515a.544.544 0 0 0 .836 0l1.15-1.515 1.15 1.515a.525.525 0 0 0 .941-.31V.517a.517.517 0 0 0-.358-.49.526.526 0 0 0-.583.18z"/></g><g><path fill="#0af" d="M9 8h2v1H9z"/></g><g><path fill="#0af" d="M12 8h5v1h-5z"/></g><g><path fill="#0af" d="M9 10h8v1H9z"/></g><g><path fill="#0a2896" d="M3 14h14v1H3z"/></g><g><path fill="#0a2896" d="M18 14h2v1h-2z"/></g><g><path fill="#0a2896" d="M3 16h14v1H3z"/></g><g><path fill="#0a2896" d="M18 16h2v1h-2z"/></g><g><path fill="#0a2896" d="M3 18h14v1H3z"/></g><g><path fill="#0a2896" d="M18 18h2v1h-2z"/></g><g><path fill="#0a2896" d="M3 20h14v1H3z"/></g><g><path fill="#0a2896" d="M18 20h2v1h-2z"/></g><g><path fill="#0a2896" d="M3 22h14v1H3z"/></g><g><path fill="#0a2896" d="M18 22h2v1h-2z"/></g><g><path fill="#0a2896" d="M3 24h14v1H3z"/></g><g><path fill="#0a2896" d="M18 24h2v1h-2z"/></g><g><path fill="#0af" d="M5.5 10h-1a.5.5 0 0 1-.5-.5H3A1.5 1.5 0 0 0 4.5 11v1h1v-1a1.5 1.5 0 1 0 0-3h-1a.5.5 0 0 1 0-1h1a.5.5 0 0 1 .5.5h1A1.5 1.5 0 0 0 5.5 6V5h-1v1a1.5 1.5 0 1 0 0 3h1a.5.5 0 0 1 0 1z"/></g></g></g></svg>