<svg xmlns="http://www.w3.org/2000/svg" width="28" height="11" viewBox="0 0 28 11"><g><g opacity=".3" transform="matrix(-1 0 0 1 28 0)"><g opacity=".3"><path fill="#1e4bd2" d="M12.5 4h1v1h-1z"/></g><g opacity=".3"><path fill="#1e4bd2" d="M26.6 4.125h-1.35v.916h1.35v1.88a.82.82 0 0 1-.51.765l-1.29.528c0-.042-.005-.084-.008-.126-.003-.042-.004-.092-.008-.138-.005-.046-.014-.091-.02-.137-.008-.046-.014-.092-.022-.133l-.034-.132c-.012-.044-.021-.088-.035-.13-.013-.043-.03-.084-.044-.125l-.046-.126c-.015-.042-.036-.08-.055-.118-.02-.04-.038-.082-.059-.121-.021-.04-.045-.073-.065-.11a1.428 1.428 0 0 0-.07-.116c-.026-.037-.05-.067-.075-.1-.025-.035-.053-.075-.081-.11-.03-.035-.056-.063-.084-.092-.028-.028-.06-.067-.09-.1-.031-.032-.062-.057-.093-.085-.03-.029-.064-.062-.098-.092s-.07-.053-.103-.079c-.035-.026-.069-.054-.105-.078-.036-.024-.076-.046-.115-.072a1.306 1.306 0 0 0-.107-.065c-.036-.02-.081-.04-.123-.06-.041-.02-.074-.039-.112-.055-.038-.017-.09-.034-.135-.05-.045-.017-.074-.03-.112-.042-.052-.016-.104-.028-.157-.041-.034-.008-.067-.02-.101-.027-.056-.011-.112-.017-.169-.026-.033-.004-.065-.012-.098-.015-.09-.01-.18-.014-.275-.014-1.49.001-2.698 1.232-2.7 2.75h-3.6V3.666h4.949c.12 0 .234-.048.318-.134l1.167-1.189c.49.238.966.503 1.427.795a.446.446 0 0 0 .174.065l2.764.402zM23.864 8.61a1.801 1.801 0 0 1-2.124 1.425c-.974-.202-1.603-1.168-1.404-2.157a1.801 1.801 0 0 1 2.124-1.425c.838.174 1.44.922 1.44 1.791 0 .123-.012.246-.036.366zM15.8.917h.255c1.813-.003 3.61.348 5.294 1.033l-.785.8H15.8zm-.9 1.833H8.565l.087-.048A14.19 14.19 0 0 1 14.9.937zm0 5.5H7.7C7.7 6.73 6.49 5.5 5 5.5S2.3 6.73 2.3 8.25h-.9V5.985c0-.42.221-.807.58-1.016A9.593 9.593 0 0 1 6.8 3.666h8.1zm-8.137.36a1.8 1.8 0 0 1-2.123 1.425c-.974-.202-1.603-1.168-1.404-2.157.2-.99 1.15-1.628 2.124-1.425.838.174 1.44.922 1.44 1.791 0 .123-.012.246-.037.366zm20.35-5.856l-3.056-.444a15.33 15.33 0 0 0-1.732-.935A14.922 14.922 0 0 0 16.055 0h-.53A15.078 15.078 0 0 0 8.22 1.897l-1.543.857c-1.806.02-3.577.51-5.146 1.42A2.1 2.1 0 0 0 .5 5.987v2.721c0 .254.201.459.45.459h1.511c.492 1.428 2.026 2.18 3.429 1.679a2.715 2.715 0 0 0 1.648-1.68h12.023c.492 1.429 2.027 2.18 3.429 1.68a2.716 2.716 0 0 0 1.648-1.68h.162a.445.445 0 0 0 .167-.032l1.458-.595A1.733 1.733 0 0 0 27.5 6.92V3.208a.456.456 0 0 0-.386-.454z"/></g></g></g></svg>