<svg xmlns="http://www.w3.org/2000/svg" width="22" height="23" viewBox="0 0 22 23"><g><g opacity=".3"><g opacity=".3"><path fill="#1e4bd2" d="M20.977 21.515H1.033v-1.452h19.944zM2.221 17.576h17.558v1.492H2.221zm2.995-8.754v7.76H3.615v-7.76zm2.634 0v7.76H6.249v-7.76zm2.634 0v7.76H8.883v-7.76zm2.633 0v7.76h-1.6v-7.76zm2.634 0v7.76h-1.6v-7.76zm2.634 0v7.76h-1.601v-7.76zm-7.39-7.173l7.999 6.178H2.996zm10.481 17.42h-.664v-1.973a.542.542 0 0 0-.539-.515h-.855V8.822h1.056a.515.515 0 0 0 .516-.513.498.498 0 0 0-.193-.384L11.323.61a.532.532 0 0 0-.646-.001L1.203 7.922a.495.495 0 0 0-.075.714.534.534 0 0 0 .398.186h1.056v7.76h-.855a.542.542 0 0 0-.54.514v1.972H.525a.508.508 0 0 0-.524.49v2.462c0 .275.239.48.524.48h20.952c.285 0 .524-.205.524-.48v-2.462a.508.508 0 0 0-.524-.49z"/></g></g></g></svg>