<svg xmlns="http://www.w3.org/2000/svg" width="16" height="22" viewBox="0 0 16 22"><g><g opacity=".3"><g opacity=".3"><path fill="#1e4bd2" d="M.743 21.27V.73h1.041v1.011c0 .202.166.366.372.366h9.849l-1.227 5.645H2.156a.369.369 0 0 0-.372.365v11.644c0 .202.166.365.372.365h13.111v1.143zM12.156 1.375h-9.63V.73h9.77zm-3.08 8.182H8.52V8.482h.555zm-3.693 1.364l-.744-.633h7.33v.633zm-.02 6.84a.947.947 0 0 1-.954-.938V12.59c0-.517.428-.938.954-.938h6.86c.525 0 .954.421.954.938v4.234a.947.947 0 0 1-.955.938zm-1.332.73h9.523v.914H4.03zM2.526 8.483h5.251V9.56H3.641a.371.371 0 0 0-.348.238.362.362 0 0 0 .105.404l1.115.949c-.506.29-.847.828-.847 1.444v4.238c0 .348.108.671.294.939h-.3a.369.369 0 0 0-.372.365v1.27h-.762zm11.77 10.914v-1.268a.368.368 0 0 0-.37-.366h-.301a1.64 1.64 0 0 0 .294-.938V12.59a1.64 1.64 0 0 0-.288-.93c.58.067 1.032.553 1.032 1.14v3.65c0 .201.166.365.371.365a.368.368 0 0 0 .372-.366v-3.648c0-1.036-.858-1.88-1.912-1.88h-.782v-.998a.368.368 0 0 0-.372-.365H9.808V8.483h1.263a.37.37 0 0 0 .364-.29L13.119.443a.36.36 0 0 0-.075-.307.374.374 0 0 0-.289-.135H.372A.368.368 0 0 0 0 .365v21.27c0 .201.166.365.372.365h15.256a.368.368 0 0 0 .372-.365V19.76a.368.368 0 0 0-.372-.365z"/></g></g></g></svg>