<svg xmlns="http://www.w3.org/2000/svg" width="25" height="16" viewBox="0 0 25 16"><g><g opacity=".3" transform="matrix(-1 0 0 1 25 0)"><g opacity=".3"><path fill="#1e4bd2" d="M3.429 5.416h2.743V7.84H1.687zm1.117-1.55h3.67v8.852H7.3c-.16-1.359-1.337-2.384-2.735-2.384-1.397 0-2.573 1.025-2.734 2.384H.912V8.923l.138-.193h5.598c.253 0 .458-.2.458-.449V4.958a.454.454 0 0 0-.458-.45h-2.57zM24.074.899v8.048h-12.44a.454.454 0 0 0-.458.449c0 .248.205.449.458.449h12.44v2.874h-2.442c-.16-1.359-1.335-2.384-2.73-2.384-1.396 0-2.57 1.025-2.732 2.384H9.1V2.94h3.308a.454.454 0 0 0 .459-.449.454.454 0 0 0-.459-.449H9.1V.898zm-5.178 14.065c-1.01 0-1.828-.804-1.828-1.796s.819-1.796 1.828-1.796c1.01 0 1.828.804 1.828 1.796 0 .996-.814 1.806-1.828 1.819zm-14.35 0c-1.01 0-1.829-.804-1.829-1.796s.819-1.796 1.828-1.796c1.01 0 1.828.804 1.828 1.796 0 .996-.814 1.806-1.828 1.819zm-2.717-1.347C1.989 14.975 3.164 16 4.559 16c1.396 0 2.57-1.025 2.731-2.384h8.89C16.34 14.975 17.515 16 18.91 16c1.396 0 2.57-1.025 2.731-2.384h2.9a.454.454 0 0 0 .459-.449V.449A.454.454 0 0 0 24.542 0h-15.9a.454.454 0 0 0-.458.45v2.518H4.303c-.15 0-.29.073-.376.194L1.421 6.678.44 8.025l-.358.498A.442.442 0 0 0 0 8.78v4.375a.444.444 0 0 0 .128.324.462.462 0 0 0 .326.138z"/></g></g></g></svg>