<svg xmlns="http://www.w3.org/2000/svg" width="16" height="22" viewBox="0 0 16 22"><g><g opacity=".3"><g opacity=".3"><path fill="#1e4bd2" d="M13.446 21.29H2.544c-1.002 0-1.817-.796-1.817-1.774V5.323c0-.979.815-1.775 1.817-1.775h4.21l8.509 8.309v7.66c0 .977-.815 1.773-1.817 1.773zM2.182 2.13H5.09v.71H2.545c-.123 0-.244.011-.363.028zM1.455.709h4.373v.71H1.455zM13.09 8.715L9.969 5.677h2.758c.2 0 .364.16.364.354zm2.172-3.391v5.53l-1.453-1.42v-3.4c0-.588-.489-1.065-1.09-1.065H9.24l-1.453-1.42h5.66c1.001 0 1.816.796 1.816 1.775zm-1.808-2.484H5.818v-.71h.364a.36.36 0 0 0 .363-.355V.354A.36.36 0 0 0 6.182 0H1.09a.36.36 0 0 0-.364.355v1.42a.36.36 0 0 0 .364.354h.364v.953C.596 3.482 0 4.334 0 5.322v14.194C0 20.886 1.142 22 2.545 22h10.91C14.858 22 16 20.885 16 19.516V5.323c0-1.37-1.142-2.484-2.545-2.484z"/></g><g opacity=".3"><path fill="#1e4bd2" d="M7.505 12.111l1.363 2.542c.28.521.428 1.111.428 1.706v.091c0 .52-.22 1.016-.602 1.362-.387.35-.888.509-1.408.447-.881-.106-1.572-.94-1.572-1.9 0-.595.148-1.185.428-1.707zM5 16.36c0 1.344.945 2.473 2.198 2.623a2.479 2.479 0 0 0 1.963-.626c.533-.483.839-1.178.839-1.906v-.091a4.37 4.37 0 0 0-.514-2.055l-1.672-3.128c-.125-.235-.503-.235-.628 0l-1.672 3.127A4.372 4.372 0 0 0 5 16.36z"/></g><g opacity=".3"><path fill="#1e4bd2" d="M9 16H8c0 .552-.448 1-1 1v1c1.103 0 2-.897 2-2z"/></g></g></g></svg>