<svg xmlns="http://www.w3.org/2000/svg" width="17" height="16" viewBox="0 0 17 16"><g><g><g><path fill="#1e4bd2" d="M14.876 5.195l-3.719-3.679A2.65 2.65 0 0 1 12.84.92c.706 0 1.368.272 1.868.763s.772 1.15.772 1.848a2.58 2.58 0 0 1-.603 1.664zM5.769 14.21l-1.524-1.504 8.467-8.356 1.523 1.503zm4.713-12.05l1.556 1.54-8.457 8.365-1.557-1.539zm4.88-1.124a3.605 3.605 0 0 0-5.057 0L1.033 10.19a.456.456 0 0 0-.132.263l-.686 5.025a.453.453 0 0 0 .13.386.474.474 0 0 0 .329.136c.02 0 .041 0 .062-.003l4.953-.478a.466.466 0 0 0 .383-.317.439.439 0 0 0 .018-.017l9.272-9.154a3.488 3.488 0 0 0 1.05-2.5c0-.944-.374-1.83-1.05-2.495zM1.219 15l.48-3.505 3.209 3.17z"/></g></g></g></svg>