<svg xmlns="http://www.w3.org/2000/svg" width="56" height="69" viewBox="0 0 56 69"><g><g><g><path fill="#0af" d="M44.852 29H16.148c-.634 0-1.148.447-1.148 1 0 .553.514 1 1.148 1h28.704c.634 0 1.148-.447 1.148-1 0-.553-.514-1-1.148-1z"/></g><g><path fill="#0af" d="M16.167 22h11.666c.644 0 1.167-.447 1.167-1 0-.553-.523-1-1.167-1H16.167c-.644 0-1.167.447-1.167 1 0 .553.523 1 1.167 1z"/></g><g><path fill="#0af" d="M44.852 38H16.148c-.634 0-1.148.447-1.148 1 0 .553.514 1 1.148 1h28.704c.634 0 1.148-.447 1.148-1 0-.553-.514-1-1.148-1z"/></g><g><path fill="#0af" d="M44.852 47H16.148c-.634 0-1.148.447-1.148 1 0 .553.514 1 1.148 1h28.704c.634 0 1.148-.447 1.148-1 0-.553-.514-1-1.148-1z"/></g><g><path fill="#0af" d="M44.852 56H16.148c-.634 0-1.148.447-1.148 1 0 .553.514 1 1.148 1h28.704c.634 0 1.148-.447 1.148-1 0-.553-.514-1-1.148-1z"/></g><g><path fill="#0a2896" d="M8.167 66.7V8.05h29.166v16.1h16.334V66.7zm-5.834-5.75V2.3h45.5v12.174l-8.85-8.724H5.833v55.2zM39.667 9.676l10.5 10.35 1.85 1.824h-12.35zm10.5 7.098V0H0v63.25h5.833V69H56V22.524z"/></g></g></g></svg>