<svg xmlns="http://www.w3.org/2000/svg" width="18" height="22" viewBox="0 0 18 22"><g><g><g><path fill="#fff" d="M13.63 10H4.37c-.204 0-.37.224-.37.5 0 .277.166.5.37.5h9.26c.204 0 .37-.224.37-.5 0-.277-.166-.5-.37-.5z"/></g><g><path fill="#fff" d="M4.417 8h4.166C8.813 8 9 7.776 9 7.5c0-.277-.187-.5-.417-.5H4.417C4.187 7 4 7.224 4 7.5c0 .277.187.5.417.5z"/></g><g><path fill="#fff" d="M13.63 12H4.37c-.204 0-.37.224-.37.5 0 .277.166.5.37.5h9.26c.204 0 .37-.224.37-.5 0-.277-.166-.5-.37-.5z"/></g><g><path fill="#fff" d="M13.63 15H4.37c-.204 0-.37.224-.37.5 0 .277.166.5.37.5h9.26c.204 0 .37-.224.37-.5 0-.277-.166-.5-.37-.5z"/></g><g><path fill="#fff" d="M13.63 18H4.37c-.204 0-.37.224-.37.5 0 .277.166.5.37.5h9.26c.204 0 .37-.224.37-.5 0-.277-.166-.5-.37-.5z"/></g><g><path fill="#fff" d="M2.625 21.267v-18.7H12V7.7h5.25v13.567zM.75 19.433V.733h14.625v3.882L12.53 1.833H1.875v17.6zm12-16.348l3.375 3.3.595.582h-3.97zm3.375 2.263V0H0v20.167h1.875V22H18V7.182z"/></g></g></g></svg>