<svg xmlns="http://www.w3.org/2000/svg" width="14" height="20" viewBox="0 0 14 20"><g><g opacity=".3"><g opacity=".3"><path fill="#1e4bd2" d="M12.09 19.219H1.9c-.383 0-.727-.187-.94-.512a1.155 1.155 0 0 1-.182-.811h.631a.387.387 0 0 0 .383-.391.387.387 0 0 0-.383-.39h-.352l.44-1.094h.647a.387.387 0 0 0 .383-.391.387.387 0 0 0-.383-.39h-.332l.44-1.094h.664a.387.387 0 0 0 .383-.391.387.387 0 0 0-.383-.39h-.35l.44-1.094h.683a.387.387 0 0 0 .383-.391.387.387 0 0 0-.383-.39H3.32l.44-1.094h6.468l2.909 7.228c.146.363.107.757-.107 1.083a1.111 1.111 0 0 1-.942.512zM5.002 7.316c.269-.667.405-1.37.405-2.09V2.5c0-.502-.192-.974-.54-1.33a.56.56 0 0 1-.161-.39h4.586a.56.56 0 0 1-.16.39c-.349.356-.54.828-.54 1.33v2.725c0 .72.135 1.423.404 2.09l.925 2.298H4.078zm8.854 10.012L9.707 7.019a4.781 4.781 0 0 1-.348-1.793V2.5c0-.294.112-.57.316-.777.248-.253.385-.59.385-.947V.39A.387.387 0 0 0 9.677 0H4.323a.387.387 0 0 0-.383.39v.387c0 .357.137.694.385.947.204.207.316.483.316.777v2.725c0 .618-.117 1.221-.347 1.793l-1.14 2.833-.002.003-3.01 7.473a1.965 1.965 0 0 0 .18 1.814c.354.537.945.858 1.58.858h10.196a1.89 1.89 0 0 0 1.58-.858c.353-.538.42-1.216.18-1.814z"/></g></g></g></svg>