<svg xmlns="http://www.w3.org/2000/svg" width="20" height="20" viewBox="0 0 20 20"><g><g opacity=".3"><g opacity=".3"><path fill="#1e4bd2" d="M17.217 19.305h-4.59V12.09c0-.555-.431-1.006-.962-1.006h-3.32c-.531 0-.963.451-.963 1.006v7.214h-4.59V7.932L10.006.935l4.681 4.541 1.875 1.82.656.635zm-9.183-7.208c0-.177.138-.321.308-.321h3.326c.17 0 .307.144.307.32v7.209h-3.94zm5.897-9.573h1.965v3.213l-1.965-1.915zm5.464 6.602l-2.843-2.762V1.838h-3.276v1.344L10 0 .605 9.126a.354.354 0 0 0-.017.485c.122.138.33.146.463.017l1.087-1.056V20h15.724V8.572l1.088 1.056a.318.318 0 0 0 .462-.018.354.354 0 0 0-.017-.484z"/></g></g></g></svg>