<svg xmlns="http://www.w3.org/2000/svg" width="23" height="25" viewBox="0 0 23 25"><g><g opacity=".3"><g opacity=".3"><path fill="#1e4bd2" d="M10.258 2.755a.433.433 0 0 0-.339-.328l-1.918-.403-.036-.17 4.731-.93.037.17-1.598 1.094a.415.415 0 0 0-.176.43l2.154 10.048-.083 1.315-.618-1.177zM13.371 16a.435.435 0 0 0 .442-.398l.186-2.94a.405.405 0 0 0-.008-.111l-2.108-9.834 1.598-1.094a.415.415 0 0 0 .176-.43l-.183-.855a.442.442 0 0 0-.522-.33l-5.599 1.1a.424.424 0 0 0-.344.5l.183.856a.433.433 0 0 0 .339.328l1.918.403 2.108 9.834c.008.036.02.071.038.105l1.381 2.633a.445.445 0 0 0 .395.233z"/></g><g opacity=".3"><path fill="#1e4bd2" d="M21.627 11.3l-4.479 9.611a.43.43 0 0 0 .072.47l1.308 1.452-.076.164-4.42-1.98.077-.159 1.975.025h.005a.45.45 0 0 0 .405-.26l4.478-9.614.883-1.047zm.587-3.142l-1.972 2.336a.43.43 0 0 0-.062.097l-4.377 9.399-1.973-.02a.445.445 0 0 0-.41.254l-.38.818a.433.433 0 0 0 .22.577l5.22 2.342c.224.1.488.003.59-.216l.38-.817a.43.43 0 0 0-.07-.47l-1.308-1.45 4.378-9.4a.44.44 0 0 0 .034-.108l.51-2.992a.434.434 0 0 0-.253-.469.45.45 0 0 0-.527.119z"/></g><g opacity=".3"><path fill="#1e4bd2" d="M8.858 12.003l-2.052.037a.463.463 0 0 0-.417.265L2.038 21.97l-.885 1.062.196-1.335L5.7 12.032a.413.413 0 0 0-.089-.464l-1.404-1.403.074-.165 4.65 1.839zm.86-.794L4.215 9.034a.474.474 0 0 0-.605.23l-.37.824a.413.413 0 0 0 .088.464l1.404 1.403-4.259 9.459a.417.417 0 0 0-.032.11l-.437 2.984a.43.43 0 0 0 .279.458.482.482 0 0 0 .544-.133l1.977-2.376a.433.433 0 0 0 .061-.098l4.26-9.459 2.051-.037a.463.463 0 0 0 .417-.264l.37-.823a.423.423 0 0 0-.245-.567z"/></g></g></g></svg>