<svg xmlns="http://www.w3.org/2000/svg" width="69" height="69" viewBox="0 0 69 69"><g><g opacity=".3"><g opacity=".3"><path fill="#0a2896" d="M2.3 66.7v-4.6h26.45v1.15a2.3 2.3 0 0 0 2.3 2.3h6.9a2.3 2.3 0 0 0 2.3-2.3V62.1H66.7v4.6zm11.5-46V46H9.2V20.7zm1.15-4.6v2.3h-6.9v-2.3zM4.6 8.97l29.9-6.642L64.4 8.97v4.83H4.6zm56.35 9.43h-6.9v-2.3h6.9zM59.8 46h-4.6V20.7h4.6zM17.25 19.55h34.5c0 .635.515 1.15 1.15 1.15V46H16.1V20.7a1.15 1.15 0 0 0 1.15-1.15zm34.5-3.45v1.15h-34.5V16.1zM3.01 59.8l5.75-11.5h51.48l5.75 11.5zm28.04 2.3h6.9v1.15h-6.9zm37.835-1.664L62.1 46.879V20.7a1.15 1.15 0 0 0 1.15-1.15V16.1h2.3a1.15 1.15 0 0 0 1.15-1.15v-6.9a1.15 1.15 0 0 0-.9-1.122L34.75.028a1.142 1.142 0 0 0-.5 0L3.2 6.928a1.15 1.15 0 0 0-.9 1.122v6.9c0 .635.515 1.15 1.15 1.15h2.3v3.45c0 .635.515 1.15 1.15 1.15v26.179L.12 60.436c-.079.16-.12.336-.12.514v5.75A2.3 2.3 0 0 0 2.3 69h64.4a2.3 2.3 0 0 0 2.3-2.3v-5.75a1.15 1.15 0 0 0-.115-.514z"/></g><g opacity=".3"><path fill="#0af" d="M8 55h3v3H8z"/></g><g opacity=".3"><path fill="#0af" d="M12 55h3v3h-3z"/></g><g opacity=".3"><path fill="#0af" d="M18 55h32v3H18z"/></g><g opacity=".3"><path fill="#0af" d="M52 55h3v3h-3z"/></g><g opacity=".3"><path fill="#0af" d="M56 55h3v3h-3z"/></g><g opacity=".3"><path fill="#0af" d="M13 50h3v3h-3z"/></g><g opacity=".3"><path fill="#0af" d="M9 50h3v3H9z"/></g><g opacity=".3"><path fill="#0af" d="M19 50h3v3h-3z"/></g><g opacity=".3"><path fill="#0af" d="M23 50h3v3h-3z"/></g><g opacity=".3"><path fill="#0af" d="M27 50h3v3h-3z"/></g><g opacity=".3"><path fill="#0af" d="M33 50h3v3h-3z"/></g><g opacity=".3"><path fill="#0af" d="M37 50h3v3h-3z"/></g><g opacity=".3"><path fill="#0af" d="M41 50h3v3h-3z"/></g><g opacity=".3"><path fill="#0af" d="M47 50h3v3h-3z"/></g><g opacity=".3"><path fill="#0af" d="M51 50h3v3h-3z"/></g><g opacity=".3"><path fill="#0af" d="M55 50h3v3h-3z"/></g><g opacity=".3"><path fill="#0a2896" d="M34.505 9.677a1.172 1.172 0 1 1 0-2.344 1.172 1.172 0 0 1 0 2.344zM31 8.5a3.5 3.5 0 1 0 7 0 3.5 3.5 0 0 0-7 0z"/></g><g opacity=".3"><path fill="#0af" d="M35.25 35.5h-2.5c-.69 0-1.25-.522-1.25-1.167H29c0 1.933 1.679 3.5 3.75 3.5V39h2.5v-1.167c2.071 0 3.75-1.567 3.75-3.5s-1.679-3.5-3.75-3.5h-2.5c-.69 0-1.25-.522-1.25-1.166 0-.645.56-1.167 1.25-1.167h2.5c.69 0 1.25.522 1.25 1.167H39c0-1.933-1.679-3.5-3.75-3.5V25h-2.5v1.167c-2.071 0-3.75 1.567-3.75 3.5s1.679 3.5 3.75 3.5h2.5c.69 0 1.25.522 1.25 1.166 0 .645-.56 1.167-1.25 1.167z"/></g><g opacity=".3"><path fill="#0af" d="M34 22.4a9.6 9.6 0 1 1-9.6 9.6 9.61 9.61 0 0 1 9.6-9.6zM34 44c6.627 0 12-5.373 12-12s-5.373-12-12-12-12 5.373-12 12c.007 6.624 5.376 11.993 12 12z"/></g></g></g></svg>