<svg xmlns="http://www.w3.org/2000/svg" width="19" height="18" viewBox="0 0 19 18"><g><g opacity=".3"><g opacity=".3"><path fill="#1e4bd2" d="M17.615 4.826a3.362 3.362 0 0 1-2.238 2.278c-.538.164-1.13.379-1.698.646l-.006-.008-.258.131-.043.024c-.084.043-.164.09-.245.137-.412.23-.763.475-1.046.734-.02.017-.043.034-.062.052-.124.12-.237.24-.335.365-.17-.197-.345-.39-.52-.583-.264-.29-.531-.574-.803-.85-.291-.296-.594-.59-.904-.878.121-.1.24-.215.355-.341l.06-.075c.242-.278.47-.617.687-1.013.052-.095.105-.188.154-.285l.022-.04.126-.259-.007-.006c.26-.57.468-1.163.628-1.7A3.36 3.36 0 0 1 13.729.887c1.023-.31 2.065-.103 2.862.57a3.669 3.669 0 0 1 .46.467c.665.808.87 1.866.564 2.902zm-1.518 9.478c-.27.274-1.114.257-2.676-.61a17.554 17.554 0 0 1-1.533-.987c-.101-.073-.203-.146-.305-.222-.1-.075-.202-.155-.304-.234l-.046-.035c-.18-.141-.361-.287-.541-.436-.045-.037-.09-.072-.134-.11a27.567 27.567 0 0 1-.515-.444l-.123-.108-.095-.086a28 28 0 0 1-.443-.409l-.069-.063-.143-.136a31.625 31.625 0 0 1-.608-.597c-.202-.204-.397-.41-.59-.617l-.134-.145-.062-.07c-.137-.149-.272-.299-.403-.449l-.085-.096-.107-.125a26.35 26.35 0 0 1-.438-.522l-.109-.135c-.147-.183-.29-.366-.43-.55l-.034-.046c-.078-.103-.157-.206-.231-.308-.075-.104-.146-.206-.218-.309a17.922 17.922 0 0 1-.974-1.554c-.856-1.583-.873-2.439-.603-2.713.109-.11.282-.165.51-.165.965 0 2.926.989 5.288 3.021-.037.068-.073.142-.11.207l-.01.017a5.473 5.473 0 0 1-.263.407l-.009.012a3.92 3.92 0 0 1-.272.338l-.011.013c-.091.1-.183.188-.277.265l-.018.014c-.093.076-.187.14-.283.193l-.461.252.39.354a29.213 29.213 0 0 1 2.827 2.936l.36.429.25-.501a1.91 1.91 0 0 1 .185-.293l.012-.017a2.64 2.64 0 0 1 .258-.285l.014-.013c.099-.095.21-.188.331-.28l.014-.01a5.17 5.17 0 0 1 .401-.27l.019-.011c.064-.04.137-.076.205-.114 2.312 2.835 3.144 5.069 2.603 5.617zM10.64 15.63a5.461 5.461 0 0 1-7.795 0c-2.149-2.18-2.149-5.728 0-7.908a5.413 5.413 0 0 1 1.971-1.28l.15.22c.078.114.156.228.238.343l.048.07a4.744 4.744 0 0 0-1.887 1.174c-1.862 1.89-1.862 4.964 0 6.854a4.728 4.728 0 0 0 3.377 1.417 4.727 4.727 0 0 0 3.378-1.417 4.836 4.836 0 0 0 1.157-1.915c.023.018.046.032.069.05.113.082.226.161.338.24.073.05.146.104.217.153a5.51 5.51 0 0 1-1.261 1.999zm-2.025-4.71l.07.067.082.077.023.021c.14.132.28.262.42.39l.127.118.01.01.046.039c.166.15.333.295.5.437l.086.075a25.093 25.093 0 0 0 .673.55 4.094 4.094 0 0 1-1.052 1.864 4.008 4.008 0 0 1-5.716 0 4.142 4.142 0 0 1 0-5.795 4.012 4.012 0 0 1 1.838-1.066l.097.125c.145.185.293.371.446.557l.074.088c.14.169.284.338.431.506l.04.046.008.01c.038.044.078.087.117.13.126.142.254.284.384.426l.022.023.075.084.067.07a30.46 30.46 0 0 0 1.132 1.148zm9.008-9.471a4.38 4.38 0 0 0-.553-.562C16.08.05 14.786-.21 13.523.174a4.102 4.102 0 0 0-2.742 2.77c-.155.521-.325.99-.506 1.413C7.854 2.31 4.797.476 3.625 1.663c-.62.629-.454 1.873.479 3.597.097.18.203.364.315.55a6.134 6.134 0 0 0-2.092 1.384c-2.436 2.468-2.436 6.485 0 8.954A6.184 6.184 0 0 0 6.743 18c1.6 0 3.2-.617 4.417-1.851a6.228 6.228 0 0 0 1.366-2.121c.183.113.364.22.542.319 1.026.57 1.88.858 2.533.858.428 0 .77-.124 1.016-.374 1.128-1.143-.472-4.027-2.445-6.48.425-.188.897-.365 1.424-.526a4.104 4.104 0 0 0 2.733-2.78c.379-1.282.122-2.592-.705-3.596z"/></g></g></g></svg>