<svg xmlns="http://www.w3.org/2000/svg" width="40" height="40" viewBox="0 0 40 40"><g><g><g><path fill="#0af" d="M34.737 28.3h3.937v10.4h-3.937zm-3.73 10.264a2 2 0 0 1-.724.136H21.01c-.37 0-.734-.103-1.048-.298L7.968 31.314a1.29 1.29 0 0 1-.654-1.13 1.288 1.288 0 0 1 1.07-1.27 1.302 1.302 0 0 1 .897.146l7.247 3.869c.009.04.009.078.02.118a2.633 2.633 0 0 0 2.543 1.924 6.538 6.538 0 0 0 1.084-.191l6.836-1.807-.34-1.256-6.813 1.8c-.3.067-.687.145-.767.152a1.313 1.313 0 0 1-1.272-.957 1.174 1.174 0 0 1-.038-.241s-.005-.157 0-.213c.05-.543.436-1 .968-1.146l7.595-2.007a4.651 4.651 0 0 1 1.189-.155h2.522c.357 0 .707.096 1.013.277l2.353 1.391v7.003zm2.414-9.46l-1.676-.993a3.328 3.328 0 0 0-1.69-.461h-2.522a6.02 6.02 0 0 0-1.53.195l-7.598 2.015a2.637 2.637 0 0 0-1.79 1.64l-6.683-3.573a2.646 2.646 0 0 0-1.789-.292 2.49 2.49 0 0 0-.665.216A2.58 2.58 0 0 0 6 30.184a2.57 2.57 0 0 0 1.3 2.249l11.979 7.08c.52.318 1.12.487 1.732.487h9.27c.414 0 .824-.077 1.21-.228l1.93-.753V40H40V27h-6.58z"/></g><g><path fill="#0a2896" d="M38.677 20.706H13.333V9.589a4.965 4.965 0 0 0 3.002-.744l1.137 1.104c-.5.66-1.293 1.05-2.138 1.051h-.667v5.176h.667c1.473 0 2.668 1.16 2.668 2.589v.647h16.006v-.647c0-1.43 1.195-2.589 2.668-2.589h.667V11h-.667c-1.473 0-2.668-1.159-2.668-2.588v-.647H22.78L21.446 6.47h17.23zM24 13.588c0-1.072.896-1.94 2-1.94s2 .868 2 1.94-.896 1.941-2 1.941-2-.869-2-1.94zm-4.57-1.74c1.045.997 2.721.999 3.767.002-.978 1.471-.592 3.428.877 4.444 1.469 1.016 3.501.73 4.613-.647a3.208 3.208 0 0 0-.456-4.503c-1.367-1.141-3.418-1.037-4.655.237a2.48 2.48 0 0 0 .219-2.322h8.927c.287 1.628 1.6 2.903 3.278 3.181v2.696c-1.677.278-2.991 1.554-3.278 3.182H19.278c-.287-1.628-1.6-2.904-3.278-3.182V12.24a4.007 4.007 0 0 0 2.425-1.37zm-10.489-.372L8.2 11H6.667V2.542l.628.022a3.432 3.432 0 0 0 1.612-.34L10.4 1.5c.278-.135.585-.205.896-.205h8.381a4.707 4.707 0 0 1 3.3 1.326l2.634 2.556h-5.502l-1.618-1.57-.942.915 4.71 4.571a1.27 1.27 0 0 1 .003 1.835 1.366 1.366 0 0 1-1.89.004l-3.934-3.818-.467.389a3.616 3.616 0 0 1-4.493.064l-.387-.304-.84 1.005.39.308c.41.317.868.568 1.359.743v3.126a6.137 6.137 0 0 1-3.059-.968zm-3.608 1.465h-4V1.294h4zm22.163-7.765l-3.576-3.47A6.051 6.051 0 0 0 19.677 0h-8.381a3.44 3.44 0 0 0-1.49.342l-1.495.725c-.3.146-.632.216-.967.203l-.677-.023V0H0v14.235h6.667v-1.94H7.8l.403.258A7.504 7.504 0 0 0 12 13.739V22h28V5.176z"/></g></g></g></svg>