<svg xmlns="http://www.w3.org/2000/svg" width="29" height="16" viewBox="0 0 29 16"><g><g><g><path fill="#0af" d="M13.9 6h1.8c.33 0 .6.224.6.5s-.27.5-.6.5h-1.8zm1.8 2c.993 0 1.8-.673 1.8-1.5S16.693 5 15.7 5h-2.4c-.331 0-.6.224-.6.5V7h-.6c-.331 0-.6.224-.6.5s.269.5.6.5h.6v1h-.6c-.331 0-.6.224-.6.5s.269.5.6.5h.6v.5c0 .276.269.5.6.5.331 0 .6-.224.6-.5V10h1.8c.331 0 .6-.224.6-.5s-.269-.5-.6-.5h-1.8V8z"/></g><g><path fill="#0a2896" d="M14.398.714C12.361.998 7.89.95 5.91 1.368c-.186.04-.253 1.078.049 1.066 2.157-.094 6.531-.376 8.594-.664 4.333-.604 8.432-1.175 12.853-.13v12.427c-4.538-1.012-8.84-.412-13.008.169-4.124.575-8.385 1.169-12.804.114V1.924c.52.118 3.784.43 4.316.51.09.013-.039-.017-.106-.123-.056-.09-.014-.238-.047-.473-.032-.235.18-.472.047-.492-.73-.108-3.917-.437-4.616-.62a.558.558 0 0 0-.474.092.529.529 0 0 0-.214.424v13.521c0 .242.166.453.405.516 2.024.529 3.998.721 5.933.721 2.637 0 5.2-.357 7.715-.708 4.465-.622 8.683-1.21 13.26-.029a.558.558 0 0 0 .474-.093.529.529 0 0 0 .213-.423V1.226a.536.536 0 0 0-.407-.516C23.301-.527 18.775.104 14.398.714z"/></g><g><path fill="#0a2896" d="M2.5 10.982a.55.55 0 0 0 .556.546c.919 0 1.666.735 1.666 1.637 0 .061-.003.124-.01.187a.539.539 0 0 0 .126.412.56.56 0 0 0 .392.193c.493.03.986.043 1.478.043 2.543 0 5.073-.355 7.532-.7 1.417-.2 7.928-.485 9.403-.626.306-.03-.428-.146-.462-.455-.035-.308.094-.622-.207-.592-1.496.147-7.462.392-8.892.592-2.709.38-5.504.773-8.262.674-.122-1.195-1.031-2.166-2.209-2.402V6.426a2.74 2.74 0 0 0 2.112-1.909c2.982.094 5.915-.275 9.145-.728 2.858-.401 5.566-.781 8.313-.683.122 1.193 1.031 2.162 2.208 2.398V9.57a2.73 2.73 0 0 0-2.21 2.426c-.028.3.197.566.502.593a.553.553 0 0 0 .604-.494 1.646 1.646 0 0 1 1.66-1.487.55.55 0 0 0 .555-.546V5.013a.55.55 0 0 0-.556-.546c-.919 0-1.666-.734-1.666-1.637 0-.06.003-.122.01-.183a.539.539 0 0 0-.127-.413.56.56 0 0 0-.392-.193c-3.039-.177-6.099.252-9.058.668-3.347.47-6.365.846-9.416.699a.553.553 0 0 0-.58.495 1.646 1.646 0 0 1-1.66 1.486.55.55 0 0 0-.555.545z"/></g></g></g></svg>