<svg xmlns="http://www.w3.org/2000/svg" width="13" height="16" viewBox="0 0 13 16"><defs><clipPath id="8gkra"><path d="M11.524 5.905a5.953 5.953 0 0 1-1.958 4.436l3.345 4.868a.51.51 0 0 1-.119.7.483.483 0 0 1-.683-.122l-3.332-4.85a5.632 5.632 0 0 1-3.014.873C2.58 11.81 0 9.166 0 5.905S2.58 0 5.763 0c3.182 0 5.761 2.644 5.761 5.905zm-.98.005c0-2.709-2.14-4.906-4.781-4.906C3.12 1.004.98 3.201.98 5.91c0 2.71 2.14 4.905 4.783 4.905 2.64 0 4.781-2.196 4.781-4.905z"/></clipPath></defs><g><g><g><g/><g clip-path="url(#8gkra)"><g><path fill="#8f9399" d="M-4.33-2.67h20.8v21.34h-20.8z"/></g></g></g></g></g></svg>