<svg xmlns="http://www.w3.org/2000/svg" width="20" height="20" viewBox="0 0 20 20"><g><g opacity=".25"><g opacity=".25"><path d="M18.183 18.846H1.827a.674.674 0 0 1 0-1.346h16.356a.674.674 0 0 1 0 1.346zm-9.914-2.5H5.577v-3.654c0-.318.259-.577.577-.577h1.538c.318 0 .577.26.577.577zM3.093 9.997c.043-.002.086-.006.13-.01l.024-.003c.044-.005.088-.01.13-.017h.006a2.91 2.91 0 0 0 .126-.024l.023-.004a2.98 2.98 0 0 0 .123-.029l.024-.006c.042-.012.083-.023.123-.036l.01-.003a2.95 2.95 0 0 0 .115-.04l.021-.008c.039-.014.077-.03.115-.046l.024-.01a2.954 2.954 0 0 0 .231-.114l.019-.01a2.821 2.821 0 0 0 .34-.221l.015-.012c.033-.025.065-.05.096-.077l.02-.017c.032-.026.063-.053.093-.081l.013-.012a2.84 2.84 0 0 0 .084-.082l.013-.012.084-.09.018-.02a2.97 2.97 0 0 0 .08-.094l.011-.015c.025-.03.05-.062.073-.094l.01-.012c0-.002.002-.003.003-.005l.004.005.01.012c.023.032.047.063.072.094l.012.015.08.094.017.02.085.09.012.012a2.658 2.658 0 0 0 .306.269l.016.012.095.069.013.009a3.093 3.093 0 0 0 .232.143l.018.01c.035.02.07.038.106.055l.012.006c.037.019.075.036.113.053l.024.01a2.69 2.69 0 0 0 .252.094l.01.003c.04.013.08.024.122.036l.025.006.123.029.022.004c.042.009.084.017.126.023l.006.001c.043.007.087.012.13.017l.025.003c.043.004.086.008.13.01l.024.001a2.877 2.877 0 0 0 .272 0l.024-.001a2.995 2.995 0 0 0 .285-.03h.005a2.86 2.86 0 0 0 .126-.024l.023-.004.123-.029.024-.006c.042-.012.083-.023.123-.036l.01-.003.115-.04.021-.008c.039-.014.077-.03.115-.046l.024-.01a3.07 3.07 0 0 0 .114-.053l.011-.006a2.756 2.756 0 0 0 .23-.127l.023-.014.104-.067.013-.01.095-.068.015-.012c.033-.025.065-.05.096-.077l.02-.017c.032-.026.063-.053.093-.081l.013-.012c.029-.027.057-.054.084-.082l.013-.012.084-.09.017-.02c.028-.03.055-.062.08-.094l.012-.015c.025-.03.05-.062.073-.094l.01-.012c0-.002.002-.003.003-.005l.004.005.01.012c.023.032.047.063.072.094l.012.015.08.094.017.02.085.09.012.012.085.082.012.012c.03.028.062.055.093.081l.02.017.096.077.016.012.095.069.013.009.103.067.023.014a2.688 2.688 0 0 0 .23.127l.012.006c.037.019.075.036.114.053l.024.01c.037.016.076.032.114.046l.021.008a2.941 2.941 0 0 0 .248.079l.025.006.123.029.022.004c.042.009.084.017.126.023l.006.001c.043.007.087.012.13.017l.025.003c.043.004.086.008.13.01l.024.001a2.884 2.884 0 0 0 .272 0l.024-.001c.044-.002.086-.006.13-.01l.024-.003a2.83 2.83 0 0 0 .13-.017h.006a2.91 2.91 0 0 0 .126-.024l.023-.004.123-.029.024-.006c.042-.012.083-.023.123-.036l.01-.003a2.95 2.95 0 0 0 .115-.04l.021-.008a2.69 2.69 0 0 0 .115-.046l.024-.01c.038-.017.076-.034.114-.053l.012-.006c.035-.017.07-.036.105-.055l.019-.01a2.821 2.821 0 0 0 .34-.221l.015-.012c.033-.025.065-.05.096-.077l.02-.017c.032-.026.063-.053.093-.081l.013-.012a2.84 2.84 0 0 0 .084-.082l.013-.012.084-.09.018-.02a2.97 2.97 0 0 0 .08-.094l.011-.015c.025-.03.05-.062.073-.094l.01-.012c0-.002.002-.003.003-.005l.004.005.01.012c.023.032.047.063.072.094l.012.015.08.094.017.02.085.09.012.012a2.658 2.658 0 0 0 .19.175l.02.017.096.077.016.012a3.005 3.005 0 0 0 .34.221l.019.01a2.642 2.642 0 0 0 .23.114l.025.01a2.772 2.772 0 0 0 .251.094l.01.003c.04.013.081.024.122.036l.025.006.123.029.022.004c.042.009.084.017.126.023l.006.001c.043.007.087.012.13.017l.025.003c.043.004.086.008.13.01l.024.001a2.877 2.877 0 0 0 .184.003v6.355H9.428v-3.659c0-.955-.777-1.733-1.732-1.733h-1.54c-.955 0-1.732.778-1.732 1.733v3.66h-1.54V10a2.57 2.57 0 0 0 .185-.003l.024-.001zM1.216 7.5H4.65a1.959 1.959 0 0 1-.012.043l-.007.024a1.977 1.977 0 0 1-.026.078l-.005.014a2.07 2.07 0 0 1-.024.063l-.011.026a2.092 2.092 0 0 1-.06.125l-.013.026-.028.051-.012.02a2 2 0 0 1-.043.069l-.006.009c-.013.02-.026.039-.04.057l-.016.022a1.825 1.825 0 0 1-.144.17l-.016.017-.057.056-.006.006a1.777 1.777 0 0 1-.054.048l-.02.016a1.818 1.818 0 0 1-.108.083l-.024.017-.047.031-.02.013a1.635 1.635 0 0 1-.07.041l-.005.003a1.679 1.679 0 0 1-.066.034l-.023.012a1.36 1.36 0 0 1-.05.023l-.027.012a2.367 2.367 0 0 1-.13.048l-.024.008a1.652 1.652 0 0 1-.078.023l-.003.001c-.025.007-.05.013-.077.018l-.026.005a1.677 1.677 0 0 1-.227.03l-.027.002a1.556 1.556 0 0 1-.192-.002h-.02a1.75 1.75 0 0 1-.224-.032h-.003A1.81 1.81 0 0 1 1.216 7.5zm2.345-4.104a.579.579 0 0 0 .093-.315V1.73c0-.318.259-.577.577-.577h11.538c.318 0 .577.26.577.578V3.08c0 .111.032.22.093.315l1.92 2.96H1.64zm5.78 4.17a1.975 1.975 0 0 1-.025.079l-.006.014a1.498 1.498 0 0 1-.024.063l-.01.026a1.593 1.593 0 0 1-.06.125l-.013.026-.029.051-.011.02a1.78 1.78 0 0 1-.043.069l-.007.009c-.013.02-.026.039-.04.057l-.015.022-.034.043-.018.023a1.747 1.747 0 0 1-.166.177l-.006.006a1.777 1.777 0 0 1-.054.048l-.02.016a1.539 1.539 0 0 1-.108.083l-.023.017-.048.031-.02.013a1.85 1.85 0 0 1-.069.041c-.002 0-.004.002-.005.003a1.792 1.792 0 0 1-.066.034l-.023.012a1.639 1.639 0 0 1-.05.023l-.028.012a2.733 2.733 0 0 1-.13.048l-.023.008a1.767 1.767 0 0 1-.078.023l-.004.001c-.025.007-.05.013-.076.018l-.026.005a1.691 1.691 0 0 1-.14.022l-.03.004a1.79 1.79 0 0 1-.057.004l-.027.002a1.739 1.739 0 0 1-.17 0l-.026-.002a1.779 1.779 0 0 1-.142-.015l-.03-.004a1.673 1.673 0 0 1-.055-.01l-.027-.006a1.79 1.79 0 0 1-.076-.018H7.2a1.652 1.652 0 0 1-.078-.024l-.024-.008a1.696 1.696 0 0 1-.13-.048l-.027-.012a1.368 1.368 0 0 1-.14-.07l-.004-.002a1.642 1.642 0 0 1-.07-.041l-.02-.013a1.962 1.962 0 0 1-.047-.031l-.024-.017a2.181 2.181 0 0 1-.108-.083l-.02-.016a1.595 1.595 0 0 1-.054-.048l-.006-.006a1.814 1.814 0 0 1-.057-.056l-.016-.017a1.687 1.687 0 0 1-.092-.104l-.019-.023a1.825 1.825 0 0 1-.033-.043l-.016-.022a1.916 1.916 0 0 1-.04-.057l-.006-.01a2 2 0 0 1-.043-.068l-.012-.02a1.905 1.905 0 0 1-.028-.051l-.014-.026a1.713 1.713 0 0 1-.059-.125l-.01-.026a2.07 2.07 0 0 1-.025-.063l-.005-.014a1.945 1.945 0 0 1-.026-.078l-.007-.024a1.754 1.754 0 0 1-.012-.043H9.36a1.959 1.959 0 0 1-.012.043l-.007.024zm4.712 0a1.977 1.977 0 0 1-.026.079l-.005.014a2.07 2.07 0 0 1-.024.063l-.011.026a2.942 2.942 0 0 1-.022.05l-.013.027a1.713 1.713 0 0 1-.024.048l-.014.026-.028.051-.012.02a2 2 0 0 1-.043.069l-.006.009c-.013.02-.026.039-.04.057l-.016.022-.033.043-.019.023a2.261 2.261 0 0 1-.092.104l-.016.017c-.018.02-.038.038-.057.056l-.006.006a1.777 1.777 0 0 1-.054.048l-.02.016a1.818 1.818 0 0 1-.108.083l-.024.017-.047.031-.02.013a1.635 1.635 0 0 1-.07.041l-.005.003a1.679 1.679 0 0 1-.066.034l-.023.012a1.36 1.36 0 0 1-.05.023l-.027.012a2.367 2.367 0 0 1-.13.048l-.024.008a1.652 1.652 0 0 1-.078.023l-.003.001c-.025.007-.05.013-.076.018l-.027.005a1.677 1.677 0 0 1-.227.03l-.027.002a1.737 1.737 0 0 1-.169 0l-.027-.002a1.79 1.79 0 0 1-.057-.004l-.03-.004a2 2 0 0 1-.054-.007l-.03-.004a1.682 1.682 0 0 1-.056-.01l-.026-.006a1.79 1.79 0 0 1-.158-.042l-.024-.008a1.572 1.572 0 0 1-.13-.048l-.027-.012a1.65 1.65 0 0 1-.139-.07l-.005-.002a1.866 1.866 0 0 1-.07-.041l-.02-.013a1.991 1.991 0 0 1-.047-.031l-.023-.017a2.181 2.181 0 0 1-.043-.03l-.023-.018a1.569 1.569 0 0 1-.043-.035l-.02-.016a1.595 1.595 0 0 1-.053-.048l-.006-.006a2.002 2.002 0 0 1-.058-.056l-.016-.017a1.712 1.712 0 0 1-.039-.042l-.019-.022a1.722 1.722 0 0 1-.034-.04l-.018-.023a1.831 1.831 0 0 1-.034-.043l-.015-.022a1.485 1.485 0 0 1-.04-.057l-.007-.01a2 2 0 0 1-.043-.068l-.011-.02a1.911 1.911 0 0 1-.101-.202l-.011-.026a1.485 1.485 0 0 1-.024-.063l-.006-.014a1.959 1.959 0 0 1-.025-.078l-.007-.024a1.272 1.272 0 0 1-.012-.043h3.432a1.959 1.959 0 0 1-.012.043l-.007.024zm3.369 1.243l-.003.001c-.074.015-.15.026-.224.031l-.02.001a1.815 1.815 0 0 1-.192.002l-.027-.002a1.415 1.415 0 0 1-.058-.004l-.03-.004a2.071 2.071 0 0 1-.14-.021l-.025-.006a1.58 1.58 0 0 1-.077-.018h-.003a1.652 1.652 0 0 1-.078-.023l-.024-.009a1.289 1.289 0 0 1-.054-.018l-.027-.01a1.972 1.972 0 0 1-.126-.055l-.023-.011a1.925 1.925 0 0 1-.066-.035l-.005-.003a1.83 1.83 0 0 1-.07-.04l-.02-.014-.047-.031a.794.794 0 0 1-.066-.048l-.023-.017a2.339 2.339 0 0 1-.043-.035l-.02-.016a2.006 2.006 0 0 1-.054-.048l-.006-.006a1.81 1.81 0 0 1-.057-.056l-.016-.017a2.029 2.029 0 0 1-.04-.042l-.018-.022a2.959 2.959 0 0 1-.086-.106l-.016-.022a2.138 2.138 0 0 1-.04-.057l-.006-.01a1.87 1.87 0 0 1-.043-.068l-.012-.02a1.52 1.52 0 0 1-.028-.051l-.014-.026a1.373 1.373 0 0 1-.023-.048 1.819 1.819 0 0 1-.035-.078l-.012-.025a2.426 2.426 0 0 1-.024-.063l-.005-.014a1.943 1.943 0 0 1-.026-.078l-.007-.024a2.238 2.238 0 0 1-.012-.043h3.433a1.81 1.81 0 0 1-1.362 1.31zm.847.928A2.987 2.987 0 0 0 20 7.02l-.001-.062a.577.577 0 0 0-.094-.35v-.002l-1.341-2.062-.008-.013L17.5 2.906V1.73C17.5.776 16.724 0 15.77 0H4.23C3.277 0 2.5.776 2.5 1.73v1.176l-2.404 3.7H.095A.575.575 0 0 0 0 6.948L0 7.02c0 1.209.712 2.25 1.73 2.718v6.612A1.83 1.83 0 0 0 0 18.173C0 19.18.82 20 1.827 20h16.346C19.18 20 20 19.18 20 18.173a1.83 1.83 0 0 0-1.73-1.824z"/></g><g opacity=".25"><path d="M13.857 12.114a.581.581 0 0 1 0 1.164h-1.544a.581.581 0 0 1 0-1.164zm-.008 2.307c.955 0 1.731-.776 1.731-1.73 0-.955-.776-1.731-1.73-1.731h-1.54c-.954 0-1.73.776-1.73 1.73 0 .955.776 1.731 1.73 1.731z"/></g><g opacity=".25"><path d="M15.574 3.077a.577.577 0 0 0-.577-.577h-10a.577.577 0 0 0 0 1.154h10a.577.577 0 0 0 .577-.577z"/></g></g></g></svg>