<svg xmlns="http://www.w3.org/2000/svg" width="20" height="20" viewBox="0 0 20 20"><g><g opacity=".3"><g opacity=".3"><path fill="#1e4bd2" d="M15.071 6.071A.802.802 0 0 1 13.94 4.94a.795.795 0 0 1 .566-.234.801.801 0 0 1 .566 1.366zm.49-1.632A1.49 1.49 0 0 0 14.5 4a1.502 1.502 0 0 0 0 3 1.502 1.502 0 0 0 1.061-2.56z"/></g><g opacity=".3"><path fill="#1e4bd2" d="M5.774 15.25a.407.407 0 0 0-.546.184l-.485.974c-.21.423-.635.706-1.107.738l-.564.04a.239.239 0 0 1-.187-.071.239.239 0 0 1-.07-.187l.039-.564c.032-.472.315-.896.738-1.107l.974-.485a.407.407 0 1 0-.363-.73l-.973.486a2.161 2.161 0 0 0-1.189 1.78l-.039.564a1.055 1.055 0 0 0 1.126 1.126l.564-.04a2.161 2.161 0 0 0 1.78-1.188l.485-.973a.407.407 0 0 0-.183-.546z"/></g><g opacity=".3"><path fill="#1e4bd2" d="M19.206 1.111a11.076 11.076 0 0 1-4.249 8.206l-6.15 4.797c-.51-.3-.986-.653-1.421-1.054l2.073-2.084a.396.396 0 0 0 0-.558.39.39 0 0 0-.554 0l-2.072 2.083a8.344 8.344 0 0 1-1.006-1.379l5.044-6.24a11.028 11.028 0 0 1 7.848-4.07l.365-.023c.048-.003.08.021.095.036.015.014.039.046.037.094zm-5.461 11.706a5.908 5.908 0 0 1-1.726 4.192l-1.68 1.69-.235-4.589 3.64-2.842v1.549zm-6.528 1.815c-.204.172-.414.348-.61.51a4.332 4.332 0 0 1-1.746-1.757l.846-1.01c.256.345.537.672.84.978v.001c.336.34.697.652 1.08.934l-.41.344zM1.293 9.61l1.68-1.695a5.831 5.831 0 0 1 4.163-1.741l1.644.048L5.86 9.847zM19.73.263a.905.905 0 0 0-.695-.261l-.365.023c-3.274.21-6.338 1.8-8.407 4.362l-.86 1.064-2.249-.066h-.012A6.616 6.616 0 0 0 2.42 7.352L.115 9.67a.396.396 0 0 0 .257.673l4.877.252-.199.246a.396.396 0 0 0-.04.437c.076.142.157.28.24.417l-1.156 1.381a.397.397 0 0 0-.055.423 5.135 5.135 0 0 0 2.452 2.466.39.39 0 0 0 .415-.05c.249-.203.536-.444.814-.677.198-.166.4-.336.59-.493.113.068.227.134.343.198a.39.39 0 0 0 .428-.035l.268-.208.251 4.926a.394.394 0 0 0 .392.374.39.39 0 0 0 .277-.116l2.304-2.317a6.694 6.694 0 0 0 1.956-4.75v-2.161l.91-.71a11.877 11.877 0 0 0 4.55-8.796L20 .958a.917.917 0 0 0-.27-.695z"/></g></g></g></svg>