<svg xmlns="http://www.w3.org/2000/svg" width="23" height="22" viewBox="0 0 23 22"><g><g><g><path fill="#1e4bd2" d="M21.79 18.66l-7.127-7.128 1.506-1.505 3.492 3.493V2.839H8.981l3.492 3.492-1.505 1.506L3.84.71h2.337v.71h.71V.71h.71v1.419h.71V.709h.71v.71h.709V.71h.71v1.42h.71V.709h.709v.71h.71V.71h.71v1.42h.709V.709h.71v.71h.71V.71h.709v1.42h.71V.709h.71v.71h.709V.71h.71v1.42h.71V.709h2.128zM1.238 21.262l.393-1.178.785.785zm1.191-3.573l2.382 2.382-1.643.547-1.286-1.286zm1.944.94l5.604-5.604-.502-.502-5.604 5.604-1.095-1.095 7.66-7.66 2.691 2.693-7.66 7.659zM11.5 8.309L14.192 11l-.563.563-2.692-2.692zm2.073-2.074a1.905 1.905 0 0 1 2.692 2.692l-1.571 1.571-2.692-2.692zm-.501-.502l-.097.097-2.281-2.282h8.258v8.258L16.67 9.525l.097-.097c.493-.493.765-1.15.765-1.847a2.616 2.616 0 0 0-2.613-2.613c-.698 0-1.354.272-1.847.765zM22.5 0H2.127l8.339 8.339-8.502 8.502L.5 21.233V22h.767l4.392-1.464 8.502-8.502 8.339 8.339z"/></g><g><path fill="#1e4bd2" d="M10.5 11.586l.586-.586.414.414-.586.586z"/></g></g></g></svg>