<svg xmlns="http://www.w3.org/2000/svg" width="23" height="23" viewBox="0 0 23 23"><g><g><g><path fill="#8f9399" d="M22.019 16.344H16.1c-1.47 0-2.69-1.225-2.69-2.69 0-1.464 1.226-2.69 2.69-2.69h5.919zm-1.023 4.994c0 .39-.296.733-.686.733H1.615c-.39 0-.686-.343-.686-.733V5.971c0-.39.296-.733.686-.733h18.644c.39 0 .685.343.685.733v3.961H16.1a3.634 3.634 0 0 0-3.67 3.67 3.664 3.664 0 0 0 3.67 3.671h4.896zM18.456.93c.245.047.49.343.49.733v2.642H5.43zm4.056 9.003h-.587V5.971c0-.93-.732-1.662-1.615-1.662h-.44V1.662C19.87.732 19.183 0 18.352 0h-.099L1.516 4.304c-.005 0-.014.005-.019.005C.671 4.375 0 5.083 0 5.971v15.367C0 22.268.732 23 1.615 23H20.31c.93 0 1.662-.732 1.662-1.662v-4.065h.54c.296 0 .488-.197.488-.488v-6.36a.491.491 0 0 0-.488-.493z"/></g><g><path fill="#8f9399" d="M15 13.5c0 .303.172.5.344.5h.312c.172 0 .344-.202.344-.5 0-.303-.172-.5-.344-.5h-.308c-.209 0-.348.202-.348.5z"/></g></g></g></svg>