<svg xmlns="http://www.w3.org/2000/svg" width="19" height="18" viewBox="0 0 19 18"><g><g opacity=".3"><g opacity=".3"><path fill="#1e4bd2" d="M18.208 11.445H.792v-9.4c0-.678.531-1.227 1.187-1.227h15.042c.656 0 1.187.55 1.187 1.226zm0 1.646c0 .678-.531 1.227-1.187 1.227H1.979c-.656 0-1.187-.55-1.187-1.227v-.818h17.416zM7.65 17.17l.565-2.035h2.57l.565 2.036zM17.02 0H1.98C.886.001 0 .916 0 2.045v11.046c.001 1.129.887 2.044 1.98 2.045h5.412l-.565 2.046H5.542V18h7.916v-.818h-1.285l-.565-2.046h5.413c1.092-.001 1.978-.916 1.979-2.045V2.045C18.999.916 18.113.001 17.02 0z"/></g></g></g></svg>