<svg xmlns="http://www.w3.org/2000/svg"><symbol id="clip" viewBox="0 0 21 20"><path d="M19.411 1.666c-2.118-2.221-5.553-2.221-7.671 0L1.192 12.728c-1.59 1.667-1.59 4.368 0 6.035a3.916 3.916 0 0 0 4.83.704.657.657 0 0 0 .444-.2L17.014 8.203c1.059-1.11 1.059-2.911 0-4.022a2.623 2.623 0 0 0-3.835 0l-8.63 9.051a.736.736 0 0 0 0 1.006.656.656 0 0 0 .958 0l8.63-9.051a1.31 1.31 0 0 1 1.918 0 1.47 1.47 0 0 1 0 2.01l-10.07 10.56a2.623 2.623 0 0 1-3.834 0c-1.06-1.11-1.06-2.91 0-4.021L12.699 2.672a3.936 3.936 0 0 1 5.754 0c1.589 1.667 1.589 4.367 0 6.034l-9.59 10.057a.736.736 0 0 0 0 1.005.656.656 0 0 0 .96 0L19.41 9.712c2.119-2.222 2.119-5.824 0-8.046z"/></symbol><symbol id="package" viewBox="0 0 20 20"><path d="M10.505 18.679V9.253l3.716-1.748V9.97c0 .28.235.507.522.507a.516.516 0 0 0 .523-.507V7.011l3.18-1.494v9.426zM1.545 5.534L9.46 9.256v9.433l-7.915-3.722zm8.438 2.837L2.212 4.719l3.711-1.743 7.77 3.651zm0-7.303l7.77 3.651-2.861 1.347L7.12 2.415zm9.508 3.647a.502.502 0 0 0-.405-.494L10.213.051a.542.542 0 0 0-.457 0L.796 4.259A.508.508 0 0 0 .5 4.7V15.28c0 .194.113.371.296.456l8.96 4.208c.004 0 .004 0 .009.004.013.005.026.009.039.017.004 0 .009.004.017.004l.04.013c.004 0 .008.004.013.004.013.005.03.005.043.009h.013c.018 0 .04.004.057.004s.04 0 .057-.004h.013a.16.16 0 0 0 .043-.009c.005 0 .009-.004.013-.004l.04-.013c.004 0 .008-.004.017-.004.013-.004.026-.008.04-.017.003 0 .003 0 .008-.004l8.986-4.221a.51.51 0 0 0 .296-.456V4.728c-.009-.004-.009-.009-.009-.013z"/></symbol><symbol id="barcode" viewBox="0 0 18 20"><path d="M2.875 0v16.197H3V0zm-.393 0v16.197h.12V0zm-.453 0v16.197h.142V0zM.82 0v16.197h.576V0zM.76 19.819L.965 20H2.3l.186-.182V18.57a.186.186 0 0 1-.062-.14v-.06c0-.042.02-.08.062-.12v-1.068L2.3 17H.965l-.205.18v.768h.328v-.263c0-.148.006-.234.02-.263 0-.026.021-.039.061-.039h.804l.121.12v.786H1.026v.302h1.069v.967l-.122.12h-.699l-.166-.12v-.505H.76zM0 0v16.197h.575V0zM7 0v16.195h-.576V0zm-.829 0v16.195h-.14V0zm-.39 0v16.195H5.66V0zm.314 18.126v-.623l-.122-.12H5.11c-.028 0-.04.013-.04.039v.525h-.37v-.768l.185-.18H6.3l.186.18v1.251l-.186.221H5.213l-.124.16v.848h1.397V20H4.698v-1.428c0-.015.007-.035.02-.062a.982.982 0 0 1 .043-.08c.027-.027.067-.073.121-.139h1.09zM4.955 0v16.195H4.39V0zm-.83 0v16.195H4V0zM9.425 0H10v16.146h-.575zM9.03 0h.142v16.146H9.03zm-.818 0h.577v16.146h-.577zm-.637 18.594V17.01h.35v1.185h1.09V17.01h.349V20h-.35v-1.406zM7.389 0h.125v16.146H7.39zM7 0h.124v16.146H7zM13.876 0v16.145H14V0zm-.39 0v16.145h.123V0zm-.884 0v16.145h.576V0zm-.784 0v16.145h.142V0zm-.181 19.053l-.001.001v.703l.246.243h1.295l.247-.242v-1.265l-.247-.26h-1.15v-.885h1.396v-.341h-1.788v1.586h1.334l.123.16v.743l-.123.12h-.822c-.013 0-.038-.013-.071-.04-.035-.027-.052-.053-.052-.08a1.201 1.201 0 0 1-.05-.211.6.6 0 0 1-.01-.232zM11 0v16.145h.576V0zM18 0v16.145h-.125V0zm-.392 0v16.145h-.121V0zm-.422 0v16.145h-.585V0zm-1.16 19.616h.821l.126-.119v-.682l-.126-.12h-.821l-.143.12v.682zm-.265-2.61h1.335l.206.18v.763h-.327c0-.04-.01-.115-.023-.23a.925.925 0 0 0-.04-.212c0-.026-.018-.052-.051-.08-.035-.026-.059-.04-.072-.04h-.761l-.143.12v.866l.143-.06h1.007l.267.26v1.186l-.267.241h-1.274l-.248-.241v-2.512zM15.965 0v16.145h-.575V0zm-.84 0v16.145H15V0z"/></symbol><symbol id="magazine" viewBox="0 0 18 20"><path d="M16.704 18.75H11.38c1.026-.375 1.925-.812 2.566-1.437a.56.56 0 0 0 .193-.438V3.752h2.566zM11.267 8.741a.634.634 0 0 0 .448-.782.645.645 0 0 0-.792-.442c-1.286.353-3.667.677-7.12.963a.638.638 0 0 0-.586.687c.03.35.34.609.695.58 3.528-.294 5.97-.626 7.355-1.006zm0 5a.634.634 0 0 0 .448-.782.645.645 0 0 0-.792-.442c-1.286.352-3.667.676-7.12.963a.638.638 0 0 0-.586.686c.03.35.34.61.695.58 3.528-.293 5.97-.625 7.355-1.005zm-9.981 5.01V3.751c2.057 0 8.293-.062 11.571-1.875v14.748C10.93 18.25 5.914 18.688 2.636 18.75h-1.35zM17.357 2.501h-3.214V.627c0-.25-.129-.5-.386-.562-.257-.125-.514-.062-.707.125C10.8 2.377 3.343 2.565.643 2.502a.705.705 0 0 0-.45.188.56.56 0 0 0-.193.437v16.248c0 .313.257.625.643.625h16.714c.386 0 .643-.25.643-.625V3.127c0-.375-.257-.625-.643-.625z"/></symbol><symbol id="package_up" viewBox="0 0 18 22"><path d="M1.835 20.711V8.595h4.423v3.01h5.494v-3.01h4.423V20.71zM7.59 7.293h2.82v3.033H7.59zM6.234 4.726l2.771-2.843 2.77 2.843h-1.358V7.29H7.593V4.726zm5.51 2.58V6.015h3.106L9 0 3.15 6.015h3.105v1.291H.5V22h17V7.306z"/><path d="M3.5 18h3v1h-3zM3.5 16h3v1h-3z"/></symbol><symbol id="hat" viewBox="0 0 25 20"><path d="M22.35 14.983a.694.694 0 0 1-.701-.686c0-.378.315-.686.701-.686.387 0 .702.308.702.686a.694.694 0 0 1-.702.686zm-9.865-7.078L4.271 4.69l8.214-3.214 8.236 3.214zm4.9 2.277c0 .971-2.098 2.058-4.905 2.058-2.807 0-4.905-1.087-4.905-2.058V7.468l4.904 1.924 4.905-1.919v2.71zm7.07 4.115c0-.894-.587-1.656-1.403-1.94V5.263l1.448-.566L12.484 0 .5 4.696l5.673 2.223v3.263c0 1.006.721 1.913 2.03 2.553 1.156.565 2.676.876 4.282.876 1.605 0 3.126-.31 4.28-.876 1.31-.64 2.032-1.547 2.032-2.553V6.925l2.852-1.115v6.548c-.816.283-1.403 1.045-1.403 1.939 0 .818.49 1.526 1.2 1.857l-1.164 3.412 1.331.434.737-2.163.738 2.163 1.33-.434-1.163-3.412a2.057 2.057 0 0 0 1.2-1.857z"/></symbol><symbol id="arrow_left" viewBox="0 0 7 11"><path d="M4.97.243l.125-.14a1.13 1.13 0 0 0-.094.122A.956.956 0 0 1 5.5.101a.956.956 0 0 1 .5.124 1.13 1.13 0 0 0-.095-.121l.124.139c.084.051.164.117.235.196l4.332 4.825c.407.452.408 1.182.004 1.632l.297-.331a.966.966 0 0 1-1.466-.004L5.5 2.183 1.569 6.56a.966.966 0 0 1-1.466.004l.297.331a1.249 1.249 0 0 1 .004-1.632L4.736.439c.071-.08.15-.145.235-.196z" transform="matrix(0 1 1 0 0 0)"/></symbol><symbol id="search" viewBox="0 0 15 18"><path d="M13.297 6.643a6.624 6.624 0 0 1-2.26 4.99l3.86 5.477a.565.565 0 1 1-.925.65l-3.844-5.455a6.622 6.622 0 0 1-3.479.98A6.645 6.645 0 0 1 0 6.644 6.646 6.646 0 0 1 6.65 0a6.646 6.646 0 0 1 6.647 6.643zm-1.13 0A5.516 5.516 0 0 0 6.648 1.13a5.516 5.516 0 0 0-5.518 5.513 5.515 5.515 0 0 0 5.518 5.513 5.515 5.515 0 0 0 5.517-5.513z"/></symbol><symbol id="internet" viewBox="0 0 22 22"><path d="M14.316 20.028a11.768 11.768 0 0 0 1.85-4.18c.807.224 1.49.586 2.12 1.018a.63.63 0 0 0 .256.086 9.642 9.642 0 0 1-4.162 3.054zm-10.83-3.025a.7.7 0 0 0 .127-.064 9.732 9.732 0 0 1 2.132-1.144c.431 1.598 1.078 3.026 1.959 4.277-1.718-.675-3.135-1.718-4.205-3.052zm-.75-10.911c.03.041.064.077.101.108a11.275 11.275 0 0 0 2.619 1.374c-.093 1.047-.192 2.223-.192 3.423 0 1.2.099 2.376.288 3.522-1.058.255-1.96.734-2.78 1.32.008.001-.016.027-.038.056a9.4 9.4 0 0 1-1.36-4.9c0-1.812.506-3.505 1.384-4.947zm4.95-4.117a11.775 11.775 0 0 0-1.855 4.183c-.849-.24-1.568-.628-2.228-1.094a.941.941 0 0 0-.122-.047 9.653 9.653 0 0 1 4.138-3.023zm10.835 3.028a.625.625 0 0 0-.14.064 9.745 9.745 0 0 1-2.126 1.136c-.432-1.595-1.08-3.02-1.964-4.267 1.722.672 3.143 1.713 4.215 3.045zm-7.526-3.628c1.516 0 3.105 2.014 3.878 5.287-1.164.32-2.5.503-3.88.503a15.21 15.21 0 0 1-3.985-.528c.882-3.251 2.47-5.262 3.987-5.262zM11 13.461h-.008a16.41 16.41 0 0 0-4.254.558c-.024-.926-.103-1.964-.103-3.021s.08-2.095.232-3.109c1.23.452 2.659.646 4.133.646 1.474 0 2.903-.194 4.262-.558.024.926.104 1.964.104 3.02 0 1.057-.08 2.094-.233 3.108-1.226-.45-2.65-.642-4.117-.642h-.017zm-.005 7.164c-1.516 0-3.105-2.013-3.878-5.287 1.164-.32 2.5-.503 3.88-.503 1.379 0 2.715.183 3.985.528-.881 3.25-2.47 5.262-3.987 5.262zm8.055-4.91a11.362 11.362 0 0 0-2.5-1.286c.093-1.048.193-2.227.193-3.428s-.1-2.38-.29-3.528c1.054-.252 1.952-.728 2.77-1.309-.004-.004.025-.034.05-.067a9.396 9.396 0 0 1 1.364 4.906 9.477 9.477 0 0 1-1.41 4.987.414.414 0 0 0-.174-.274zM11 0C4.925 0 0 4.925 0 11s4.925 11 11 11 11-4.925 11-11C21.992 4.928 17.072.008 11 0z"/></symbol><symbol id="user" viewBox="0 0 20 22"><path d="M15.76 5.832a5.846 5.846 0 0 1-2.628 4.898c2.615.65 4.837 2.123 6.13 4.24.418.685.738 1.672.738 2.51 0 2.503-2.002 4.52-4.477 4.52H4.476C2.002 22 0 19.983 0 17.48c0-.838.32-1.825.737-2.51 1.296-2.12 3.522-3.594 6.143-4.243a5.846 5.846 0 0 1-2.625-4.895C4.255 2.611 6.83 0 10.008 0c3.177 0 5.752 2.611 5.752 5.832zm-5.765 5.815c-3.504 0-6.64 1.493-8.172 4.004-.3.493-.546 1.252-.546 1.828 0 1.787 1.427 3.227 3.197 3.227h11.041c1.77 0 3.198-1.44 3.198-3.227 0-.575-.246-1.334-.546-1.827-1.533-2.512-4.668-4.005-8.172-4.005zm4.489-5.815c0-2.506-2.004-4.538-4.476-4.538-2.473 0-4.477 2.032-4.477 4.538 0 2.506 2.004 4.537 4.477 4.537 2.472 0 4.476-2.03 4.476-4.537z"/></symbol><symbol id="notification" viewBox="0 0 20 22"><path d="M1.814 18.096l1.2-1.926a8.446 8.446 0 0 0 1.288-4.472V9.404c0-3.028 2.558-5.49 5.703-5.49 3.145 0 5.703 2.462 5.703 5.49v2.294c0 1.575.445 3.121 1.286 4.472l1.202 1.926zm17.618.212L17.8 15.69a7.559 7.559 0 0 1-1.15-3.999V9.4C16.65 5.872 13.666 3 10 3 6.334 3 3.35 5.872 3.35 9.4v2.292a7.559 7.559 0 0 1-1.15 4L.568 18.307a.442.442 0 0 0-.007.46.48.48 0 0 0 .414.232h18.05a.48.48 0 0 0 .414-.232.442.442 0 0 0-.007-.46z"/><path d="M10 0C8.621 0 7.5.797 7.5 1.778v1.778c0 .245.28.444.625.444s.625-.2.625-.444V1.778c0-.49.56-.89 1.25-.89s1.25.4 1.25.89v1.778c0 .245.28.444.625.444s.625-.2.625-.444V1.778C12.5.798 11.379 0 10 0zM12.162 18.246a.5.5 0 1 0-.864.506A1.502 1.502 0 0 1 10 21a1.502 1.502 0 0 1-1.298-2.247.502.502 0 0 0-.18-.685.503.503 0 0 0-.684.18A2.502 2.502 0 0 0 9.999 22a2.505 2.505 0 0 0 2.501-2.501c0-.442-.117-.876-.338-1.254z"/></symbol><symbol id="cart" viewBox="0 0 25 22"><path d="M23.297 4.4l-2.512 8.8H8.645L6.69 4.4zM8.056 14.667h13.282a.733.733 0 0 0 .704-.532l2.93-10.267a.734.734 0 0 0-.704-.935H6.366L5.842.574A.733.733 0 0 0 5.127 0H.732a.733.733 0 0 0 0 1.467H4.54L7.184 13.38a2.201 2.201 0 0 0 .873 4.219h13.28a.733.733 0 0 0 0-1.467H8.058a.734.734 0 0 1-.002-1.466zM8.694 19.067a.727.727 0 0 1 0 1.456.727.727 0 0 1 0-1.456zM6.52 19.8c0 1.213.975 2.2 2.174 2.2 1.199 0 2.174-.987 2.174-2.2s-.975-2.2-2.174-2.2c-1.199 0-2.174.987-2.174 2.2zM18.474 19.067a.727.727 0 0 1 0 1.456.727.727 0 0 1 0-1.456zM16.3 19.8c0 1.213.975 2.2 2.174 2.2 1.199 0 2.174-.987 2.174-2.2s-.975-2.2-2.174-2.2c-1.199 0-2.174.987-2.174 2.2z"/></symbol><symbol id="battery" viewBox="0 0 25 21"><path d="M24.184 20.208H.806V7.132h23.378zM.806 3.962h23.378V6.34H.806zm.807-1.188h4.839v.396h-4.84zm.806-1.585a.4.4 0 0 1 .404-.397h2.419a.4.4 0 0 1 .403.397v.792H2.42zm16.13 1.585h4.838v.396h-4.839zm.806-1.585a.4.4 0 0 1 .403-.397h2.42a.4.4 0 0 1 .403.397v.792h-3.226zm5.242 1.98h-.403v-.792a.4.4 0 0 0-.404-.396h-.403V1.19A1.2 1.2 0 0 0 22.177 0h-2.419a1.2 1.2 0 0 0-1.21 1.189v.792h-.403a.4.4 0 0 0-.403.396v.793H7.258v-.793a.4.4 0 0 0-.403-.396h-.403V1.19A1.2 1.2 0 0 0 5.242 0h-2.42a1.2 1.2 0 0 0-1.21 1.189v.792H1.21a.4.4 0 0 0-.404.396v.793H.403A.4.4 0 0 0 0 3.566v17.038A.4.4 0 0 0 .403 21h24.194a.4.4 0 0 0 .403-.396V3.566a.4.4 0 0 0-.403-.396z"/><path d="M12.375 9.65v3.85c0 .217.168.393.375.393h1.16l-2.285 3.457V13.5a.384.384 0 0 0-.375-.393h-1.16zm-1.5 4.243v4.714a.39.39 0 0 0 .263.375.368.368 0 0 0 .42-.151l3.375-5.108a.408.408 0 0 0 .024-.405.373.373 0 0 0-.332-.21h-1.5V8.392a.391.391 0 0 0-.263-.375.366.366 0 0 0-.42.151l-3.375 5.107a.408.408 0 0 0-.024.406c.065.13.192.21.332.21zm-8.042-.806h.836a.418.418 0 0 0 .418-.418v-.836h.836v.836c0 .231.187.418.418.418h.836v.836H5.34a.418.418 0 0 0-.418.418v.836h-.836v-.836a.418.418 0 0 0-.418-.418h-.836zm-.416 1.663h.833v.833c0 .23.187.417.417.417h1.666c.23 0 .417-.187.417-.417v-.833h.833c.23 0 .417-.187.417-.417v-1.666a.417.417 0 0 0-.417-.417H5.75v-.833A.417.417 0 0 0 5.333 11H3.667a.417.417 0 0 0-.417.417v.833h-.833a.417.417 0 0 0-.417.417v1.666c0 .23.187.417.417.417zm16.416-2.083h3.344v.656h-3.344zM18.417 14h4.166c.23 0 .417-.15.417-.333v-1.334c0-.184-.187-.333-.417-.333h-4.166c-.23 0-.417.15-.417.333v1.334c0 .184.187.333.417.333z"/></symbol><symbol id="bowling" viewBox="0 0 22 22"><path d="M14.787 6.735a9.79 9.79 0 0 0 .093-1.313c0-.032-.004-.064-.004-.096h2.249c0 .032-.004.064-.004.096 0 .439.03.877.089 1.313zM16.472.79c.49.157.859.544.975 1.023a1.4 1.4 0 0 1 .006.601.343.343 0 0 0 .007.167l-.206 1.173a9.35 9.35 0 0 0-.109.85h-2.301a9.274 9.274 0 0 0-.108-.848l-.207-1.174a.335.335 0 0 0 .008-.163 1.516 1.516 0 0 1-.03-.288c0-.42.196-.82.537-1.089A1.55 1.55 0 0 1 16.472.79zM15.62.03c-1.177.193-1.988 1.229-1.843 2.355a.333.333 0 0 0-.012.162L14 3.88a9.128 9.128 0 0 1-.126 3.706 8.645 8.645 0 0 1-.374 1.159l.697.254c.165-.408.3-.827.404-1.253.023-.097.041-.195.062-.293h2.67c.11.527.268 1.044.47 1.546l.697-.255a8.809 8.809 0 0 1-.632-3.323c0-.516.044-1.031.132-1.54l.236-1.334a.336.336 0 0 0-.011-.161c.03-.242.017-.486-.038-.724-.26-1.107-1.39-1.824-2.568-1.632zM2.226 10.287c.355-.72.622-1.484.794-2.275.022-.1.038-.202.057-.303H5.56a10.1 10.1 0 0 0 .85 2.577c.118.238.222.482.313.733a13.735 13.735 0 0 0-.67 4.385 13.707 13.707 0 0 0 .67 4.376 6.494 6.494 0 0 1-.753 1.487H2.668c-.91-1.288-1.47-3.511-1.47-5.863a12.02 12.02 0 0 1 1.028-5.117zm1.211-9.202A1.334 1.334 0 0 1 4.77.824c.458.162.802.564.91 1.06.043.204.045.416.006.622a.393.393 0 0 0 .007.173L5.5 3.894c-.046.289-.079.584-.101.881H3.25a10.616 10.616 0 0 0-.101-.879l-.193-1.215a.385.385 0 0 0 .008-.17 1.745 1.745 0 0 1-.03-.298c0-.436.185-.85.503-1.128zm2.005 5.892H3.196c.056-.454.085-.91.086-1.367 0-.033-.004-.066-.004-.1h2.083c0 .034-.004.067-.004.1 0 .457.03.913.085 1.367zm3.552-5.892a1.334 1.334 0 0 1 1.333-.262c.458.163.802.564.91 1.06.043.205.045.417.006.623a.393.393 0 0 0 .007.173l-.193 1.215c-.046.289-.079.584-.1.881h-2.15a10.616 10.616 0 0 0-.1-.879l-.194-1.215a.385.385 0 0 0 .008-.17 1.737 1.737 0 0 1-.029-.298c0-.436.184-.85.502-1.128zm-.24 5.892c.056-.454.085-.91.086-1.367 0-.033-.003-.066-.003-.1h2.092c0 .034-.004.067-.004.1.001.457.03.913.086 1.367zM2.5 22h3.648a.34.34 0 0 0 .27-.136 6.22 6.22 0 0 0 .685-1.16c.188.412.418.801.686 1.16a.34.34 0 0 0 .27.136h3.647v-.733H8.23a6.6 6.6 0 0 1-.8-1.606 12.792 12.792 0 0 1-.673-4.257c-.018-1.453.21-2.899.674-4.268.101-.29.22-.575.357-.85a9.878 9.878 0 0 0 .794-2.274c.022-.1.039-.202.058-.303h2.487c.153.817.405 1.61.749 2.36l.625-.322a9.893 9.893 0 0 1-.88-4.137c0-.533.04-1.066.123-1.592l.22-1.378a.385.385 0 0 0-.01-.167 2.4 2.4 0 0 0-.035-.747C11.678.58 10.625-.167 9.527.032c-1.098.2-1.853 1.275-1.714 2.44a.38.38 0 0 0-.01.168l.218 1.378a10.433 10.433 0 0 1-.117 3.827 9.156 9.156 0 0 1-.734 2.101c-.025.05-.044.098-.068.147-.023-.05-.042-.098-.067-.147A9.816 9.816 0 0 1 6.06 5.61c0-.533.041-1.066.124-1.592l.219-1.378a.385.385 0 0 0-.01-.167 2.37 2.37 0 0 0-.035-.747C6.12.58 5.067-.167 3.97.032c-1.098.2-1.852 1.275-1.714 2.44a.38.38 0 0 0-.01.168l.219 1.378a10.433 10.433 0 0 1-.117 3.827 9.152 9.152 0 0 1-.734 2.1 12.599 12.599 0 0 0-1.11 5.46c0 2.635.646 5.05 1.728 6.459A.341.341 0 0 0 2.5 22z"/><path d="M2.13 15.5a14.016 14.016 0 0 1 .37-3.287L1.896 12a14.927 14.927 0 0 0-.396 3.5 14.651 14.651 0 0 0 .395 3.5l.604-.215a13.704 13.704 0 0 1-.369-3.286zM7.896 12a14.927 14.927 0 0 0-.396 3.5 14.6 14.6 0 0 0 .395 3.5l.604-.215a13.704 13.704 0 0 1-.369-3.286 14.016 14.016 0 0 1 .37-3.286zm7.608-2.235c2.903.043 5.23 2.618 5.21 5.766-.02 3.148-2.38 5.689-5.283 5.689-2.903 0-5.262-2.541-5.282-5.689-.02-3.148 2.306-5.723 5.21-5.766zm-4.359 1.263c-1.648 1.885-2.104 4.652-1.158 7.037.946 2.386 3.112 3.933 5.509 3.935.054 0 .11 0 .164-.002 2.715-.079 5.042-2.123 5.674-4.984.633-2.861-.587-5.826-2.974-7.228-2.388-1.402-5.346-.893-7.215 1.242z"/><path d="M11.247 14.983c-.029-.954.427-1.872 1.253-2.527L11.988 12c-.981.777-1.522 1.868-1.486 3zm3.248-1.316a.328.328 0 1 1 0 .656.328.328 0 0 1 0-.656zM13.5 14a1 1 0 1 0 2 0 1 1 0 0 0-2 0zm3.995-.333a.328.328 0 1 1 0 .656.328.328 0 0 1 0-.656zM17.5 15a1 1 0 1 0 0-2 1 1 0 0 0 0 2zm-1.005 3.667a.328.328 0 1 1 0 .656.328.328 0 0 1 0-.656zM15.5 19a1 1 0 1 0 2 0 1 1 0 0 0-2 0z"/></symbol><symbol id="box" viewBox="0 0 20 20"><path d="M10.302 19.24V9.244l2.055-.978a.291.291 0 0 0 .138-.39.299.299 0 0 0-.397-.137l-2.093.996-.824-.392a.299.299 0 0 0-.396.137.291.291 0 0 0 .138.39l.785.374v9.996l-8.614-4.1V5.143l6.56 3.122a.299.299 0 0 0 .396-.136.291.291 0 0 0-.138-.391L1.48 4.677l2.951-1.405 8.924 4.248.005.005v3.516c0 .1.052.195.139.248a.3.3 0 0 0 .287.016l.16-.077v.346l1.618-.775v-.34l.444-.212a.293.293 0 0 0 .168-.264V6.448l2.74-1.304v9.995zm5.262-11.51v2.728l-1.618.77V8.506zM6.866 2.123l8.499 4.061-1.74.832-8.497-4.06zM10 .618l8.52 4.059-2.47 1.176a.294.294 0 0 0-.05-.031l-8.462-4.03zm9.332 3.795L10.13.029a.3.3 0 0 0-.258 0L.668 4.413a.293.293 0 0 0-.168.264v10.646c0 .113.065.215.168.264l9.203 4.384a.3.3 0 0 0 .258 0l9.203-4.384a.293.293 0 0 0 .168-.264V4.677a.293.293 0 0 0-.168-.264z"/></symbol><symbol id="car" viewBox="0 0 28 11"><path d="M15.5 4h-1v1h1z"/><path d="M1.4 4.125h1.35v.916H1.4v1.88a.82.82 0 0 0 .51.765l1.29.528c0-.042.005-.084.008-.126.003-.042.004-.092.008-.138.005-.046.014-.091.02-.137.008-.046.014-.092.022-.133l.034-.132c.012-.044.021-.088.035-.13.013-.043.03-.084.044-.125l.046-.126c.015-.042.036-.08.055-.118.02-.04.038-.082.059-.121.021-.04.045-.073.065-.11a1.428 1.428 0 0 1 .07-.116c.026-.037.05-.067.075-.1.025-.035.053-.075.081-.11.03-.035.056-.063.084-.092.028-.028.06-.067.09-.1.031-.032.062-.057.093-.085.03-.029.064-.062.098-.092s.07-.053.103-.079c.035-.026.069-.054.105-.078.036-.024.076-.046.115-.072a1.306 1.306 0 0 1 .107-.065c.036-.02.081-.04.123-.06.041-.02.074-.039.112-.055.038-.017.09-.034.135-.05.045-.017.074-.03.112-.042.052-.016.104-.028.157-.041.034-.008.067-.02.101-.027.056-.011.112-.017.169-.026.033-.004.065-.012.098-.015.09-.01.18-.014.275-.014 1.49.001 2.698 1.232 2.7 2.75h3.6V3.666H7.25a.443.443 0 0 1-.318-.134L5.765 2.343c-.49.238-.966.503-1.427.795a.446.446 0 0 1-.174.065L1.4 3.605zM4.136 8.61a1.801 1.801 0 0 0 2.124 1.425c.974-.202 1.603-1.168 1.404-2.157A1.801 1.801 0 0 0 5.54 6.453 1.821 1.821 0 0 0 4.1 8.244c0 .123.012.246.036.366zM12.2.917h-.255A13.986 13.986 0 0 0 6.651 1.95l.785.8H12.2zm.9 1.833h6.335l-.087-.048A14.19 14.19 0 0 0 13.1.937zm0 5.5h7.2c0-1.52 1.21-2.75 2.7-2.75s2.7 1.23 2.7 2.75h.9V5.985c0-.42-.221-.807-.58-1.016a9.593 9.593 0 0 0-4.82-1.303h-8.1zm8.137.36a1.8 1.8 0 0 0 2.123 1.425c.974-.202 1.603-1.168 1.404-2.157-.2-.99-1.15-1.628-2.124-1.425a1.821 1.821 0 0 0-1.403 2.157zM.887 2.754l3.056-.444a15.33 15.33 0 0 1 1.732-.935A14.922 14.922 0 0 1 11.945 0h.53a15.078 15.078 0 0 1 7.305 1.897l1.543.857c1.806.02 3.577.51 5.146 1.42A2.1 2.1 0 0 1 27.5 5.987v2.721a.454.454 0 0 1-.45.459h-1.511c-.492 1.428-2.026 2.18-3.429 1.679a2.715 2.715 0 0 1-1.648-1.68H8.439c-.492 1.429-2.027 2.18-3.429 1.68a2.716 2.716 0 0 1-1.648-1.68H3.2a.445.445 0 0 1-.167-.032l-1.458-.595A1.733 1.733 0 0 1 .5 6.92V3.208a.456.456 0 0 1 .386-.454z"/></symbol><symbol id="city_hall" viewBox="0 0 22 23"><path d="M20.977 21.515H1.033v-1.452h19.944zM2.221 17.576h17.558v1.492H2.221zm2.995-8.754v7.76H3.615v-7.76zm2.634 0v7.76H6.249v-7.76zm2.634 0v7.76H8.883v-7.76zm2.633 0v7.76h-1.6v-7.76zm2.634 0v7.76h-1.6v-7.76zm2.634 0v7.76h-1.601v-7.76zm-7.39-7.173l7.999 6.178H2.996zm10.481 17.42h-.664v-1.973a.542.542 0 0 0-.539-.515h-.855V8.822h1.056a.515.515 0 0 0 .516-.513.498.498 0 0 0-.193-.384L11.323.61a.532.532 0 0 0-.646-.001L1.203 7.922a.495.495 0 0 0-.075.714.534.534 0 0 0 .398.186h1.056v7.76h-.855a.542.542 0 0 0-.54.514v1.972H.525a.508.508 0 0 0-.524.49v2.462c0 .275.239.48.524.48h20.952c.285 0 .524-.205.524-.48v-2.462a.508.508 0 0 0-.524-.49z"/></symbol><symbol id="coffee" viewBox="0 0 16 22"><path d="M.743 21.27V.73h1.041v1.011c0 .202.166.366.372.366h9.849l-1.227 5.645H2.156a.369.369 0 0 0-.372.365v11.644c0 .202.166.365.372.365h13.111v1.143zM12.156 1.375h-9.63V.73h9.77zm-3.08 8.182H8.52V8.482h.555zm-3.693 1.364l-.744-.633h7.33v.633zm-.02 6.84a.947.947 0 0 1-.954-.938V12.59c0-.517.428-.938.954-.938h6.86c.525 0 .954.421.954.938v4.234a.947.947 0 0 1-.955.938zm-1.332.73h9.523v.914H4.03zM2.526 8.483h5.251V9.56H3.641a.371.371 0 0 0-.348.238.362.362 0 0 0 .105.404l1.115.949c-.506.29-.847.828-.847 1.444v4.238c0 .348.108.671.294.939h-.3a.369.369 0 0 0-.372.365v1.27h-.762zm11.77 10.914v-1.268a.368.368 0 0 0-.37-.366h-.301a1.64 1.64 0 0 0 .294-.938V12.59a1.64 1.64 0 0 0-.288-.93c.58.067 1.032.553 1.032 1.14v3.65c0 .201.166.365.371.365a.368.368 0 0 0 .372-.366v-3.648c0-1.036-.858-1.88-1.912-1.88h-.782v-.998a.368.368 0 0 0-.372-.365H9.808V8.483h1.263a.37.37 0 0 0 .364-.29l1.684-7.75a.36.36 0 0 0-.075-.307.374.374 0 0 0-.289-.135H.372A.368.368 0 0 0 0 .365v21.27c0 .201.166.365.372.365h15.256a.368.368 0 0 0 .372-.365V19.76a.368.368 0 0 0-.372-.365z"/></symbol><symbol id="cream" viewBox="0 0 24 23"><path d="M.5 0l1.838 21h6.1v-.75H3.022L1.314.75h10.372l-.824 9.419.743.065L12.5 0z"/><path d="M2.5 15h6v1h-6zm7.992-12.734c-.043-.18-.245-.297-.451-.259a19.443 19.443 0 0 1-7.081 0c-.206-.038-.408.077-.452.258-.043.18.088.357.294.395 1.22.227 2.452.34 3.687.34 1.235 0 2.474-.113 3.708-.34.206-.037.338-.214.295-.394zM9.232 22.2V11.8h13.536v10.4zM8.5 11v12h15V11z"/><path d="M16 20.222a2.725 2.725 0 0 1-2.722-2.722A2.725 2.725 0 0 1 16 14.778a2.725 2.725 0 0 1 2.722 2.722A2.725 2.725 0 0 1 16 20.222zM16 14c-1.93 0-3.5 1.57-3.5 3.5S14.07 21 16 21s3.5-1.57 3.5-3.5S17.93 14 16 14zm4.25-4.66c-.467-.347-.907-.675-.98-1.08a.326.326 0 0 0-.272-.254.36.36 0 0 0-.36.141c-.592.87-2.197.828-3.749.788-1.505-.039-3.06-.079-3.865.724-.459.459-.614 1.118-.475 2.015.026.168.2.285.388.262.188-.024.32-.179.293-.347-.11-.707-.01-1.204.306-1.52.591-.59 1.985-.554 3.333-.519 1.497.039 3.037.078 3.952-.648.24.352.619.635.99.911.812.606 1.253.986.846 1.746-.082.154-.01.337.162.41a.367.367 0 0 0 .148.031.35.35 0 0 0 .31-.175C21.935 10.595 21 9.9 20.25 9.34z"/></symbol><symbol id="truck" viewBox="0 0 25 16"><path d="M21.571 5.416h-2.743V7.84h4.485zm-1.117-1.55h-3.67v8.852h.916c.16-1.359 1.337-2.384 2.735-2.384 1.397 0 2.573 1.025 2.734 2.384h.919V8.923l-.138-.193h-5.598a.453.453 0 0 1-.458-.449V4.958a.454.454 0 0 1 .458-.45h2.57zM.926.899v8.048h12.44a.454.454 0 0 1 .458.449.454.454 0 0 1-.458.449H.926v2.874h2.442c.16-1.359 1.335-2.384 2.73-2.384 1.396 0 2.57 1.025 2.732 2.384h7.07V2.94h-3.308a.454.454 0 0 1-.459-.449.454.454 0 0 1 .459-.449H15.9V.898zm5.178 14.065c1.01 0 1.828-.804 1.828-1.796s-.819-1.796-1.828-1.796c-1.01 0-1.828.804-1.828 1.796 0 .996.814 1.806 1.828 1.819zm14.35 0c1.01 0 1.829-.804 1.829-1.796s-.819-1.796-1.828-1.796c-1.01 0-1.828.804-1.828 1.796 0 .996.814 1.806 1.828 1.819zm2.717-1.347c-.16 1.358-1.335 2.383-2.73 2.383-1.396 0-2.57-1.025-2.731-2.384H8.82C8.66 14.975 7.485 16 6.09 16c-1.396 0-2.57-1.025-2.731-2.384h-2.9A.454.454 0 0 1 0 13.167V.449A.454.454 0 0 1 .458 0h15.9a.454.454 0 0 1 .458.45v2.518h3.881c.15 0 .29.073.376.194l2.506 3.516.981 1.347.358.498A.442.442 0 0 1 25 8.78v4.375a.444.444 0 0 1-.128.324.462.462 0 0 1-.326.138z"/></symbol><symbol id="diesel" viewBox="0 0 16 22"><path d="M13.446 21.29H2.544c-1.002 0-1.817-.796-1.817-1.774V5.323c0-.979.815-1.775 1.817-1.775h4.21l8.509 8.309v7.66c0 .977-.815 1.773-1.817 1.773zM2.182 2.13H5.09v.71H2.545c-.123 0-.244.011-.363.028zM1.455.709h4.373v.71H1.455zM13.09 8.715L9.969 5.677h2.758c.2 0 .364.16.364.354zm2.172-3.391v5.53l-1.453-1.42v-3.4c0-.588-.489-1.065-1.09-1.065H9.24l-1.453-1.42h5.66c1.001 0 1.816.796 1.816 1.775zM13.454 2.84H5.818v-.71h.364a.36.36 0 0 0 .363-.355V.354A.36.36 0 0 0 6.182 0H1.09a.36.36 0 0 0-.364.355v1.42a.36.36 0 0 0 .364.354h.364v.953C.596 3.482 0 4.334 0 5.322v14.194C0 20.886 1.142 22 2.545 22h10.91C14.858 22 16 20.885 16 19.516V5.323c0-1.37-1.142-2.484-2.545-2.484z"/><path d="M7.505 12.111l1.363 2.542c.28.521.428 1.111.428 1.706v.091c0 .52-.22 1.016-.602 1.362-.387.35-.888.509-1.408.447-.881-.106-1.572-.94-1.572-1.9 0-.595.148-1.185.428-1.707zM5 16.36c0 1.344.945 2.473 2.198 2.623a2.479 2.479 0 0 0 1.963-.626A2.575 2.575 0 0 0 10 16.451v-.091a4.37 4.37 0 0 0-.514-2.055l-1.672-3.128c-.125-.235-.503-.235-.628 0l-1.672 3.127A4.372 4.372 0 0 0 5 16.36z"/><path d="M9 16H8a1 1 0 0 1-1 1v1c1.103 0 2-.897 2-2z"/></symbol><symbol id="flask" viewBox="0 0 14 20"><path d="M12.09 19.219H1.9a1.11 1.11 0 0 1-.94-.512 1.155 1.155 0 0 1-.182-.811h.631a.387.387 0 0 0 .383-.391.387.387 0 0 0-.383-.39h-.352l.44-1.094h.647a.387.387 0 0 0 .383-.391.387.387 0 0 0-.383-.39h-.332l.44-1.094h.664a.387.387 0 0 0 .383-.391.387.387 0 0 0-.383-.39h-.35l.44-1.094h.683a.387.387 0 0 0 .383-.391.387.387 0 0 0-.383-.39H3.32l.44-1.094h6.468l2.909 7.228c.146.363.107.757-.107 1.083a1.111 1.111 0 0 1-.942.512zM5.002 7.316c.269-.667.405-1.37.405-2.09V2.5a1.89 1.89 0 0 0-.54-1.33.56.56 0 0 1-.161-.39h4.586a.56.56 0 0 1-.16.39c-.349.356-.54.828-.54 1.33v2.725c0 .72.135 1.423.404 2.09l.925 2.298H4.078zm8.854 10.012L9.707 7.019a4.781 4.781 0 0 1-.348-1.793V2.5c0-.294.112-.57.316-.777.248-.253.385-.59.385-.947V.39A.387.387 0 0 0 9.677 0H4.323a.387.387 0 0 0-.383.39v.387c0 .357.137.694.385.947a1.1 1.1 0 0 1 .316.777v2.725c0 .618-.117 1.221-.347 1.793l-1.14 2.833-.002.003-3.01 7.473a1.965 1.965 0 0 0 .18 1.814c.354.537.945.858 1.58.858h10.196a1.89 1.89 0 0 0 1.58-.858 1.97 1.97 0 0 0 .18-1.814z"/></symbol><symbol id="fruits" viewBox="0 0 27 22"><path d="M21.887 19.51H20.21v.83h1.677v.83H5.113v-.83H19.37v-.83H5.113c-1.94 0-3.541-1.456-3.75-3.321h2.97a1.672 1.672 0 0 0 3.055.43c.293.245.666.4 1.08.4.618 0 1.153-.336 1.444-.83h15.726c-.21 1.865-1.811 3.32-3.75 3.32zM1.34 12.037c0-.458.376-.83.838-.83.463 0 .84.372.84.83 0 .458-.377.83-.84.83a.835.835 0 0 1-.838-.83zm.846-4.981c.035.948.19 1.88.464 2.784a4.541 4.541 0 0 1-1.292-2.784zm3.347 4.15c0 .458-.376.83-.838.83a.835.835 0 0 1-.84-.83c0-.457.377-.83.84-.83.462 0 .838.373.838.83zM7.21 9.963c.462 0 .838.373.838.83 0 .458-.376.83-.838.83a.835.835 0 0 1-.839-.83c0-.457.376-.83.839-.83zm2.935 4.566a.833.833 0 0 1 1.668 0 .833.833 0 0 1-1.668 0zm-1.677 0c.462 0 .838.373.838.83 0 .458-.376.83-.838.83a.835.835 0 0 1-.839-.83c0-.457.376-.83.839-.83zm-2.516.415c.462 0 .838.373.838.83 0 .458-.376.83-.838.83a.835.835 0 0 1-.84-.83c0-.457.377-.83.84-.83zm-1.268-.83a.833.833 0 0 1-1.668 0 .833.833 0 0 1 1.668 0zm4.203-.415a.835.835 0 0 1-.839-.83c0-.458.377-.83.84-.83.462 0 .838.372.838.83 0 .458-.376.83-.839.83zm-1.677-.415c0 .458-.376.83-.839.83a.835.835 0 0 1-.839-.83c0-.458.376-.83.839-.83.463 0 .839.372.839.83zm5.87-5.72v.618a1.395 1.395 0 0 1-.464-.482l-.749.374c.022.043.548 1.06 1.633 1.06s1.611-1.017 1.633-1.06l-.749-.374a1.39 1.39 0 0 1-.464.481v-.617c0-.299.014-.596.04-.893 1.518.135 2.87.93 3.721 2.196l-2.582 4.88.17.212c.043.052.656.788 1.84 1.4h-4.68a1.63 1.63 0 0 0 .232-.83 1.67 1.67 0 0 0-1.677-1.66 1.66 1.66 0 0 0-.426.06c.001-.02.007-.04.007-.06a1.67 1.67 0 0 0-1.678-1.66c-.02 0-.04.005-.062.006.037-.136.062-.275.062-.422a1.63 1.63 0 0 0-.169-.713c.63-1.912 2.388-3.27 4.403-3.422-.025.3-.04.602-.04.906zm7.307-2.021c.095-.18.39-.18.484 0l3.488 6.59c-.78.748-2.02 1.566-3.73 1.566s-2.95-.818-3.73-1.566zm-4.282 8.09l.389-.734c.903.809 2.279 1.63 4.135 1.63 1.856 0 3.232-.821 4.136-1.63l.388.733c-.496.487-2.006 1.727-4.524 1.727-2.537 0-4.031-1.235-4.524-1.725zM5.245 7.23c.065-.106.183-.172.348-.172.198 0 .359.159.359.354v.12a.358.358 0 0 1-.359.356.357.357 0 0 1-.32-.197l-.14-.276zM9.33.83h.396c1.94 0 3.541 1.455 3.75 3.32h-.395c-1.94 0-3.542-1.454-3.751-3.32zm14.819 14.528c1.184-.612 1.797-1.348 1.84-1.4l.17-.213-4.544-8.589a1.11 1.11 0 0 0-.986-.59 1.11 1.11 0 0 0-.985.59l-1.524 2.88a5.825 5.825 0 0 0-4.047-2.195A9.895 9.895 0 0 1 16.334 1.1l-.636-.54a10.723 10.723 0 0 0-1.62 2.513A4.609 4.609 0 0 0 9.726 0H8.468v.415c0 2.518 2.07 4.566 4.613 4.566h.326c-.07.278-.13.558-.177.841-2.264.105-4.275 1.512-5.144 3.561a1.676 1.676 0 0 0-.876-.25c-.613 0-1.144.329-1.437.815a1.673 1.673 0 0 0-1.436-.361c.064-.442.175-.875.343-1.288.224.263.555.418.913.418.66 0 1.197-.531 1.197-1.185v-.12c0-.654-.536-1.186-1.237-1.186a1.21 1.21 0 0 0-.835.337 5.55 5.55 0 0 1-.444-2.167v-.66h-.839v.66c0 .99.237 1.98.684 2.867l.063.125a6.367 6.367 0 0 0-.705 2.28c-.303-.98-.46-1.994-.46-3.026v-.416H.5v.416c0 1.41.543 2.736 1.527 3.75C1.173 10.47.5 11.173.5 12.038c0 .915.752 1.66 1.677 1.66.021 0 .041-.005.062-.006a1.612 1.612 0 0 0-.062.421c0 .499.228.94.58 1.245H.5v.416c0 2.234 1.63 4.095 3.774 4.486V22h18.452v-1.74c2.143-.391 3.774-2.252 3.774-4.486v-.416z"/><path d="M21.5 9h1v1h-1zm2 2h1v1h-1zm-4 0h1v1h-1z"/></symbol><symbol id="handshake" viewBox="0 0 26 16"><path d="M20.324 10.926c-.482-1.057-2.208-2.524-3.875-3.941-.93-.79-1.809-1.537-2.369-2.126a.494.494 0 0 0-.536-.126c-.345.131-.558.233-.726.311-.256.12-.342.162-.687.198a.508.508 0 0 0-.375.236c-.724 1.137-1.474 1.04-1.974.864-.16-.056-.189-.128-.204-.197-.108-.472.432-1.572 1.132-2.307 1.664-1.75 2.522-2.188 4.335-1.337a58.152 58.152 0 0 0 4.137 1.73c.27.098.56-.05.653-.33a.546.546 0 0 0-.316-.686 56.73 56.73 0 0 1-4.055-1.698c-2.349-1.103-3.637-.376-5.478 1.559-.7.736-1.651 2.225-1.406 3.318.106.465.417.81.88.97 1.16.402 2.22.017 3.008-1.083.326-.053.503-.13.769-.256a9.82 9.82 0 0 1 .359-.162c.585.578 1.376 1.25 2.209 1.958 1.505 1.28 3.212 2.73 3.596 3.57.19.414-.014.684-.152.808-.203.183-.48.24-.631.13a.492.492 0 0 0-.553-.02.547.547 0 0 0-.247.52c.035.343-.263.539-.392.606-.328.175-.67.145-.798.02a.498.498 0 0 0-.532-.11.535.535 0 0 0-.327.453c-.031.353-.28.692-.605.824-.156.063-.384.1-.587-.095a.5.5 0 0 0-.828.214c-.02.054-.063.183-.543.183-.34 0-.954-.242-1.254-.451-.36-.249-2.614-2.016-4.56-3.73-.274-.241-.747-.76-1.165-1.219-.37-.406-.71-.776-.884-.93a.493.493 0 0 0-.722.063.558.558 0 0 0 .06.759c.16.14.466.482.805.853.457.502.93 1.02 1.247 1.3 1.907 1.678 4.199 3.49 4.656 3.805.376.26 1.189.626 1.817.626.505 0 .893-.122 1.163-.36.36.148.77.15 1.164-.012a2.06 2.06 0 0 0 1.066-1.035c.404.09.866.027 1.286-.194.41-.218.707-.55.855-.939.407.023.827-.129 1.174-.442.588-.529.75-1.35.41-2.092z"/><path d="M11.045 2h-4.09c-.251 0-.455.224-.455.5s.204.5.455.5h4.09c.251 0 .455-.224.455-.5s-.204-.5-.455-.5zm10.385 8.224c-.125-.231-.377-.295-.563-.137l-1.187.99c-.186.155-.236.47-.11.7.078.144.206.223.337.223a.35.35 0 0 0 .226-.086l1.188-.99c.185-.156.235-.47.11-.7zm-2.62 1.883c-.358-.282-1.96-1.92-2.949-2.952a.5.5 0 1 0-.722.692c.257.267 2.524 2.63 3.05 3.046a.498.498 0 0 0 .704-.084.5.5 0 0 0-.083-.702zm-2.47 1.13c-.514-.41-1.804-1.781-2.095-2.098a.43.43 0 0 0-.632.58c.015.016 1.555 1.678 2.19 2.188a.43.43 0 0 0 .603-.067.43.43 0 0 0-.066-.603zm-1.992 1.006c-.611-.515-1.862-1.845-2.106-2.107a.428.428 0 1 0-.627.585c.352.377 1.548 1.645 2.18 2.178a.427.427 0 0 0 .604-.052.429.429 0 0 0-.051-.604z"/><path d="M4.158 9.9H1.667V1.14c1.875.139 3.898.443 4.633.78-.31 2.408-1.708 6.688-2.142 7.98zm3.16-8.65C6.318.357 2.32.068 1.118 0a.6.6 0 0 0-.435.15.535.535 0 0 0-.183.4v9.9c0 .304.261.55.583.55h3.5a.58.58 0 0 0 .555-.38c.085-.246 2.095-6.063 2.36-8.923a.53.53 0 0 0-.18-.447zm17.189 9.65h-2.135c-.477-1.698-1.883-6.127-2.668-7.957.767-.285 2.413-.775 4.803-.836zM25 1c-3.936 0-6.12 1.105-6.211 1.152a.536.536 0 0 0-.268.342c-.04.15-.02.312.055.446.62 1.095 2.56 7.174 2.933 8.656a.51.51 0 0 0 .483.404H25c.276 0 .501-.246.501-.55v-9.9c0-.305-.225-.55-.501-.55z"/></symbol><symbol id="home" viewBox="0 0 20 20"><path d="M17.217 19.305h-4.59V12.09c0-.555-.431-1.006-.962-1.006h-3.32c-.531 0-.963.451-.963 1.006v7.214h-4.59V7.932L10.006.935l4.681 4.541 1.875 1.82.656.635zm-9.183-7.208c0-.177.138-.321.308-.321h3.326c.17 0 .307.144.307.32v7.209h-3.94zm5.897-9.573h1.965v3.213l-1.965-1.915zm5.464 6.602l-2.843-2.762V1.838h-3.276v1.344L10 0 .605 9.126a.354.354 0 0 0-.017.485c.122.138.33.146.463.017l1.087-1.056V20h15.724V8.572l1.088 1.056a.318.318 0 0 0 .462-.018.354.354 0 0 0-.017-.484z"/></symbol><symbol id="logs" viewBox="0 0 23 22"><path d="M5 12c1.654 0 3-1.346 3-3S6.654 6 5 6a.335.335 0 1 0 0 .67A2.333 2.333 0 0 1 7.33 9 2.333 2.333 0 0 1 5 11.33 2.333 2.333 0 0 1 2.67 9 .335.335 0 1 0 2 9c0 1.654 1.346 3 3 3zm5.855-2h7.29c.196 0 .355-.224.355-.5s-.159-.5-.355-.5h-7.29c-.196 0-.355.224-.355.5s.159.5.355.5zM1.5 17.5C1.5 19.43 3.07 21 5 21s3.5-1.57 3.5-3.5S6.93 14 5 14a.39.39 0 1 0 0 .781A2.722 2.722 0 0 1 7.719 17.5 2.722 2.722 0 0 1 5 20.219 2.722 2.722 0 0 1 2.281 17.5a.39.39 0 1 0-.781 0z"/><path d="M8.928 17.46c0 2.115-1.731 3.837-3.86 3.838-2.13 0-3.862-1.722-3.862-3.839 0-2.116 1.732-3.838 3.861-3.838 2.129 0 3.86 1.722 3.86 3.838zM5.067 5.241c2.129 0 3.86 1.722 3.86 3.838s-1.73 3.838-3.858 3.839c-2.131 0-3.863-1.722-3.863-3.839 0-2.116 1.732-3.838 3.861-3.838zm7.197 0a.352.352 0 0 0 .354-.351.352.352 0 0 0-.354-.351h-1.407L9.468 3.16a1.604 1.604 0 0 0 1.271-1.262l3.262 3.241a.355.355 0 0 0 .25.103h3.69c2.01 0 3.667 1.535 3.846 3.487h-2.438a.352.352 0 0 0-.353.351c0 .194.158.351.353.351h2.438a3.86 3.86 0 0 1-3.847 3.488H7.504a4.593 4.593 0 0 0 1.402-1.38h5.298a.352.352 0 0 0 .353-.351.352.352 0 0 0-.353-.352H9.28a4.49 4.49 0 0 0 .355-1.756 4.535 4.535 0 0 0-2.131-3.838h3.207zM9.162.702c.495 0 .898.4.898.893a.896.896 0 0 1-.898.892.896.896 0 0 1-.898-.892c0-.492.403-.893.898-.893zm12.202 18.514h-11.25a.352.352 0 0 0-.354.35c0 .195.159.352.354.352h10.781a3.863 3.863 0 0 1-2.962 1.38H7.504A4.54 4.54 0 0 0 9.62 17.81h3.169a.352.352 0 0 0 .353-.35.352.352 0 0 0-.353-.352H9.62a4.54 4.54 0 0 0-2.116-3.487h10.43c2.128 0 3.86 1.722 3.86 3.838 0 .633-.156 1.23-.43 1.757zm-1.67-5.946A4.547 4.547 0 0 0 22.5 9.08c0-2.503-2.049-4.54-4.567-4.54h-3.54L10.296.467A1.603 1.603 0 0 0 9.162 0c-.884 0-1.604.715-1.604 1.595a1.584 1.584 0 0 0 .47 1.127L9.856 4.54H5.067C2.549 4.54.5 6.577.5 9.08a4.547 4.547 0 0 0 2.807 4.19A4.547 4.547 0 0 0 .5 17.46C.5 19.962 2.549 22 5.067 22h12.866c2.518 0 4.567-2.037 4.567-4.54a4.547 4.547 0 0 0-2.807-4.19z"/><path d="M14.5 17.5c0 .276.174.5.39.5h7.22c.216 0 .39-.224.39-.5s-.174-.5-.39-.5h-7.22c-.216 0-.39.224-.39.5z"/></symbol><symbol id="nails" viewBox="0 0 23 25"><path d="M10.258 2.755a.433.433 0 0 0-.339-.328l-1.918-.403-.036-.17 4.731-.93.037.17-1.598 1.094a.415.415 0 0 0-.176.43l2.154 10.048-.083 1.315-.618-1.177zM13.371 16a.435.435 0 0 0 .442-.398l.186-2.94a.405.405 0 0 0-.008-.111l-2.108-9.834 1.598-1.094a.415.415 0 0 0 .176-.43l-.183-.855a.442.442 0 0 0-.522-.33l-5.599 1.1a.424.424 0 0 0-.344.5l.183.856a.433.433 0 0 0 .339.328l1.918.403 2.108 9.834c.008.036.02.071.038.105l1.381 2.633a.445.445 0 0 0 .395.233zm8.256-4.7l-4.479 9.611a.43.43 0 0 0 .072.47l1.308 1.452-.076.164-4.42-1.98.077-.159 1.975.025h.005a.45.45 0 0 0 .405-.26l4.478-9.614.883-1.047zm.587-3.142l-1.972 2.336a.43.43 0 0 0-.062.097l-4.377 9.399-1.973-.02a.445.445 0 0 0-.41.254l-.38.818a.433.433 0 0 0 .22.577l5.22 2.342a.45.45 0 0 0 .59-.216l.38-.817a.43.43 0 0 0-.07-.47l-1.308-1.45 4.378-9.4a.44.44 0 0 0 .034-.108l.51-2.992a.434.434 0 0 0-.253-.469.45.45 0 0 0-.527.119zM8.858 12.003l-2.052.037a.463.463 0 0 0-.417.265L2.038 21.97l-.885 1.062.196-1.335L5.7 12.032a.413.413 0 0 0-.089-.464l-1.404-1.403.074-.165 4.65 1.839zm.86-.794L4.215 9.034a.474.474 0 0 0-.605.23l-.37.824a.413.413 0 0 0 .088.464l1.404 1.403-4.259 9.459a.417.417 0 0 0-.032.11l-.437 2.984a.43.43 0 0 0 .279.458.482.482 0 0 0 .544-.133l1.977-2.376a.433.433 0 0 0 .061-.098l4.26-9.459 2.051-.037a.463.463 0 0 0 .417-.264l.37-.823a.423.423 0 0 0-.245-.567z"/></symbol><symbol id="pacifier" viewBox="0 0 19 18"><path d="M17.615 4.826a3.362 3.362 0 0 1-2.238 2.278 12.86 12.86 0 0 0-1.698.646l-.006-.008-.258.131-.043.024c-.084.043-.164.09-.245.137-.412.23-.763.475-1.046.734-.02.017-.043.034-.062.052-.124.12-.237.24-.335.365-.17-.197-.345-.39-.52-.583a29.542 29.542 0 0 0-1.707-1.728c.121-.1.24-.215.355-.341l.06-.075c.242-.278.47-.617.687-1.013.052-.095.105-.188.154-.285l.022-.04.126-.259-.007-.006c.26-.57.468-1.163.628-1.7A3.36 3.36 0 0 1 13.729.887c1.023-.31 2.065-.103 2.862.57a3.669 3.669 0 0 1 .46.467c.665.808.87 1.866.564 2.902zm-1.518 9.478c-.27.274-1.114.257-2.676-.61a17.554 17.554 0 0 1-1.533-.987c-.101-.073-.203-.146-.305-.222-.1-.075-.202-.155-.304-.234l-.046-.035c-.18-.141-.361-.287-.541-.436-.045-.037-.09-.072-.134-.11a27.567 27.567 0 0 1-.515-.444l-.123-.108-.095-.086a28 28 0 0 1-.443-.409l-.069-.063-.143-.136a31.625 31.625 0 0 1-.608-.597c-.202-.204-.397-.41-.59-.617l-.134-.145-.062-.07a23.638 23.638 0 0 1-.403-.449l-.085-.096-.107-.125a26.35 26.35 0 0 1-.438-.522l-.109-.135c-.147-.183-.29-.366-.43-.55l-.034-.046c-.078-.103-.157-.206-.231-.308-.075-.104-.146-.206-.218-.309a17.922 17.922 0 0 1-.974-1.554c-.856-1.583-.873-2.439-.603-2.713.109-.11.282-.165.51-.165.965 0 2.926.989 5.288 3.021-.037.068-.073.142-.11.207l-.01.017a5.473 5.473 0 0 1-.263.407l-.009.012a3.92 3.92 0 0 1-.272.338l-.011.013c-.091.1-.183.188-.277.265l-.018.014c-.093.076-.187.14-.283.193l-.461.252.39.354a29.213 29.213 0 0 1 2.827 2.936l.36.429.25-.501a1.91 1.91 0 0 1 .185-.293l.012-.017a2.64 2.64 0 0 1 .258-.285l.014-.013c.099-.095.21-.188.331-.28l.014-.01a5.17 5.17 0 0 1 .401-.27l.019-.011c.064-.04.137-.076.205-.114 2.312 2.835 3.144 5.069 2.603 5.617zM10.64 15.63a5.461 5.461 0 0 1-7.795 0c-2.149-2.18-2.149-5.728 0-7.908a5.413 5.413 0 0 1 1.971-1.28l.15.22c.078.114.156.228.238.343l.048.07a4.744 4.744 0 0 0-1.887 1.174c-1.862 1.89-1.862 4.964 0 6.854a4.728 4.728 0 0 0 3.377 1.417 4.727 4.727 0 0 0 3.378-1.417 4.836 4.836 0 0 0 1.157-1.915c.023.018.046.032.069.05.113.082.226.161.338.24.073.05.146.104.217.153a5.51 5.51 0 0 1-1.261 1.999zm-2.025-4.71l.07.067.082.077.023.021c.14.132.28.262.42.39l.127.118.01.01.046.039a22 22 0 0 0 .5.437l.086.075a25.093 25.093 0 0 0 .673.55A4.094 4.094 0 0 1 9.6 14.568a4.008 4.008 0 0 1-5.716 0 4.142 4.142 0 0 1 0-5.795 4.012 4.012 0 0 1 1.838-1.066l.097.125c.145.185.293.371.446.557l.074.088c.14.169.284.338.431.506l.04.046.008.01c.038.044.078.087.117.13.126.142.254.284.384.426l.022.023.075.084.067.07a30.46 30.46 0 0 0 1.132 1.148zm9.008-9.471a4.38 4.38 0 0 0-.553-.562C16.08.05 14.786-.21 13.523.174a4.102 4.102 0 0 0-2.742 2.77c-.155.521-.325.99-.506 1.413C7.854 2.31 4.797.476 3.625 1.663c-.62.629-.454 1.873.479 3.597.097.18.203.364.315.55a6.134 6.134 0 0 0-2.092 1.384c-2.436 2.468-2.436 6.485 0 8.954A6.184 6.184 0 0 0 6.743 18c1.6 0 3.2-.617 4.417-1.851a6.228 6.228 0 0 0 1.366-2.121c.183.113.364.22.542.319 1.026.57 1.88.858 2.533.858.428 0 .77-.124 1.016-.374 1.128-1.143-.472-4.027-2.445-6.48a12.65 12.65 0 0 1 1.424-.526 4.104 4.104 0 0 0 2.733-2.78c.379-1.282.122-2.592-.705-3.596z"/></symbol><symbol id="password" viewBox="0 0 20 23"><path d="M15.955 15.445a3.735 3.735 0 0 0-2.682 1.47 3.805 3.805 0 0 0-.706 2.997H1.283a.694.694 0 0 1-.691-.697V8.862c0-.385.31-.696.69-.697h13.982c.382 0 .69.312.69.697zm3.463 3.77c0 1.76-1.416 3.186-3.162 3.186-1.747 0-3.162-1.426-3.162-3.186s1.415-3.186 3.162-3.186c1.745.002 3.16 1.428 3.162 3.186zM3.25 3.52C3.253 1.906 4.548.599 6.146.597H7.18v.476H6.146A2.437 2.437 0 0 0 3.723 3.52v4.049H3.25zm7.15-1.848a1.842 1.842 0 0 1 1.831 1.848v4.049H4.315v-4.05a1.842 1.842 0 0 1 1.831-1.848zm-2.63-.607V.597h1.014v.467zm5.525 6.504h-.472v-4.05A2.437 2.437 0 0 0 10.4 1.073H9.367V.597h1.034c1.598.002 2.893 1.31 2.895 2.922zM10.4 0H6.146C4.221.002 2.661 1.576 2.659 3.519v4.049H1.283A1.29 1.29 0 0 0 0 8.862v10.353a1.29 1.29 0 0 0 1.283 1.294h11.445a3.743 3.743 0 0 0 4.29 2.41c1.826-.385 3.093-2.065 2.974-3.943-.118-1.878-1.586-3.383-3.445-3.531V8.862a1.29 1.29 0 0 0-1.283-1.294h-1.376V3.519C13.885 1.576 12.326.002 10.4 0z"/><path d="M14.516 19.107a.286.286 0 0 0-.428 0 .347.347 0 0 0 0 .463l1.232 1.334c.118.128.31.128.427 0l2.164-2.345a.347.347 0 0 0 0-.463.286.286 0 0 0-.428 0l-1.95 2.113z"/></symbol><symbol id="pickaxe" viewBox="0 0 23 22"><path d="M16.346 8.098l.935-.935a19.052 19.052 0 0 1 2.07 2.853A17.476 17.476 0 0 1 20.86 13.3l-.193-.236c-1.841-2.253-3.28-3.862-4.32-4.965zm-.115-1.829a.458.458 0 1 0-.001.649l-1.62 1.62-.648-.649 2.917-2.916.648.648-1.296 1.296a.458.458 0 0 0 0-.648zM2.198 20.94a.456.456 0 0 1-.647 0 .458.458 0 0 1 0-.648L13.305 8.538l.647.647zM9.437 1.833L9.2 1.64a17.5 17.5 0 0 1 3.282 1.509 19.096 19.096 0 0 1 2.854 2.069l-.935.935c-1.673-1.58-3.566-3.176-4.965-4.32zm8.494 4.68l.893-.892-1.945-1.945-.892.892C10.807.012 5.647 0 5.647 0s4.593 3.485 8.107 6.801L.903 19.653a1.375 1.375 0 1 0 1.944 1.944L15.698 8.746c3.317 3.514 6.802 8.106 6.802 8.106s-.013-5.16-4.569-10.34z"/><path d="M16.576 15.947l3.187 2.17L21.022 21H18.1l.358-1.846zM17.15 21H9.968l1.263-2.888 3.92-2.712 2.32 3.946zm3.35-3.572L15.454 14 10.5 17.428 8.5 22h14z"/></symbol><symbol id="pizza" viewBox="0 0 23 19"><path d="M19.537 16.39h-.003a2.208 2.208 0 0 0-2.167-1.87 2.208 2.208 0 0 0-2.168 1.87h-3.332v-1.32c0-.174-.04-.345-.116-.5l-.758-1.539h6.74l.012-.002h2.268l.229.93a.733.733 0 0 0 .71.562h.809l-.006 1.496zm-2.17 1.856c-.81 0-1.467-.667-1.467-1.49s.657-1.49 1.467-1.49 1.466.667 1.466 1.49-.656 1.49-1.466 1.49zM3.468 16.39H2.391l-1.158-.372v-.937l1.175-.894a.753.753 0 0 0 .293-.596v-.56h1.454l.015.001h6.013l.924 1.873a.374.374 0 0 1 .038.165v1.32H7.808a2.212 2.212 0 0 0-2.17-1.868 2.212 2.212 0 0 0-2.17 1.868zm2.165 1.857c-.81 0-1.466-.667-1.466-1.49s.656-1.49 1.466-1.49c.81 0 1.467.667 1.467 1.49s-.657 1.49-1.467 1.49zM1.757 13.03h.22v.561l-.744.559v-.59zm3.76-2.977h.425l-.272 2.233h-.973zm1.949-1.49H12.6v.755H7.467zm2.894-.745a.372.372 0 0 0 .017-.088 1.014 1.014 0 0 1 .49-.89.98.98 0 0 1 1.004 0c.31.185.498.525.491.89a.38.38 0 0 0 .018.088zm-5.784 0a.087.087 0 0 1-.082-.06.09.09 0 0 1 .03-.099L8.415 4.59c.227.471.71.755 1.225.72a1.272 1.272 0 0 0 1.118-.882 1.304 1.304 0 0 0-.379-1.386l1.364-1.075a10.668 10.668 0 0 1 1.96 5.848h-.637a.371.371 0 0 0 .018-.087 1.76 1.76 0 0 0-.855-1.54 1.699 1.699 0 0 0-1.738 0 1.76 1.76 0 0 0-.855 1.54.37.37 0 0 0 .017.087zm5.52-3.799a.539.539 0 0 1-1.07.09l.746-.58a.535.535 0 0 1 .325.49zM13.299.765a.09.09 0 0 1 .07-.02.076.076 0 0 1 .054.032c1.29 1.82 1.996 4.162 2.101 6.961a.08.08 0 0 1-.023.058.092.092 0 0 1-.068.03h-.999c-.065-2.27-.8-4.468-2.107-6.306zm3.548 11.52h-6.08v-2.233h3.881zm-6.823-2.233v2.233H6.415l.275-2.233zm11.74 3.725h-.81l-.183-.748h.997zm.004-1.492h-3.884l-2.716-2.76a.722.722 0 0 0-.52-.218h-1.314v-.745h2.11a.826.826 0 0 0 .824-.862c-.11-2.942-.867-5.42-2.246-7.358a.805.805 0 0 0-.543-.333.82.82 0 0 0-.623.165l-1.254.968-7.526 5.926a.842.842 0 0 0-.275.93.822.822 0 0 0 .776.564h2.157v.745h-1.21a.739.739 0 0 0-.687.484l-.923 2.494H1.75a.713.713 0 0 0-.515.22l-.528.532a.763.763 0 0 0-.207.521v2.459a.733.733 0 0 0 .534.716l1.188.384a.361.361 0 0 0 .111.017h1.135c.07.414.253.8.53 1.112.259.118.187.255.446.373.286.13 1.184.087 1.47.217 1.1-.181 1.704-.63 1.885-1.702h7.402c.07.414.145.812.483 1.177 0 0 .053.263.583.525.53.263 1.347.104 1.347.104 1.04-.104 1.738-.734 1.919-1.806h.034c.02 0 .04-.001.06-.005l2.238-.375a.75.75 0 0 0 .635-.745v-2.98a.75.75 0 0 0-.215-.526.728.728 0 0 0-.518-.218z"/></symbol><symbol id="resort" viewBox="0 0 20 21"><path d="M11.177 20.111H7.833V17.89h3.344zM11.583 17H7.417c-.23 0-.417.199-.417.444v3.112c0 .245.187.444.417.444h4.166c.23 0 .417-.199.417-.444v-3.112c0-.245-.186-.444-.417-.444z"/><path d="M5.91 20.125V.875h8.18v19.25zM14.544 0h-9.09A.446.446 0 0 0 5 .437v20.126c0 .241.204.437.455.437h9.09a.446.446 0 0 0 .455-.437V.437A.446.446 0 0 0 14.545 0z"/><path d="M5 20.146H2V2.864h3zM5.5 2h-4c-.276 0-.5.193-.5.432v18.136c0 .239.224.432.5.432h4c.276 0 .5-.193.5-.432V2.432C6 2.193 5.776 2 5.5 2z"/><path d="M1 2h1v1H1zm4-2h10v1H5zm2 10h1v1H7zm2 0h1v1H9zm1 0h1v1h-1zm2 0h1v1h-1zM7 9h1v1H7zm2 0h1v1H9zm1 0h1v1h-1zm2 0h1v1h-1zm-9 1h1v1H3zm0-1h1v1H3zm15 11.146h-3V2.864h3zM18.5 2h-4c-.277 0-.5.193-.5.432v18.136c0 .239.223.432.5.432h4c.277 0 .5-.193.5-.432V2.432c0-.239-.223-.432-.5-.432z"/><path d="M18 2h1v1h-1zm-2 8h1v1h-1zm0-1h1v1h-1zM0 20h5v1H0zm13 0h7v1h-7z"/></symbol><symbol id="ribbon" viewBox="0 0 21 19"><path d="M16.888 15.399a.292.292 0 0 0-.273.086l-1.97 2.1c-.869-4.475-2.863-8.049-3.613-9.28h.076c.306 0 .611-.06.895-.174.238.235.739.713 1.386 1.229 1.056.842 2.292 1.694 3.651 1.923.43.072.878.068 1.296-.062l.011-.004a26.747 26.747 0 0 1 1.386 4.767zM1.086 5.916c0-3.205.782-4.83 2.325-4.83C5.257 1.086 7.67 3.247 8.453 4a2.39 2.39 0 0 0 .001 3.831c-.195.188-.49.462-.853.769-.006.004-.776.628-1.177.906-.96.664-2.199 1.462-3.426 1.197h-.001c-1.269-.277-1.911-1.884-1.911-4.787zm10.022-1.804c.969 0 1.804.834 1.804 1.804 0 .974-.82 1.802-1.801 1.803H9.89c-.968 0-1.801-.837-1.801-1.803 0-.976.827-1.804 1.804-1.804zm8.86 5.422c.353-.876.532-2.093.532-3.618 0-1.974-.301-3.425-.895-4.315a.293.293 0 0 0-.487.325c.528.792.796 2.134.796 3.99 0 2.596-.513 4.16-1.525 4.655l-.005.003c-1.249.614-2.775-.385-3.785-1.046-.723-.474-1.39-1.057-2.016-1.652a.935.935 0 0 0-.047-.045c.6-.441.962-1.172.962-1.915 0-.749-.361-1.47-.962-1.916a17.2 17.2 0 0 1 2.012-1.66c1.129-.784 2.707-1.61 3.814-1.093a.293.293 0 0 0 .248-.53C16.3-.362 12.772 2.938 12.002 3.7a2.378 2.378 0 0 0-.894-.174H9.892c-.316 0-.618.063-.895.175C8.336 3.046 5.62.5 3.414.5 2.508.5 1.8.917 1.308 1.738.772 2.634.5 4.04.5 5.916c0 1.875.272 3.281.808 4.177.226.378.498.67.814.875-.26.662-.495 1.33-.7 1.992a.293.293 0 1 0 .559.174 27.99 27.99 0 0 1 .672-1.915c.235.074.49.112.762.112 1.685 0 3.67-1.488 4.806-2.48.078-.069.723-.742.776-.72.284.115.59.174.895.174h.076c-.75 1.231-2.744 4.805-3.613 9.28l-1.97-2.1a.293.293 0 0 0-.273-.086l-2.845.585a24.79 24.79 0 0 1 .382-1.691.293.293 0 0 0-.567-.149c-.192.73-.35 1.458-.469 2.165-.033.2.15.377.348.336l3.108-.64 2.257 2.405a.296.296 0 0 0 .502-.152c.495-2.93 1.532-5.513 2.315-7.164A27.588 27.588 0 0 1 10.5 8.56a27.51 27.51 0 0 1 1.357 2.534c.783 1.651 1.82 4.234 2.315 7.164.04.234.34.325.502.152l2.257-2.404 3.108.639a.299.299 0 0 0 .344-.358 27.075 27.075 0 0 0-1.506-5.32c.46-.3.827-.78 1.09-1.433z"/></symbol><symbol id="shirt" viewBox="0 0 22 19"><path d="M19.6 7.831l-1.902-.657-1.206-.417V18.05H5.498V6.757l-1.206.417-1.903.657-1.263-3.603L6.657.95h1.264c.395 1.374 1.622 2.375 3.074 2.375 1.453 0 2.68-1.001 3.073-2.375h1.265l5.532 3.278zM15.585 0h-2.292c0 1.31-1.028 2.375-2.292 2.375C9.736 2.375 8.709 1.31 8.709 0H6.417L0 3.8l1.834 5.225 2.75-.95V19h12.833V8.075l2.75.95L22 3.8z"/></symbol><symbol id="startup" viewBox="0 0 20 20"><path d="M15.071 6.071A.802.802 0 0 1 13.94 4.94a.795.795 0 0 1 .566-.234.801.801 0 0 1 .566 1.366zm.49-1.632A1.49 1.49 0 0 0 14.5 4a1.502 1.502 0 0 0 0 3 1.502 1.502 0 0 0 1.061-2.56zM5.774 15.25a.407.407 0 0 0-.546.184l-.485.974c-.21.423-.635.706-1.107.738l-.564.04a.239.239 0 0 1-.187-.071.239.239 0 0 1-.07-.187l.039-.564c.032-.472.315-.896.738-1.107l.974-.485a.407.407 0 1 0-.363-.73l-.973.486a2.161 2.161 0 0 0-1.189 1.78l-.039.564a1.055 1.055 0 0 0 1.126 1.126l.564-.04a2.161 2.161 0 0 0 1.78-1.188l.485-.973a.407.407 0 0 0-.183-.546z"/><path d="M19.206 1.111a11.076 11.076 0 0 1-4.249 8.206l-6.15 4.797c-.51-.3-.986-.653-1.421-1.054l2.073-2.084a.396.396 0 0 0 0-.558.39.39 0 0 0-.554 0l-2.072 2.083a8.344 8.344 0 0 1-1.006-1.379l5.044-6.24a11.028 11.028 0 0 1 7.848-4.07l.365-.023a.122.122 0 0 1 .095.036.122.122 0 0 1 .037.094zm-5.461 11.706a5.908 5.908 0 0 1-1.726 4.192l-1.68 1.69-.235-4.589 3.64-2.842v1.549zm-6.528 1.815c-.204.172-.414.348-.61.51a4.332 4.332 0 0 1-1.746-1.757l.846-1.01c.256.345.537.672.84.978v.001c.336.34.697.652 1.08.934l-.41.344zM1.293 9.61l1.68-1.695a5.831 5.831 0 0 1 4.163-1.741l1.644.048-2.92 3.625zM19.73.263a.905.905 0 0 0-.695-.261l-.365.023a11.81 11.81 0 0 0-8.407 4.362l-.86 1.064-2.249-.066h-.012A6.616 6.616 0 0 0 2.42 7.352L.115 9.67a.396.396 0 0 0 .257.673l4.877.252-.199.246a.396.396 0 0 0-.04.437c.076.142.157.28.24.417l-1.156 1.381a.397.397 0 0 0-.055.423 5.135 5.135 0 0 0 2.452 2.466.39.39 0 0 0 .415-.05c.249-.203.536-.444.814-.677.198-.166.4-.336.59-.493.113.068.227.134.343.198a.39.39 0 0 0 .428-.035l.268-.208.251 4.926a.394.394 0 0 0 .392.374.39.39 0 0 0 .277-.116l2.304-2.317a6.694 6.694 0 0 0 1.956-4.75v-2.161l.91-.71a11.877 11.877 0 0 0 4.55-8.796L20 .958a.917.917 0 0 0-.27-.695z"/></symbol><symbol id="triangle" viewBox="0 0 23 22"><path d="M21.79 18.66l-7.127-7.128 1.506-1.505 3.492 3.493V2.839H8.981l3.492 3.492-1.505 1.506L3.84.71h2.337v.71h.71V.71h.71v1.419h.71V.709h.71v.71h.709V.71h.71v1.42h.71V.709h.709v.71h.71V.71h.71v1.42h.709V.709h.71v.71h.71V.71h.709v1.42h.71V.709h.71v.71h.709V.71h.71v1.42h.71V.709h2.128zM1.238 21.262l.393-1.178.785.785zm1.191-3.573l2.382 2.382-1.643.547-1.286-1.286zm1.944.94l5.604-5.604-.502-.502-5.604 5.604-1.095-1.095 7.66-7.66 2.691 2.693-7.66 7.659zM11.5 8.309L14.192 11l-.563.563-2.692-2.692zm2.073-2.074a1.905 1.905 0 0 1 2.692 2.692l-1.571 1.571-2.692-2.692zm-.501-.502l-.097.097-2.281-2.282h8.258v8.258L16.67 9.525l.097-.097c.493-.493.765-1.15.765-1.847a2.616 2.616 0 0 0-2.613-2.613c-.698 0-1.354.272-1.847.765zM22.5 0H2.127l8.339 8.339-8.502 8.502L.5 21.233V22h.767l4.392-1.464 8.502-8.502 8.339 8.339z"/><path d="M10.5 11.586l.586-.586.414.414-.586.586z"/></symbol><symbol id="web" viewBox="0 0 19 18"><path d="M18.208 11.445H.792v-9.4c0-.678.531-1.227 1.187-1.227h15.042c.656 0 1.187.55 1.187 1.226zm0 1.646c0 .678-.531 1.227-1.187 1.227H1.979c-.656 0-1.187-.55-1.187-1.227v-.818h17.416zM7.65 17.17l.565-2.035h2.57l.565 2.036zM17.02 0H1.98C.886.001 0 .916 0 2.045v11.046c.001 1.129.887 2.044 1.98 2.045h5.412l-.565 2.046H5.542V18h7.916v-.818h-1.285l-.565-2.046h5.413c1.092-.001 1.978-.916 1.979-2.045V2.045C18.999.916 18.113.001 17.02 0z"/></symbol><symbol id="arrow_right" viewBox="0 0 7 11"><path d="M4.97.243l.125-.14a1.13 1.13 0 0 0-.094.122A.956.956 0 0 1 5.5.101a.956.956 0 0 1 .5.124 1.13 1.13 0 0 0-.095-.121l.124.139c.084.051.164.117.235.196l4.332 4.825c.407.452.408 1.182.004 1.632l.297-.331a.966.966 0 0 1-1.466-.004L5.5 2.183 1.569 6.56a.966.966 0 0 1-1.466.004l.297.331a1.249 1.249 0 0 1 .004-1.632L4.736.439c.071-.08.15-.145.235-.196z" transform="rotate(90 3.5 3.5)"/></symbol></svg>